{
.appVersion = "945";
classes = (
{
automatic = 1;
code = "Eth Lslash Scaron Yacute Thorn Zcaron A B C D E F G H I J K L M N O P Q R S T U V W X Y Z Adieresis Aring Ccedilla Eacute Ntilde Odieresis Udieresis AE Oslash Agrave Atilde Otilde OE Ydieresis Acircumflex Ecircumflex Aacute Edieresis Egrave Iacute Icircumflex Idieresis Igrave Oacute Ocircumflex Ograve Uacute Ucircumflex Ugrave Amacron Abreve Aogonek uni01CD AEacute Cacute Ccircumflex Cdotaccent Ccaron Dcaron Dcroat Emacron Ebreve Edotaccent Eogonek Ecaron Gcircumflex Gbreve Gdotaccent Gcommaaccent Hcircumflex Hbar Itilde Imacron Ibreve Iogonek Idotaccent uni01CF IJ Jcircumflex Kcommaaccent Lacute Lcommaaccent Lcaron Ldot Nacute Ncommaaccent Ncaron Eng Omacron Obreve Ohungarumlaut uni01D1 Oslashacute Racute Rcommaaccent Rcaron Sacute Scircumflex Scedilla Scommaaccent Tcedilla Tcommaaccent Tcaron Tbar Utilde Umacron Ubreve Uring Uhungarumlaut Uogonek uni01D3 Wcircumflex Wgrave Wacute Wdieresis Ygrave Ycircumflex Zacute Zdotaccent";
name = Uppercase;
}
);
copyright = "Copyright (c) 2016 by Red Hat, Inc. All rights reserved.";
customParameters = (
{
name = description;
value = "Overpass is an open source webfont family inspired by Highway Gothic. Sponsored by Red Hat and created by Delve Fonts.\012\012Overpass is the typeface used by Red Hat. Free and open source, released as both OFL+LGPL. The origin-artwork that inspired Overpass (Highway Gothic) is public domain. Used globally in road signage, Highway Gothic embodies design for the public good. Traffic control systems demonstrate that open standards and open communication help complex communities work better together. This digital interpretation of Highway Gothic includes a wide array of variations so that web designers have the flexibility they expect for modern web typography.\012Today’s enterprise brands all have distinct typographic expressions. In the software arena, Overpass is strongly aligned to Red Hat brand.";
},
{
name = vendorID;
value = DELV;

glyphs = (
{
glyphname = Eth;
lastChange = "2016-11-16 16:27:00 +0000";
layers = (
{
background = {
paths = (
{
closed = 1;
nodes = (
"135 0 LINE",
"317 0 LINE SMOOTH",
"569 0 OFFCURVE",
"638 189 OFFCURVE",
"638 350 CURVE SMOOTH",
"638 523 OFFCURVE",
"558 700 OFFCURVE",
"321 700 CURVE SMOOTH",
"135 700 LINE",
"135 380 LINE",
"65 380 LINE",
"65 318 LINE",
"135 318 LINE"
);
},
{
closed = 1;
nodes = (
"205 63 LINE",
"205 318 LINE",
"360 318 LINE",
"360 380 LINE",
"205 380 LINE",
"205 637 LINE",
"333 637 LINE SMOOTH",
"499 637 OFFCURVE",
"565 495 OFFCURVE",
"565 350 CURVE SMOOTH",
"565 214 OFFCURVE",
"510 63 OFFCURVE",
"322 63 CURVE SMOOTH"
);
}
);
};
components = (
{
name = D;
}
);
hints = (
{
place = "{135, 70}";
},
{
place = "{565, 73}";
},
{
horizontal = 1;
place = "{0, 63}";
},
{
horizontal = 1;
place = "{637, 63}";
},
{
horizontal = 1;
place = "{318, 62}";
}
);
layerId = UUID0;
paths = (
{
closed = 1;
nodes = (
"325 318 LINE",
"325 380 LINE",
"40 380 LINE",
"40 318 LINE"
);
}
);
width = 616;
},
{
background = {
paths = (
{
closed = 1;
nodes = (
"51 0 LINE",
"283 0 LINE SMOOTH",
"540 0 OFFCURVE",
"626 190 OFFCURVE",
"626 350 CURVE SMOOTH",
"626 524 OFFCURVE",
"532 700 OFFCURVE",
"287 700 CURVE SMOOTH",
"51 700 LINE",
"51 413 LINE",
"-11 413 LINE",
"-11 287 LINE",
"51 287 LINE"
);
},
{
closed = 1;
nodes = (
"186 128 LINE",
"186 287 LINE",
"329 287 LINE",
"329 413 LINE",
"186 413 LINE",
"186 572 LINE",
"310 572 LINE SMOOTH",
"433 572 OFFCURVE",
"486 459 OFFCURVE",
"486 350 CURVE SMOOTH",
"486 247 OFFCURVE",
"437 128 OFFCURVE",
"299 128 CURVE SMOOTH"
);
}
);
};
components = (
{
name = D;
}
);
layerId = "C8970C82-1F9F-492B-A412-6BE281DD1303";
paths = (
{
closed = 1;
nodes = (
"338 287 LINE",
"338 413 LINE",
"10 413 LINE",
"10 287 LINE"
);
}
);
width = 616;
}
);
unicode = 00D0;
},
{
glyphname = eth;
lastChange = "2016-11-16 16:27:00 +0000";
layers = (
{
background = {
paths = (
{
closed = 1;
nodes = (
"346 692 LINE",
"311 727 LINE",
"254 665 LINE",
"207 691 OFFCURVE",
"147 707 OFFCURVE",
"90 712 CURVE",
"90 659 LINE",
"138 655 OFFCURVE",
"180 642 OFFCURVE",
"215 623 CURVE",
"157 560 LINE",
"190 526 LINE",
"256 596 LINE",
"328 541 OFFCURVE",
"367 456 OFFCURVE",
"378 369 CURVE",
"356 411 OFFCURVE",
"313 456 OFFCURVE",
"230 456 CURVE SMOOTH",
"105 456 OFFCURVE",
"11 362 OFFCURVE",
"11 221 CURVE SMOOTH",
"11 87 OFFCURVE",
"97 -12 OFFCURVE",
"230 -12 CURVE SMOOTH",
"370 -12 OFFCURVE",
"449 93 OFFCURVE",
"449 269 CURVE SMOOTH",
"449 444 OFFCURVE",
"387 567 OFFCURVE",
"295 638 CURVE"
);
},
{
closed = 1;
nodes = (
"314 393 OFFCURVE",
"376 317 OFFCURVE",
"376 220 CURVE SMOOTH",
"376 124 OFFCURVE",
"311 51 OFFCURVE",
"230 51 CURVE SMOOTH",
"151 51 OFFCURVE",
"84 124 OFFCURVE",
"84 221 CURVE SMOOTH",
"84 321 OFFCURVE",
"149 393 OFFCURVE",
"230 393 CURVE SMOOTH"
);
}
);
};
hints = (
{
origin = "{0, 27}";
target = "{1, 3}";
},
{
origin = "{1, 9}";
target = "{0, 2}";
},
{
horizontal = 1;
origin = "{0, 12}";
target = "{0, 11}";
},
{
horizontal = 1;
origin = "{1, 6}";
target = "{0, 24}";
},
{
horizontal = 1;
origin = "{0, 30}";
target = "{1, 0}";
}
);
layerId = UUID0;
paths = (
{
closed = 1;
nodes = (
"448 -12 OFFCURVE",
"527 93 OFFCURVE",
"527 269 CURVE SMOOTH",
"527 444 OFFCURVE",
"465 567 OFFCURVE",
"373 638 CURVE",
"424 692 LINE",
"389 727 LINE",
"332 665 LINE",
"285 691 OFFCURVE",
"225 707 OFFCURVE",
"168 712 CURVE",
"168 659 LINE",
"216 655 OFFCURVE",
"258 642 OFFCURVE",
"293 623 CURVE",
"235 560 LINE",
"268 526 LINE",
"334 596 LINE",
"406 541 OFFCURVE",
"445 456 OFFCURVE",
"456 369 CURVE",
"434 411 OFFCURVE",
"391 456 OFFCURVE",
"308 456 CURVE SMOOTH",
"183 456 OFFCURVE",
"89 362 OFFCURVE",
"89 221 CURVE SMOOTH",
"89 87 OFFCURVE",
"175 -12 OFFCURVE",
"308 -12 CURVE SMOOTH"
);
},
{
closed = 1;
nodes = (
"229 51 OFFCURVE",
"162 124 OFFCURVE",
"162 221 CURVE SMOOTH",
"162 321 OFFCURVE",
"227 393 OFFCURVE",
"308 393 CURVE SMOOTH",
"392 393 OFFCURVE",
"454 317 OFFCURVE",
"454 220 CURVE SMOOTH",
"454 124 OFFCURVE",
"389 51 OFFCURVE",
"308 51 CURVE SMOOTH"
);
}
);
width = 616;
},
{
layerId = "C8970C82-1F9F-492B-A412-6BE281DD1303";
paths = (
{
closed = 1;
nodes = (
"469 -12 OFFCURVE",
"543 113 OFFCURVE",
"543 268 CURVE SMOOTH",
"543 409 OFFCURVE",
"503 542 OFFCURVE",
"412 622 CURVE",
"456 668 LINE",
"385 736 LINE",
"328 677 LINE",
"281 698 OFFCURVE",
"224 712 OFFCURVE",
"152 712 CURVE",
"152 596 LINE",
"183 596 OFFCURVE",
"212 591 OFFCURVE",
"239 583 CURVE",
"199 542 LINE",
"271 475 LINE",
"329 535 LINE",
"357 509 OFFCURVE",
"385 465 OFFCURVE",
"393 426 CURVE",
"369 445 OFFCURVE",
"335 456 OFFCURVE",
"298 456 CURVE SMOOTH",
"165 456 OFFCURVE",
"73 348 OFFCURVE",
"73 221 CURVE SMOOTH",
"73 87 OFFCURVE",
"172 -12 OFFCURVE",
"308 -12 CURVE SMOOTH"
);
},
{
closed = 1;
nodes = (
"250 113 OFFCURVE",
"203 159 OFFCURVE",
"203 221 CURVE SMOOTH",
"203 288 OFFCURVE",
"248 331 OFFCURVE",
"307 331 CURVE SMOOTH",
"368 331 OFFCURVE",
"413 287 OFFCURVE",
"413 220 CURVE SMOOTH",
"413 159 OFFCURVE",
"368 113 OFFCURVE",
"308 113 CURVE SMOOTH"
);
}
);
width = 616;
}
);
unicode = 00F0;
},
{
glyphname = Lslash;
lastChange = "2016-11-16 16:27:00 +0000";
layers = (
{
background = {
paths = (
{
closed = 1;
nodes = (
"478 0 LINE",
"478 67 LINE",
"131 67 LINE",
"131 330 LINE",
"239 414 LINE",
"239 491 LINE",
"131 409 LINE",
"131 700 LINE",
"61 700 LINE",
"61 349 LINE",
"-14 293 LINE",
"-14 217 LINE",
"61 272 LINE",
"61 0 LINE"
);
}
);
};
hints = (
{
origin = "{0, 8}";
target = "{0, 7}";
},
{
horizontal = 1;
origin = "{0, 0}";
target = "{0, 1}";
},
{
horizontal = 1;
origin = "{0, 7}";
target = down;
type = TopGhost;
}
);
layerId = UUID0;
paths = (
{
closed = 1;
nodes = (
"554 0 LINE",
"554 67 LINE",
"207 67 LINE",
"207 330 LINE",
"315 414 LINE",
"315 491 LINE",
"207 409 LINE",
"207 700 LINE",
"137 700 LINE",
"137 349 LINE",
"62 293 LINE",
"62 217 LINE",
"137 272 LINE",
"137 0 LINE"
);
}
);
width = 616;
},
{
layerId = "C8970C82-1F9F-492B-A412-6BE281DD1303";
paths = (
{
closed = 1;
nodes = (
"557 0 LINE",
"557 130 LINE",
"239 130 LINE",
"239 311 LINE",
"384 420 LINE",
"384 567 LINE",
"239 457 LINE",
"239 700 LINE",
"104 700 LINE",
"104 356 LINE",
"38 306 LINE",
"38 158 LINE",
"104 209 LINE",
"104 0 LINE"
);
}
);
width = 616;
}
);
unicode = 0141;
},
{
glyphname = lslash;
lastChange = "2016-11-16 16:27:00 +0000";
layers = (
{
background = {
paths = (
{
closed = 1;
nodes = (
"343 0 LINE",
"343 328 LINE",
"408 378 LINE",
"408 437 LINE",
"343 387 LINE",
"343 722 LINE",
"273 688 LINE",
"273 335 LINE",
"207 283 LINE",
"207 224 LINE",
"273 276 LINE",
"273 0 LINE"
);
}
);
};
components = (
{
name = l;
}
);
hints = (
{
place = "{317, 70}";
},
{
horizontal = 1;
place = "{0, 21}";
target = up;
type = BottomGhost;
},
{
horizontal = 1;
place = "{722, -20}";
target = down;
type = TopGhost;
}
);
layerId = UUID0;
paths = (
{
closed = 1;
nodes = (
"197 205 LINE",
"418 377 LINE",
"418 436 LINE",
"197 264 LINE"
);
}
);
width = 616;
},
{
background = {
paths = (
{
closed = 1;
nodes = (
"372 0 LINE",
"372 308 LINE",
"429 351 LINE",
"429 480 LINE",
"372 437 LINE",
"372 722 LINE",
"242 661 LINE",
"242 338 LINE",
"187 296 LINE",
"187 167 LINE",
"242 209 LINE",
"242 0 LINE"
);
}
);
};
components = (
{
name = l;
}
);
layerId = "C8970C82-1F9F-492B-A412-6BE281DD1303";
paths = (
{
closed = 1;
nodes = (
"167 188 LINE",
"449 402 LINE",
"449 531 LINE",
"167 317 LINE"
);
}
);
width = 616;
}
);
unicode = 0142;
},
{
glyphname = scaron;
lastChange = "2016-11-16 16:27:00 +0000";
layers = (
{
background = {
paths = (
{
closed = 1;
nodes = (
"366 445 LINE",
"325 494 OFFCURVE",
"269 523 OFFCURVE",
"200 523 CURVE SMOOTH",
"104 523 OFFCURVE",
"35 471 OFFCURVE",
"35 393 CURVE SMOOTH",
"35 307 OFFCURVE",
"107 271 OFFCURVE",
"188 238 CURVE SMOOTH",
"250 213 OFFCURVE",
"315 186 OFFCURVE",
"315 124 CURVE SMOOTH",
"315 76 OFFCURVE",
"271 50 OFFCURVE",
"215 50 CURVE SMOOTH",
"162 50 OFFCURVE",
"113 83 OFFCURVE",
"82 120 CURVE",
"33 77 LINE",
"76 26 OFFCURVE",
"140 -12 OFFCURVE",
"209 -12 CURVE SMOOTH",
"315 -12 OFFCURVE",
"381 43 OFFCURVE",
"381 128 CURVE SMOOTH",
"381 231 OFFCURVE",
"294 266 OFFCURVE",
"218 296 CURVE SMOOTH",
"158 320 OFFCURVE",
"101 342 OFFCURVE",
"101 394 CURVE SMOOTH",
"101 435 OFFCURVE",
"139 461 OFFCURVE",
"198 461 CURVE SMOOTH",
"254 461 OFFCURVE",
"294 432 OFFCURVE",
"320 406 CURVE"
);
},
{
closed = 1;
nodes = (
"383 732 LINE",
"318 732 LINE",
"202 631 LINE",
"86 732 LINE",
"21 732 LINE",
"162 576 LINE",
"242 576 LINE"
);
}
);
};
components = (
{
name = s;
},
{
name = caroncomb;
}
);
layerId = UUID0;
width = 616;
},
{
components = (
{
name = s;
},
{
name = caroncomb;
}
);
layerId = "C8970C82-1F9F-492B-A412-6BE281DD1303";
width = 616;
}
);
unicode = 0161;
},
{
glyphname = Yacute;
lastChange = "2016-11-16 16:27:00 +0000";
layers = (
{
background = {
paths = (
{
closed = 1;
nodes = (
"344 0 LINE",
"344 278 LINE",
"571 700 LINE",
"499 700 LINE",
"308 340 LINE",
"122 700 LINE",
"45 700 LINE",
"274 275 LINE",
"274 0 LINE"
);
},
{
closed = 1;
nodes = (
"466 922 LINE",
"359 922 LINE",
"217 766 LINE",
"288 766 LINE"
);
}
);
};
components = (
{
name = Y;
},
{
name = acutecomb.case;
transform = "{1, 0, 0, 1, 25, 0}";
}
);
layerId = UUID0;
width = 616;
},
{
components = (
{
name = Y;
},
{
name = acutecomb.case;
}
);
layerId = "C8970C82-1F9F-492B-A412-6BE281DD1303";
width = 616;
}
);
unicode = 00DD;
},
{
glyphname = yacute;
lastChange = "2016-11-16 16:27:00 +0000";
layers = (
{
background = {
paths = (
{
closed = 1;
nodes = (
"145 -194 LINE",
"214 -194 LINE",
"475 511 LINE",
"400 511 LINE",
"251 99 LINE",
"105 511 LINE",
"34 511 LINE",
"221 16 LINE"
);
},
{
closed = 1;
nodes = (
"379 732 LINE",
"272 732 LINE",
"130 576 LINE",
"201 576 LINE"
);
}
);
};
components = (
{
name = y;
},
{
name = acute;
transform = "{1, 0, 0, 1, 30, 0}";
}
);
layerId = UUID0;
width = 616;
},
{
background = {
components = (
{
name = y;
},
{
name = acute;
transform = "{1, 0, 0, 1, 52, 0}";
}
);
};
components = (
{
name = y;
},
{
name = acute;
transform = "{1, 0, 0, 1, 10, 0}";
}
);
layerId = "C8970C82-1F9F-492B-A412-6BE281DD1303";
width = 616;
}
);
unicode = 00FD;
},
{
glyphname = Thorn;
lastChange = "2016-11-16 16:27:00 +0000";
layers = (
{
background = {
paths = (
{
closed = 1;
nodes = (
"139 0 LINE",
"139 150 LINE",
"325 150 LINE SMOOTH",
"487 150 OFFCURVE",
"546 262 OFFCURVE",
"546 355 CURVE SMOOTH",
"546 458 OFFCURVE",
"492 561 OFFCURVE",
"325 561 CURVE SMOOTH",
"139 561 LINE",
"139 700 LINE",
"69 700 LINE",
"69 0 LINE"
);
},
{
closed = 1;
nodes = (
"139 213 LINE",
"139 498 LINE",
"331 498 LINE SMOOTH",
"448 498 OFFCURVE",
"479 414 OFFCURVE",
"479 355 CURVE SMOOTH",
"479 288 OFFCURVE",
"441 213 OFFCURVE",
"331 213 CURVE SMOOTH"
);
}
);
};
hints = (
{
origin = "{0, 11}";
target = "{0, 10}";
},
{
origin = "{1, 5}";
target = "{0, 5}";
},
{
horizontal = 1;
origin = "{0, 1}";
target = "{1, 0}";
},
{
horizontal = 1;
origin = "{1, 1}";
target = "{0, 9}";
},
{
horizontal = 1;
origin = "{0, 0}";
target = up;
type = BottomGhost;
}
);
layerId = UUID0;
paths = (
{
closed = 1;
nodes = (
"176 0 LINE",
"176 150 LINE",
"307 150 LINE SMOOTH",
"469 150 OFFCURVE",
"528 262 OFFCURVE",
"528 355 CURVE SMOOTH",
"528 458 OFFCURVE",
"474 561 OFFCURVE",
"307 561 CURVE SMOOTH",
"176 561 LINE",
"176 700 LINE",
"106 700 LINE",
"106 0 LINE"
);
},
{
closed = 1;
nodes = (
"176 213 LINE",
"176 498 LINE",
"313 498 LINE SMOOTH",
"430 498 OFFCURVE",
"461 414 OFFCURVE",
"461 355 CURVE SMOOTH",
"461 288 OFFCURVE",
"423 213 OFFCURVE",
"313 213 CURVE SMOOTH"
);
}
);
width = 616;
},
{
background = {
paths = (
{
closed = 1;
nodes = (
"173 0 LINE",
"173 135 LINE",
"339 135 LINE SMOOTH",
"510 135 OFFCURVE",
"577 254 OFFCURVE",
"577 356 CURVE SMOOTH",
"577 465 OFFCURVE",
"516 577 OFFCURVE",
"339 577 CURVE SMOOTH",
"173 577 LINE",
"173 700 LINE",
"38 700 LINE",
"38 0 LINE"
);
},
{
closed = 1;
nodes = (
"173 263 LINE",
"173 449 LINE",
"344 449 LINE SMOOTH",
"416 449 OFFCURVE",
"437 396 OFFCURVE",
"437 356 CURVE SMOOTH",
"437 312 OFFCURVE",
"412 263 OFFCURVE",
"344 263 CURVE SMOOTH"
);
}
);
};
layerId = "C8970C82-1F9F-492B-A412-6BE281DD1303";
paths = (
{
closed = 1;
nodes = (
"201 0 LINE",
"201 135 LINE",
"329 135 LINE SMOOTH",
"500 135 OFFCURVE",
"567 254 OFFCURVE",
"567 356 CURVE SMOOTH",
"567 465 OFFCURVE",
"506 577 OFFCURVE",
"329 577 CURVE SMOOTH",
"201 577 LINE",
"201 700 LINE",
"66 700 LINE",
"66 0 LINE"
);
},
{
closed = 1;
nodes = (
"201 263 LINE",
"201 449 LINE",
"334 449 LINE SMOOTH",
"406 449 OFFCURVE",
"427 396 OFFCURVE",
"427 356 CURVE SMOOTH",
"427 312 OFFCURVE",
"402 263 OFFCURVE",
"334 263 CURVE SMOOTH"
);
}
);
width = 616;
}
);
unicode = 00DE;
},
{
glyphname = thorn;
lastChange = "2016-11-16 16:27:00 +0000";
layers = (
{
anchors = (
{
name = bottom;
position = "{308, 0}";
},
{
name = top;
position = "{308, 511}";
}
);
background = {
paths = (
{
closed = 1;
nodes = (
"444 -12 OFFCURVE",
"531 86 OFFCURVE",
"531 256 CURVE SMOOTH",
"531 417 OFFCURVE",
"451 523 OFFCURVE",
"320 523 CURVE SMOOTH",
"251 523 OFFCURVE",
"214 495 OFFCURVE",
"180 465 CURVE",
"180 712 LINE",
"110 678 LINE",
"110 -203 LINE",
"180 -168 LINE",
"180 52 LINE",
"209 18 OFFCURVE",
"248 -12 OFFCURVE",
"320 -12 CURVE SMOOTH"
);
},
{
closed = 1;
nodes = (
"243 51 OFFCURVE",
"202 85 OFFCURVE",
"167 130 CURVE",
"167 381 LINE",
"195 431 OFFCURVE",
"244 460 OFFCURVE",
"299 460 CURVE SMOOTH",
"389 460 OFFCURVE",
"445 380 OFFCURVE",
"445 256 CURVE SMOOTH",
"445 126 OFFCURVE",
"393 51 OFFCURVE",
"299 51 CURVE SMOOTH"
);
}
);
};
hints = (
{
place = "{489, 73}";
},
{
place = "{141, 0}";
},
{
horizontal = 1;
place = "{-12, 63}";
},
{
horizontal = 1;
place = "{460, 63}";
},
{
horizontal = 1;
place = "{-168, 21}";
target = up;
type = BottomGhost;
},
{
horizontal = 1;
place = "{678, -20}";
target = down;
type = TopGhost;
},
{
origin = "{1, 10}";
target = "{0, 8}";
},
{
origin = "{0, 16}";
target = "{0, 15}";
},
{
horizontal = 1;
origin = "{0, 5}";
target = "{1, 0}";
},
{
horizontal = 1;
origin = "{0, 15}";
target = down;
type = TopGhost;
},
{
horizontal = 1;
origin = "{1, 7}";
target = "{0, 11}";
},
{
horizontal = 1;
origin = "{0, 0}";
target = up;
type = BottomGhost;
}
);
layerId = UUID0;
paths = (
{
closed = 1;
nodes = (
"182 -174 LINE",
"182 54 LINE",
"212 19 OFFCURVE",
"253 -12 OFFCURVE",
"327 -12 CURVE SMOOTH",
"454 -12 OFFCURVE",
"545 88 OFFCURVE",
"545 265 CURVE SMOOTH",
"545 431 OFFCURVE",
"462 540 OFFCURVE",
"327 540 CURVE SMOOTH",
"256 540 OFFCURVE",
"216 511 OFFCURVE",
"182 480 CURVE",
"182 713 LINE",
"110 678 LINE",
"110 -210 LINE"
);
},
{
closed = 1;
nodes = (
"262 53 OFFCURVE",
"218 88 OFFCURVE",
"182 134 CURVE",
"182 394 LINE",
"211 445 OFFCURVE",
"262 475 OFFCURVE",
"319 475 CURVE SMOOTH",
"413 475 OFFCURVE",
"470 393 OFFCURVE",
"470 265 CURVE SMOOTH",
"470 128 OFFCURVE",
"415 53 OFFCURVE",
"319 53 CURVE SMOOTH"
);
}
);
width = 616;
},
{
anchors = (
{
name = bottom;
position = "{293, 0}";
},
{
name = top;
position = "{293, 511}";
}
);
background = {
paths = (
{
closed = 1;
nodes = (
"444 -12 OFFCURVE",
"533 87 OFFCURVE",
"533 255 CURVE SMOOTH",
"533 428 OFFCURVE",
"449 523 OFFCURVE",
"322 523 CURVE SMOOTH",
"270 523 OFFCURVE",
"235 503 OFFCURVE",
"212 474 CURVE",
"212 712 LINE",
"82 650 LINE",
"82 -197 LINE",
"212 -136 LINE",
"212 37 LINE",
"235 8 OFFCURVE",
"270 -12 OFFCURVE",
"321 -12 CURVE SMOOTH"
);
},
{
closed = 1;
nodes = (
"256 113 OFFCURVE",
"225 134 OFFCURVE",
"212 155 CURVE",
"212 357 LINE",
"231 382 OFFCURVE",
"258 398 OFFCURVE",
"301 398 CURVE SMOOTH",
"368 398 OFFCURVE",
"403 341 OFFCURVE",
"403 255 CURVE SMOOTH",
"403 164 OFFCURVE",
"366 113 OFFCURVE",
"301 113 CURVE SMOOTH"
);
}
);
};
layerId = "C8970C82-1F9F-492B-A412-6BE281DD1303";
paths = (
{
closed = 1;
nodes = (
"210 -141 LINE",
"210 37 LINE",
"235 8 OFFCURVE",
"273 -12 OFFCURVE",
"329 -12 CURVE SMOOTH",
"458 -12 OFFCURVE",
"554 87 OFFCURVE",
"554 255 CURVE SMOOTH",
"554 428 OFFCURVE",
"464 523 OFFCURVE",
"330 523 CURVE SMOOTH",
"274 523 OFFCURVE",
"235 503 OFFCURVE",
"210 474 CURVE",
"210 712 LINE",
"80 650 LINE",
"80 -200 LINE"
);
},
{
closed = 1;
nodes = (
"259 113 OFFCURVE",
"224 134 OFFCURVE",
"210 155 CURVE",
"210 357 LINE",
"231 382 OFFCURVE",
"261 398 OFFCURVE",
"309 398 CURVE SMOOTH",
"385 398 OFFCURVE",
"424 341 OFFCURVE",
"424 255 CURVE SMOOTH",
"424 164 OFFCURVE",
"382 113 OFFCURVE",
"309 113 CURVE SMOOTH"
);
}
);
width = 616;
}
);
unicode = 00FE;
},
{
glyphname = Zcaron;
lastChange = "2016-11-16 16:27:00 +0000";
layers = (
{
background = {
paths = (
{
closed = 1;
nodes = (
"547 0 LINE",
"547 66 LINE",
"144 66 LINE",
"547 649 LINE",
"547 700 LINE",
"73 700 LINE",
"73 634 LINE",
"458 634 LINE",
"50 49 LINE",
"50 0 LINE"
);
},
{
closed = 1;
nodes = (
"515 922 LINE",
"450 922 LINE",
"334 821 LINE",
"218 922 LINE",
"153 922 LINE",
"294 766 LINE",
"374 766 LINE"
);
}
);
};
components = (
{
name = Z;
},
{
name = caroncomb;
transform = "{1, 0, 0, 1, 15, 190}";
}
);
layerId = UUID0;
width = 616;
},
{
background = {
paths = (
{
closed = 1;
nodes = (
"580 0 LINE",
"580 128 LINE",
"211 128 LINE",
"580 597 LINE",
"580 700 LINE",
"57 700 LINE",
"57 572 LINE",
"401 572 LINE",
"35 103 LINE",
"35 0 LINE"
);
},
{
closed = 1;
nodes = (
"521 922 LINE",
"401 922 LINE",
"317 853 LINE",
"233 922 LINE",
"113 922 LINE",
"254 766 LINE",
"379 766 LINE"
);
}
);
};
components = (
{
name = Z;
},
{
name = caroncomb;
transform = "{1, 0, 0, 1, 5, 190}";
}
);
layerId = "C8970C82-1F9F-492B-A412-6BE281DD1303";
width = 616;
}
);
unicode = 017D;
},
{
glyphname = zcaron;
lastChange = "2016-11-16 16:27:00 +0000";
layers = (
{
background = {
paths = (
{
closed = 1;
nodes = (
"401 0 LINE",
"401 63 LINE",
"139 63 LINE",
"402 469 LINE",
"402 511 LINE",
"68 511 LINE",
"68 448 LINE",
"309 448 LINE",
"48 43 LINE",
"48 0 LINE"
);
},
{
closed = 1;
nodes = (
"404 732 LINE",
"339 732 LINE",
"223 631 LINE",
"107 732 LINE",
"42 732 LINE",
"183 576 LINE",
"263 576 LINE"
);
}
);
};
components = (
{
name = z;
transform = "{1, 0, 0, 1, -20, 0}";
},
{
name = caroncomb;
transform = "{1, 0, 0, 1, -17, 0}";
}
);
layerId = UUID0;
width = 616;
},
{
background = {
paths = (
{
closed = 1;
nodes = (
"521 0 LINE",
"521 116 LINE",
"259 116 LINE",
"522 412 LINE",
"522 511 LINE",
"112 511 LINE",
"112 395 LINE",
"357 395 LINE",
"93 102 LINE",
"93 0 LINE"
);
},
{
closed = 1;
nodes = (
"522 732 LINE",
"402 732 LINE",
"318 663 LINE",
"234 732 LINE",
"114 732 LINE",
"255 576 LINE",
"380 576 LINE"
);
}
);
};
components = (
{
name = z;
},
{
name = caroncomb;
transform = "{1, 0, 0, 1, 5, 0}";
}
);
layerId = "C8970C82-1F9F-492B-A412-6BE281DD1303";
width = 616;
}
);
unicode = 017E;
},
{
glyphname = onehalf;
lastChange = "2016-11-16 16:27:00 +0000";
layers = (
{
background = {
paths = (
{
closed = 1;
nodes = (
"39 -12 LINE",
"517 712 LINE",
"448 712 LINE",
"-30 -12 LINE"
);
},
{
closed = 1;
nodes = (
"99 283 LINE",
"99 705 LINE",
"57 705 LINE",
"47 672 OFFCURVE",
"28 650 OFFCURVE",
"-9 650 CURVE",
"-9 607 LINE",
"38 607 LINE",
"38 283 LINE"
);
},
{
closed = 1;
nodes = (
"401 308 LINE",
"411 355 OFFCURVE",
"438 379 OFFCURVE",
"485 379 CURVE SMOOTH",
"543 379 OFFCURVE",
"564 338 OFFCURVE",
"564 310 CURVE SMOOTH",
"564 258 OFFCURVE",
"538 232 OFFCURVE",
"496 204 CURVE SMOOTH",
"409 145 OFFCURVE",
"349 107 OFFCURVE",
"349 0 CURVE",
"625 0 LINE",
"625 55 LINE",
"414 55 LINE",
"428 91 OFFCURVE",
"457 114 OFFCURVE",
"509 146 CURVE SMOOTH",
"588 194 OFFCURVE",
"626 233 OFFCURVE",
"626 305 CURVE SMOOTH",
"626 382 OFFCURVE",
"569 429 OFFCURVE",
"493 429 CURVE SMOOTH",
"412 429 OFFCURVE",
"364 386 OFFCURVE",
"350 329 CURVE"
);
}
);
};
components = (
{
name = two.dnom;
},
{
name = one.numr;
}
);
hints = (
{
horizontal = 1;
place = "{712, -20}";
target = down;
type = TopGhost;
},
{
horizontal = 1;
place = "{-12, 21}";
target = up;
type = BottomGhost;
},
{
place = "{264, 61}";
},
{
horizontal = 1;
place = "{432, 21}";
target = up;
type = BottomGhost;
},
{
horizontal = 1;
place = "{704, -20}";
target = down;
type = TopGhost;
},
{
place = "{325, -108}";
},
{
horizontal = 1;
place = "{226, 0}";
},
{
horizontal = 1;
place = "{55, 129}";
}
);
layerId = UUID0;
paths = (
{
closed = 1;
nodes = (
"571 326 LINE",
"571 382 LINE",
"45 382 LINE",
"45 326 LINE"
);
}
);
width = 616;
},
{
background = {
paths = (
{
closed = 1;
nodes = (
"81 -12 LINE",
"559 712 LINE",
"434 712 LINE",
"-44 -12 LINE"
);
},
{
closed = 1;
nodes = (
"113 283 LINE",
"113 705 LINE",
"26 705 LINE",
"15 686 OFFCURVE",
"-3 676 OFFCURVE",
"-48 676 CURVE",
"-48 593 LINE",
"3 593 LINE",
"3 283 LINE"
);
},
{
closed = 1;
nodes = (
"662 0 LINE",
"662 102 LINE",
"485 102 LINE",
"496 125 OFFCURVE",
"520 142 OFFCURVE",
"553 161 CURVE",
"613 192 OFFCURVE",
"663 220 OFFCURVE",
"663 299 CURVE SMOOTH",
"663 375 OFFCURVE",
"604 429 OFFCURVE",
"516 429 CURVE SMOOTH",
"435 429 OFFCURVE",
"377 379 OFFCURVE",
"356 304 CURVE",
"455 280 LINE",
"464 311 OFFCURVE",
"480 329 OFFCURVE",
"511 329 CURVE SMOOTH",
"536 329 OFFCURVE",
"549 314 OFFCURVE",
"549 295 CURVE SMOOTH",
"549 273 OFFCURVE",
"526 260 OFFCURVE",
"502 247 CURVE SMOOTH",
"418 204 OFFCURVE",
"355 130 OFFCURVE",
"355 0 CURVE"
);
}
);
};
components = (
{
name = two.dnom;
},
{
name = one.numr;
}
);
layerId = "C8970C82-1F9F-492B-A412-6BE281DD1303";
paths = (
{
closed = 1;
nodes = (
"581 306 LINE",
"581 402 LINE",
"35 402 LINE",
"35 306 LINE"
);
}
);
width = 616;
},
{
associatedMasterId = UUID0;
background = {
paths = (
{
closed = 1;
nodes = (
"39 -12 LINE",
"517 712 LINE",
"448 712 LINE",
"-30 -12 LINE"
);
},
{
closed = 1;
nodes = (
"99 283 LINE",
"99 705 LINE",
"57 705 LINE",
"47 672 OFFCURVE",
"28 650 OFFCURVE",
"-9 650 CURVE",
"-9 607 LINE",
"38 607 LINE",
"38 283 LINE"
);
},
{
closed = 1;
nodes = (
"401 308 LINE",
"411 355 OFFCURVE",
"438 379 OFFCURVE",
"485 379 CURVE SMOOTH",
"543 379 OFFCURVE",
"564 338 OFFCURVE",
"564 310 CURVE SMOOTH",
"564 258 OFFCURVE",
"538 232 OFFCURVE",
"496 204 CURVE SMOOTH",
"409 145 OFFCURVE",
"349 107 OFFCURVE",
"349 0 CURVE",
"625 0 LINE",
"625 55 LINE",
"414 55 LINE",
"428 91 OFFCURVE",
"457 114 OFFCURVE",
"509 146 CURVE SMOOTH",
"588 194 OFFCURVE",
"626 233 OFFCURVE",
"626 305 CURVE SMOOTH",
"626 382 OFFCURVE",
"569 429 OFFCURVE",
"493 429 CURVE SMOOTH",
"412 429 OFFCURVE",
"364 386 OFFCURVE",
"350 329 CURVE"
);
}
);
};
components = (
{
name = fraction;
transform = "{1, 0, 0, 1, -64, 0}";
},
{
name = one.numr;
transform = "{1, 0, 0, 1, -263, 0}";
},
{
name = two.dnom;
transform = "{1, 0, 0, 1, 180, 0}";
}
);
layerId = "2C0DA219-A734-4657-9893-05577603EDF1";
name = "Regular Feb 8 16, 10:16";
width = 616;
},
{
associatedMasterId = UUID0;
background = {
paths = (
{
closed = 1;
nodes = (
"39 -12 LINE",
"517 712 LINE",
"448 712 LINE",
"-30 -12 LINE"
);
},
{
closed = 1;
nodes = (
"99 283 LINE",
"99 705 LINE",
"57 705 LINE",
"47 672 OFFCURVE",
"28 650 OFFCURVE",
"-9 650 CURVE",
"-9 607 LINE",
"38 607 LINE",
"38 283 LINE"
);
},
{
closed = 1;
nodes = (
"401 308 LINE",
"411 355 OFFCURVE",
"438 379 OFFCURVE",
"485 379 CURVE SMOOTH",
"543 379 OFFCURVE",
"564 338 OFFCURVE",
"564 310 CURVE SMOOTH",
"564 258 OFFCURVE",
"538 232 OFFCURVE",
"496 204 CURVE SMOOTH",
"409 145 OFFCURVE",
"349 107 OFFCURVE",
"349 0 CURVE",
"625 0 LINE",
"625 55 LINE",
"414 55 LINE",
"428 91 OFFCURVE",
"457 114 OFFCURVE",
"509 146 CURVE SMOOTH",
"588 194 OFFCURVE",
"626 233 OFFCURVE",
"626 305 CURVE SMOOTH",
"626 382 OFFCURVE",
"569 429 OFFCURVE",
"493 429 CURVE SMOOTH",
"412 429 OFFCURVE",
"364 386 OFFCURVE",
"350 329 CURVE"
);
}
);
};
components = (
{
name = fraction;
transform = "{1, 0, 0, 1, -28, 0}";
},
{
name = one.numr;
transform = "{1, 0, 0, 1, -177, 100}";
},
{
name = two.dnom;
transform = "{1, 0, 0, 1, 130, -100}";
}
);
layerId = "C92F024E-AD02-484F-8F61-CD4228B653CF";
name = "Regular Feb 8 16, 10:17";
width = 616;
},
{
associatedMasterId = UUID0;
background = {
paths = (
{
closed = 1;
nodes = (
"39 -12 LINE",
"517 712 LINE",
"448 712 LINE",
"-30 -12 LINE"
);
},
{
closed = 1;
nodes = (
"99 283 LINE",
"99 705 LINE",
"57 705 LINE",
"47 672 OFFCURVE",
"28 650 OFFCURVE",
"-9 650 CURVE",
"-9 607 LINE",
"38 607 LINE",
"38 283 LINE"
);
},
{
closed = 1;
nodes = (
"401 308 LINE",
"411 355 OFFCURVE",
"438 379 OFFCURVE",
"485 379 CURVE SMOOTH",
"543 379 OFFCURVE",
"564 338 OFFCURVE",
"564 310 CURVE SMOOTH",
"564 258 OFFCURVE",
"538 232 OFFCURVE",
"496 204 CURVE SMOOTH",
"409 145 OFFCURVE",
"349 107 OFFCURVE",
"349 0 CURVE",
"625 0 LINE",
"625 55 LINE",
"414 55 LINE",
"428 91 OFFCURVE",
"457 114 OFFCURVE",
"509 146 CURVE SMOOTH",
"588 194 OFFCURVE",
"626 233 OFFCURVE",
"626 305 CURVE SMOOTH",
"626 382 OFFCURVE",
"569 429 OFFCURVE",
"493 429 CURVE SMOOTH",
"412 429 OFFCURVE",
"364 386 OFFCURVE",
"350 329 CURVE"
);
}
);
};
hints = (
{
horizontal = 1;
origin = "{0, 1}";
target = down;
type = TopGhost;
},
{
horizontal = 1;
origin = "{0, 0}";
target = up;
type = BottomGhost;
},
{
origin = "{1, 7}";
target = "{1, 1}";
},
{
horizontal = 1;
origin = "{1, 0}";
target = up;
type = BottomGhost;
},
{
horizontal = 1;
origin = "{1, 1}";
target = down;
type = TopGhost;
},
{
origin = "{2, 6}";
target = "{2, 21}";
},
{
horizontal = 1;
origin = "{2, 3}";
target = "{2, 2}";
},
{
horizontal = 1;
origin = "{2, 12}";
target = "{2, 15}";
}
);
layerId = "EEFE1AEB-E3AB-4A86-9CE4-80C9E47E11B7";
name = "Regular Feb 8 16, 10:24";
paths = (
{
closed = 1;
nodes = (
"28 341 LINE",
"588 341 LINE",
"588 398 LINE",
"28 398 LINE"
);
},
{
closed = 1;
nodes = (
"325 453 LINE",
"325 805 LINE",
"283 805 LINE",
"273 772 OFFCURVE",
"254 750 OFFCURVE",
"217 750 CURVE",
"217 707 LINE",
"264 707 LINE",
"264 453 LINE"
);
},
{
closed = 1;
nodes = (
"211 172 LINE",
"221 219 OFFCURVE",
"248 243 OFFCURVE",
"295 243 CURVE SMOOTH",
"353 243 OFFCURVE",
"374 202 OFFCURVE",
"374 174 CURVE SMOOTH",
"374 78 OFFCURVE",
"159 129 OFFCURVE",
"159 -65 CURVE",
"435 -65 LINE",
"435 -10 LINE",
"229 -10 LINE",
"243 62 OFFCURVE",
"436 45 OFFCURVE",
"436 169 CURVE SMOOTH",
"436 246 OFFCURVE",
"379 293 OFFCURVE",
"303 293 CURVE SMOOTH",
"222 293 OFFCURVE",
"174 250 OFFCURVE",
"160 193 CURVE"
);
}
);
width = 616;
}
);
unicode = 00BD;
},
{
glyphname = onequarter;
lastChange = "2016-11-16 16:27:00 +0000";
layers = (
{
background = {
paths = (
{
closed = 1;
nodes = (
"39 -12 LINE",
"517 712 LINE",
"448 712 LINE",
"-30 -12 LINE"
);
},
{
closed = 1;
nodes = (
"99 283 LINE",
"99 705 LINE",
"57 705 LINE",
"47 672 OFFCURVE",
"28 650 OFFCURVE",
"-9 650 CURVE",
"-9 607 LINE",
"38 607 LINE",
"38 283 LINE"
);
},
{
closed = 1;
nodes = (
"539 0 LINE",
"539 108 LINE",
"591 108 LINE",
"591 163 LINE",
"539 163 LINE",
"539 423 LINE",
"492 423 LINE",
"268 138 LINE",
"268 108 LINE",
"478 108 LINE",
"478 0 LINE"
);
},
{
closed = 1;
nodes = (
"349 163 LINE",
"478 335 LINE",
"478 163 LINE"
);
}
);
};
components = (
{
name = one.numr;
},
{
name = four.dnom;
}
);
hints = (
{
horizontal = 1;
place = "{704, -20}";
target = down;
type = TopGhost;
},
{
horizontal = 1;
place = "{-12, 21}";
target = up;
type = BottomGhost;
},
{
place = "{21, 61}";
},
{
horizontal = 1;
place = "{283, 21}";
target = up;
type = BottomGhost;
},
{
horizontal = 1;
place = "{705, -20}";
target = down;
type = TopGhost;
},
{
place = "{341, 0}";
},
{
horizontal = 1;
place = "{108, 55}";
},
{
horizontal = 1;
place = "{423, -20}";
target = down;
type = TopGhost;
},
{
horizontal = 1;
place = "{0, 21}";
target = up;
type = BottomGhost;
},
{
horizontal = 1;
place = "{328, -20}";
target = down;
type = TopGhost;
},
{
horizontal = 1;
place = "{328, 21}";
target = up;
type = BottomGhost;
},
{
place = "{240, 95}";
},
{
horizontal = 1;
place = "{432, 21}";
target = up;
type = BottomGhost;
},
{
horizontal = 1;
place = "{704, -20}";
target = down;
type = TopGhost;
},
{
place = "{240, 0}";
},
{
horizontal = 1;
place = "{379, 50}";
},
{
horizontal = 1;
place = "{108, 55}";
}
);
layerId = UUID0;
paths = (
{
closed = 1;
nodes = (
"571 326 LINE",
"571 382 LINE",
"45 382 LINE",
"45 326 LINE"
);
}
);
width = 616;
},
{
background = {
paths = (
{
closed = 1;
nodes = (
"94 -12 LINE",
"572 712 LINE",
"447 712 LINE",
"-31 -12 LINE"
);
},
{
closed = 1;
nodes = (
"126 283 LINE",
"126 705 LINE",
"39 705 LINE",
"28 686 OFFCURVE",
"10 676 OFFCURVE",
"-35 676 CURVE",
"-35 593 LINE",
"16 593 LINE",
"16 283 LINE"
);
},
{
closed = 1;
nodes = (
"595 0 LINE",
"595 80 LINE",
"651 80 LINE",
"651 172 LINE",
"595 172 LINE",
"595 422 LINE",
"495 422 LINE",
"288 152 LINE",
"288 80 LINE",
"493 80 LINE",
"493 0 LINE"
);
},
{
closed = 1;
nodes = (
"405 172 LINE",
"493 288 LINE",
"493 172 LINE"
);
}
);
};
components = (
{
name = one.numr;
},
{
name = four.dnom;
}
);
layerId = "C8970C82-1F9F-492B-A412-6BE281DD1303";
paths = (
{
closed = 1;
nodes = (
"581 306 LINE",
"581 402 LINE",
"35 402 LINE",
"35 306 LINE"
);
}
);
width = 616;
}
);
unicode = 00BC;
},
{
glyphname = onesuperior;
lastChange = "2016-11-16 16:27:00 +0000";
layers = (
{
background = {
paths = (
{
closed = 1;
nodes = (
"361 444 LINE",
"361 866 LINE",
"320 866 LINE",
"310 833 OFFCURVE",
"291 811 OFFCURVE",
"254 811 CURVE",
"254 768 LINE",
"301 768 LINE",
"301 444 LINE"
);
}
);
};
components = (
{
name = one.numr;
transform = "{1, 0, 0, 1, 0, 162}";
}
);
hints = (
{
place = "{301, 60}";
},
{
horizontal = 1;
place = "{444, 21}";
target = up;
type = BottomGhost;
},
{
horizontal = 1;
place = "{866, -20}";
target = down;
type = TopGhost;
}
);
layerId = UUID0;
width = 616;
},
{
background = {
paths = (
{
closed = 1;
nodes = (
"388 444 LINE",
"388 866 LINE",
"301 866 LINE",
"291 848 OFFCURVE",
"271 837 OFFCURVE",
"227 837 CURVE",
"227 754 LINE",
"278 754 LINE",
"278 444 LINE"
);
}
);
};
components = (
{
name = one.numr;
transform = "{1, 0, 0, 1, 0, 173}";
}
);
layerId = "C8970C82-1F9F-492B-A412-6BE281DD1303";
width = 616;
}
);
unicode = 00B9;
},
{
glyphname = threequarters;
lastChange = "2016-11-16 16:27:00 +0000";
layers = (
{
background = {
paths = (
{
closed = 1;
nodes = (
"182 -12 LINE",
"660 712 LINE",
"591 712 LINE",
"113 -12 LINE"
);
},
{
closed = 1;
nodes = (
"-10 374 LINE",
"15 313 OFFCURVE",
"66 271 OFFCURVE",
"142 271 CURVE SMOOTH",
"226 271 OFFCURVE",
"285 320 OFFCURVE",
"285 403 CURVE SMOOTH",
"285 456 OFFCURVE",
"254 493 OFFCURVE",
"211 507 CURVE",
"247 523 OFFCURVE",
"268 563 OFFCURVE",
"268 599 CURVE SMOOTH",
"268 670 OFFCURVE",
"214 712 OFFCURVE",
"140 712 CURVE SMOOTH",
"74 712 OFFCURVE",
"20 670 OFFCURVE",
"-2 616 CURVE",
"51 598 LINE",
"67 634 OFFCURVE",
"98 662 OFFCURVE",
"136 662 CURVE SMOOTH",
"182 662 OFFCURVE",
"204 628 OFFCURVE",
"204 593 CURVE SMOOTH",
"204 557 OFFCURVE",
"186 523 OFFCURVE",
"139 523 CURVE SMOOTH",
"117 523 LINE",
"117 473 LINE",
"151 473 LINE SMOOTH",
"195 473 OFFCURVE",
"221 433 OFFCURVE",
"221 395 CURVE SMOOTH",
"221 352 OFFCURVE",
"193 321 OFFCURVE",
"142 321 CURVE SMOOTH",
"97 321 OFFCURVE",
"65 349 OFFCURVE",
"45 397 CURVE"
);
},
{
closed = 1;
nodes = (
"682 0 LINE",
"682 108 LINE",
"734 108 LINE",
"734 163 LINE",
"682 163 LINE",
"682 423 LINE",
"635 423 LINE",
"411 138 LINE",
"411 108 LINE",
"621 108 LINE",
"621 0 LINE"
);
},
{
closed = 1;
nodes = (
"492 163 LINE",
"621 335 LINE",
"621 163 LINE"
);
}
);
};
components = (
{
name = four.dnom;
},
{
name = three.numr;
}
);
hints = (
{
horizontal = 1;
place = "{712, -20}";
target = down;
type = TopGhost;
},
{
horizontal = 1;
place = "{-12, 21}";
target = up;
type = BottomGhost;
},
{
place = "{367, 63}";
},
{
place = "{383, 64}";
},
{
horizontal = 1;
origin = "{0, 2}";
},
{
horizontal = 1;
place = "{546, 50}";
},
{
horizontal = 1;
place = "{660, 50}";
},
{
place = "{523, 61}";
},
{
horizontal = 1;
place = "{108, 55}";
},
{
horizontal = 1;
place = "{423, -20}";
target = down;
type = TopGhost;
},
{
horizontal = 1;
place = "{0, 21}";
target = up;
type = BottomGhost;
}
);
layerId = UUID0;
paths = (
{
closed = 1;
nodes = (
"571 326 LINE",
"571 382 LINE",
"45 382 LINE",
"45 326 LINE"
);
}
);
width = 616;
},
{
background = {
paths = (
{
closed = 1;
nodes = (
"163 276 OFFCURVE",
"217 330 OFFCURVE",
"217 406 CURVE SMOOTH",
"217 454 OFFCURVE",
"191 487 OFFCURVE",
"150 502 CURVE",
"178 517 OFFCURVE",
"203 550 OFFCURVE",
"203 592 CURVE SMOOTH",
"203 655 OFFCURVE",
"153 712 OFFCURVE",
"69 712 CURVE SMOOTH",
"1 712 OFFCURVE",
"-54 675 OFFCURVE",
"-79 612 CURVE",
"13 578 LINE",
"22 601 OFFCURVE",
"35 614 OFFCURVE",
"60 614 CURVE SMOOTH",
"83 614 OFFCURVE",
"95 599 OFFCURVE",
"95 580 CURVE SMOOTH",
"95 561 OFFCURVE",
"85 546 OFFCURVE",
"54 546 CURVE SMOOTH",
"17 546 LINE",
"17 454 LINE",
"55 454 LINE SMOOTH",
"94 454 OFFCURVE",
"109 438 OFFCURVE",
"109 414 CURVE SMOOTH",
"109 391 OFFCURVE",
"93 374 OFFCURVE",
"66 374 CURVE SMOOTH",
"38 374 OFFCURVE",
"17 389 OFFCURVE",
"8 425 CURVE",
"-93 399 LINE",
"-69 322 OFFCURVE",
"-14 276 OFFCURVE",
"65 276 CURVE SMOOTH"
);
},
{
closed = 1;
nodes = (
"151 -12 LINE",
"629 712 LINE",
"504 712 LINE",
"26 -12 LINE"
);
},
{
closed = 1;
nodes = (
"652 0 LINE",
"652 80 LINE",
"708 80 LINE",
"708 172 LINE",
"652 172 LINE",
"652 422 LINE",
"552 422 LINE",
"345 152 LINE",
"345 80 LINE",
"550 80 LINE",
"550 0 LINE"
);
},
{
closed = 1;
nodes = (
"550 288 LINE",
"550 172 LINE",
"462 172 LINE"
);
}
);
};
components = (
{
name = four.dnom;
},
{
name = three.numr;
}
);
layerId = "C8970C82-1F9F-492B-A412-6BE281DD1303";
paths = (
{
closed = 1;
nodes = (
"581 306 LINE",
"581 402 LINE",
"35 402 LINE",
"35 306 LINE"
);
}
);
width = 616;
}
);
unicode = 00BE;
},
{
glyphname = threesuperior;
lastChange = "2016-11-16 16:27:00 +0000";
layers = (
{
background = {
paths = (
{
closed = 1;
nodes = (
"160 537 LINE",
"185 476 OFFCURVE",
"236 434 OFFCURVE",
"312 434 CURVE SMOOTH",
"396 434 OFFCURVE",
"455 482 OFFCURVE",
"455 565 CURVE SMOOTH",
"455 618 OFFCURVE",
"424 654 OFFCURVE",
"381 668 CURVE",
"417 684 OFFCURVE",
"438 724 OFFCURVE",
"438 760 CURVE SMOOTH",
"438 831 OFFCURVE",
"384 873 OFFCURVE",
"310 873 CURVE SMOOTH",
"244 873 OFFCURVE",
"190 831 OFFCURVE",
"168 777 CURVE",
"221 759 LINE",
"237 795 OFFCURVE",
"268 823 OFFCURVE",
"306 823 CURVE SMOOTH",
"352 823 OFFCURVE",
"374 789 OFFCURVE",
"374 754 CURVE SMOOTH",
"374 718 OFFCURVE",
"356 684 OFFCURVE",
"309 684 CURVE SMOOTH",
"287 684 LINE",
"287 634 LINE",
"321 634 LINE SMOOTH",
"365 634 OFFCURVE",
"391 595 OFFCURVE",
"391 557 CURVE SMOOTH",
"391 514 OFFCURVE",
"363 484 OFFCURVE",
"312 484 CURVE SMOOTH",
"267 484 OFFCURVE",
"235 512 OFFCURVE",
"215 560 CURVE"
);
}
);
};
components = (
{
name = three.dnom;
transform = "{1, 0, 0, 1, 0, 595}";
}
);
hints = (
{
place = "{374, 64}";
},
{
place = "{391, 64}";
},
{
horizontal = 1;
place = "{434, 50}";
},
{
horizontal = 1;
place = "{634, 50}";
},
{
horizontal = 1;
place = "{823, 50}";
}
);
layerId = UUID0;
width = 616;
},
{
background = {
paths = (
{
closed = 1;
nodes = (
"409 437 OFFCURVE",
"463 492 OFFCURVE",
"463 567 CURVE SMOOTH",
"463 616 OFFCURVE",
"437 648 OFFCURVE",
"396 663 CURVE",
"425 679 OFFCURVE",
"449 712 OFFCURVE",
"449 753 CURVE SMOOTH",
"449 817 OFFCURVE",
"399 873 OFFCURVE",
"315 873 CURVE SMOOTH",
"247 873 OFFCURVE",
"192 836 OFFCURVE",
"167 773 CURVE",
"259 739 LINE",
"268 762 OFFCURVE",
"281 775 OFFCURVE",
"306 775 CURVE SMOOTH",
"329 775 OFFCURVE",
"341 760 OFFCURVE",
"341 741 CURVE SMOOTH",
"341 724 OFFCURVE",
"331 707 OFFCURVE",
"300 707 CURVE SMOOTH",
"263 707 LINE",
"263 615 LINE",
"301 615 LINE SMOOTH",
"340 615 OFFCURVE",
"355 599 OFFCURVE",
"355 575 CURVE SMOOTH",
"355 552 OFFCURVE",
"339 535 OFFCURVE",
"312 535 CURVE SMOOTH",
"284 535 OFFCURVE",
"263 551 OFFCURVE",
"254 586 CURVE",
"153 560 LINE",
"177 483 OFFCURVE",
"232 437 OFFCURVE",
"311 437 CURVE SMOOTH"
);
}
);
};
components = (
{
name = three.dnom;
transform = "{1, 0, 0, 1, 0, 606}";
}
);
layerId = "C8970C82-1F9F-492B-A412-6BE281DD1303";
width = 616;
}
);
unicode = 00B3;
},
{
glyphname = twosuperior;
lastChange = "2016-11-16 16:27:00 +0000";
layers = (
{
background = {
paths = (
{
closed = 1;
nodes = (
"221 752 LINE",
"231 799 OFFCURVE",
"258 822 OFFCURVE",
"305 822 CURVE SMOOTH",
"363 822 OFFCURVE",
"384 782 OFFCURVE",
"384 754 CURVE SMOOTH",
"384 702 OFFCURVE",
"358 676 OFFCURVE",
"316 648 CURVE SMOOTH",
"229 589 OFFCURVE",
"169 551 OFFCURVE",
"169 444 CURVE",
"445 444 LINE",
"445 497 LINE",
"234 497 LINE",
"248 533 OFFCURVE",
"277 558 OFFCURVE",
"329 590 CURVE SMOOTH",
"408 638 OFFCURVE",
"446 677 OFFCURVE",
"446 749 CURVE SMOOTH",
"446 826 OFFCURVE",
"389 873 OFFCURVE",
"313 873 CURVE SMOOTH",
"232 873 OFFCURVE",
"184 830 OFFCURVE",
"170 773 CURVE"
);
}
);
};
components = (
{
name = two.numr;
transform = "{1, 0, 0, 1, 0, 163}";
}
);
hints = (
{
place = "{384, 62}";
},
{
horizontal = 1;
place = "{444, 53}";
},
{
horizontal = 1;
place = "{822, 51}";
}
);
layerId = UUID0;
width = 616;
},
{
background = {
paths = (
{
closed = 1;
nodes = (
"461 444 LINE",
"461 546 LINE",
"284 546 LINE",
"295 567 OFFCURVE",
"319 586 OFFCURVE",
"352 605 CURVE",
"413 637 OFFCURVE",
"462 664 OFFCURVE",
"462 743 CURVE SMOOTH",
"462 820 OFFCURVE",
"403 873 OFFCURVE",
"315 873 CURVE SMOOTH",
"234 873 OFFCURVE",
"176 822 OFFCURVE",
"155 748 CURVE",
"254 724 LINE",
"263 756 OFFCURVE",
"279 773 OFFCURVE",
"310 773 CURVE SMOOTH",
"335 773 OFFCURVE",
"348 758 OFFCURVE",
"348 739 CURVE SMOOTH",
"348 716 OFFCURVE",
"325 704 OFFCURVE",
"301 691 CURVE SMOOTH",
"217 648 OFFCURVE",
"154 574 OFFCURVE",
"154 444 CURVE"
);
}
);
};
components = (
{
name = two.numr;
transform = "{1, 0, 0, 1, 0, 173}";
}
);
layerId = "C8970C82-1F9F-492B-A412-6BE281DD1303";
width = 616;
}
);
unicode = 00B2;
},
{
glyphname = brokenbar;
lastChange = "2016-12-02 21:53:55 +0000";
layers = (
{
background = {
paths = (
{
closed = 1;
nodes = (
"343 393 LINE",
"343 720 LINE",
"273 720 LINE",
"273 393 LINE"
);
},
{
closed = 1;
nodes = (
"343 -120 LINE",
"343 205 LINE",
"273 205 LINE",
"273 -120 LINE"
);
},
{
closed = 1;
nodes = (
"326 366 LINE",
"326 825 LINE",
"290 825 LINE",
"290 366 LINE"
);
},
{
closed = 1;
nodes = (
"326 -225 LINE",
"326 234 LINE",
"290 234 LINE",
"290 -225 LINE"
);
}
);
};
hints = (
{
origin = "{0, 2}";
target = "{0, 1}";
},
{
horizontal = 1;
origin = "{1, 0}";
target = up;
type = BottomGhost;
},
{
horizontal = 1;
origin = "{0, 1}";
target = down;
type = TopGhost;
}
);
layerId = UUID0;
paths = (
{
closed = 1;
nodes = (
"343 366 LINE",
"343 825 LINE",
"273 825 LINE",
"273 366 LINE"
);
},
{
closed = 1;
nodes = (
"343 -225 LINE",
"343 234 LINE",
"273 234 LINE",
"273 -225 LINE"
);
}
);
width = 616;
},
{
background = {
paths = (
{
closed = 1;
nodes = (
"373 369 LINE",
"373 720 LINE",
"243 720 LINE",
"243 369 LINE"
);
},
{
closed = 1;
nodes = (
"373 -120 LINE",
"373 231 LINE",
"243 231 LINE",
"243 -120 LINE"
);
},
{
closed = 1;
nodes = (
"326 366 LINE",
"326 825 LINE",
"290 825 LINE",
"290 366 LINE"
);
},
{
closed = 1;
nodes = (
"326 -225 LINE",
"326 234 LINE",
"290 234 LINE",
"290 -225 LINE"
);
}
);
};
layerId = "C8970C82-1F9F-492B-A412-6BE281DD1303";
paths = (
{
closed = 1;
nodes = (
"373 366 LINE",
"373 825 LINE",
"243 825 LINE",
"243 366 LINE"
);
},
{
closed = 1;
nodes = (
"373 -225 LINE",
"373 234 LINE",
"243 234 LINE",
"243 -225 LINE"
);
}
);
width = 616;
},
{
associatedMasterId = UUID0;
background = {
paths = (
{
closed = 1;
nodes = (
"343 393 LINE",
"343 720 LINE",
"273 720 LINE",
"273 393 LINE"
);
},
{
closed = 1;
nodes = (
"343 -120 LINE",
"343 205 LINE",
"273 205 LINE",
"273 -120 LINE"
);
}
);
};
hints = (
{
origin = "{0, 2}";
target = "{0, 1}";
},
{
horizontal = 1;
origin = "{1, 0}";
target = up;
type = BottomGhost;
},
{
horizontal = 1;
origin = "{0, 1}";
target = down;
type = TopGhost;
}
);
layerId = "7B6E35E5-92D6-47EB-91E5-82B60010CEDA";
name = "Light Nov 20 16, 20:05";
paths = (
{
closed = 1;
nodes = (
"343 393 LINE",
"343 720 LINE",
"273 720 LINE",
"273 393 LINE"
);
},
{
closed = 1;
nodes = (
"343 -120 LINE",
"343 205 LINE",
"273 205 LINE",
"273 -120 LINE"
);
}
);
width = 616;
},
{
associatedMasterId = "C8970C82-1F9F-492B-A412-6BE281DD1303";
layerId = "DB0F1A77-EBFC-421D-A65E-D345B7B2F2BC";
name = "Bold Nov 20 16, 20:05";
paths = (
{
closed = 1;
nodes = (
"373 369 LINE",
"373 720 LINE",
"243 720 LINE",
"243 369 LINE"
);
},
{
closed = 1;
nodes = (
"373 -120 LINE",
"373 231 LINE",
"243 231 LINE",
"243 -120 LINE"
);
}
);
width = 616;
}
);
unicode = 00A6;
},
{
glyphname = multiply;
lastChange = "2016-11-16 16:27:00 +0000";
layers = (
{
background = {
paths = (
{
closed = 1;
nodes = (
"458 122 LINE",
"505 169 LINE",
"334 342 LINE",
"506 512 LINE",
"456 563 LINE",
"285 391 LINE",
"114 562 LINE",
"65 514 LINE",
"238 344 LINE",
"64 171 LINE",
"116 121 LINE",
"287 293 LINE"
);
}
);
};
hints = (
{
horizontal = 1;
origin = "{0, 4}";
target = down;
type = TopGhost;
},
{
horizontal = 1;
origin = "{0, 10}";
target = up;
type = BottomGhost;
}
);
layerId = UUID0;
paths = (
{
closed = 1;
nodes = (
"481 122 LINE",
"528 169 LINE",
"357 342 LINE",
"529 512 LINE",
"479 563 LINE",
"308 391 LINE",
"137 562 LINE",
"88 514 LINE",
"261 344 LINE",
"87 171 LINE",
"139 121 LINE",
"310 293 LINE"
);
}
);
width = 616;
},
{
layerId = "C8970C82-1F9F-492B-A412-6BE281DD1303";
paths = (
{
closed = 1;
nodes = (
"456 103 LINE",
"548 195 LINE",
"400 342 LINE",
"549 490 LINE",
"454 584 LINE",
"307 436 LINE",
"159 583 LINE",
"68 492 LINE",
"215 344 LINE",
"67 197 LINE",
"161 102 LINE",
"309 251 LINE"
);
}
);
width = 616;
}
);
unicode = 00D7;
},
{
glyphname = exclam;
lastChange = "2016-11-16 16:27:00 +0000";
layers = (
{
background = {
paths = (
{
closed = 1;
nodes = (
"315 193 LINE",
"346 495 LINE",
"346 712 LINE",
"274 712 LINE",
"274 495 LINE",
"304 193 LINE"
);
},
{
closed = 1;
nodes = (
"344 -14 OFFCURVE",
"371 17 OFFCURVE",
"371 49 CURVE SMOOTH",
"371 81 OFFCURVE",
"344 112 OFFCURVE",
"308 112 CURVE SMOOTH",
"272 112 OFFCURVE",
"245 81 OFFCURVE",
"245 49 CURVE SMOOTH",
"245 17 OFFCURVE",
"272 -14 OFFCURVE",
"308 -14 CURVE SMOOTH"
);
}
);
};
hints = (
{
origin = "{0, 3}";
target = "{0, 2}";
},
{
horizontal = 1;
origin = "{0, 2}";
target = down;
type = TopGhost;
},
{
horizontal = 1;
origin = "{1, 0}";
target = "{1, 6}";
}
);
layerId = UUID0;
paths = (
{
closed = 1;
nodes = (
"330 193 LINE",
"346 495 LINE",
"346 712 LINE",
"274 712 LINE",
"274 495 LINE",
"289 193 LINE"
);
},
{
closed = 1;
nodes = (
"344 -14 OFFCURVE",
"371 17 OFFCURVE",
"371 49 CURVE SMOOTH",
"371 81 OFFCURVE",
"344 112 OFFCURVE",
"308 112 CURVE SMOOTH",
"272 112 OFFCURVE",
"245 81 OFFCURVE",
"245 49 CURVE SMOOTH",
"245 17 OFFCURVE",
"272 -14 OFFCURVE",
"308 -14 CURVE SMOOTH"
);
}
);
width = 616;
},
{
layerId = "C8970C82-1F9F-492B-A412-6BE281DD1303";
paths = (
{
closed = 1;
nodes = (
"344 193 LINE",
"372 486 LINE",
"372 712 LINE",
"242 712 LINE",
"242 486 LINE",
"270 193 LINE"
);
},
{
closed = 1;
nodes = (
"356 -12 OFFCURVE",
"395 26 OFFCURVE",
"395 73 CURVE SMOOTH",
"395 121 OFFCURVE",
"356 159 OFFCURVE",
"307 159 CURVE SMOOTH",
"257 159 OFFCURVE",
"221 121 OFFCURVE",
"221 73 CURVE SMOOTH",
"221 26 OFFCURVE",
"257 -12 OFFCURVE",
"307 -12 CURVE SMOOTH"
);
}
);
width = 616;
},
{
associatedMasterId = UUID0;
background = {
paths = (
{
closed = 1;
nodes = (
"98 193 LINE",
"129 495 LINE",
"129 712 LINE",
"57 712 LINE",
"57 495 LINE",
"87 193 LINE"
);
},
{
closed = 1;
nodes = (
"127 -14 OFFCURVE",
"154 17 OFFCURVE",
"154 49 CURVE SMOOTH",
"154 81 OFFCURVE",
"127 112 OFFCURVE",
"91 112 CURVE SMOOTH",
"55 112 OFFCURVE",
"28 81 OFFCURVE",
"28 49 CURVE SMOOTH",
"28 17 OFFCURVE",
"55 -14 OFFCURVE",
"91 -14 CURVE SMOOTH"
);
}
);
};
hints = (
{
origin = "{0, 3}";
target = "{0, 2}";
},
{
horizontal = 1;
origin = "{0, 2}";
target = down;
type = TopGhost;
},
{
horizontal = 1;
origin = "{1, 0}";
target = "{1, 6}";
}
);
layerId = "B4F39635-B85E-4BBC-A418-911FFBFA8C70";
name = "Sep 21 16, 19:03";
paths = (
{
closed = 1;
nodes = (
"315 193 LINE",
"346 495 LINE",
"346 712 LINE",
"274 712 LINE",
"274 495 LINE",
"304 193 LINE"
);
},
{
closed = 1;
nodes = (
"344 -14 OFFCURVE",
"371 17 OFFCURVE",
"371 49 CURVE SMOOTH",
"371 81 OFFCURVE",
"344 112 OFFCURVE",
"308 112 CURVE SMOOTH",
"272 112 OFFCURVE",
"245 81 OFFCURVE",
"245 49 CURVE SMOOTH",
"245 17 OFFCURVE",
"272 -14 OFFCURVE",
"308 -14 CURVE SMOOTH"
);
}
);
width = 616;
}
);
unicode = 0021;
},
{
glyphname = quotedbl;
lastChange = "2016-11-16 16:27:00 +0000";
layers = (
{
background = {
paths = (
{
closed = 1;
nodes = (
"32 433 LINE",
"85 433 LINE",
"103 700 LINE",
"16 700 LINE"
);
},
{
closed = 1;
nodes = (
"210 433 LINE",
"263 433 LINE",
"281 700 LINE",
"193 700 LINE"
);
}
);
};
hints = (
{
origin = "{0, 0}";
target = "{0, 1}";
},
{
origin = "{1, 0}";
target = "{1, 1}";
},
{
horizontal = 1;
origin = "{0, 0}";
target = up;
type = BottomGhost;
},
{
horizontal = 1;
origin = "{0, 2}";
target = down;
type = TopGhost;
}
);
layerId = UUID0;
paths = (
{
closed = 1;
nodes = (
"191 433 LINE",
"244 433 LINE",
"262 700 LINE",
"175 700 LINE"
);
},
{
closed = 1;
nodes = (
"369 433 LINE",
"422 433 LINE",
"440 700 LINE",
"352 700 LINE"
);
}
);
width = 616;
},
{
layerId = "C8970C82-1F9F-492B-A412-6BE281DD1303";
paths = (
{
closed = 1;
nodes = (
"153 409 LINE",
"261 409 LINE",
"285 700 LINE",
"129 700 LINE"
);
},
{
closed = 1;
nodes = (
"355 409 LINE",
"463 409 LINE",
"487 700 LINE",
"331 700 LINE"
);
}
);
width = 616;
}
);
unicode = 0022;
},
{
glyphname = numbersign;
lastChange = "2016-11-16 16:27:00 +0000";
layers = (
{
background = {
paths = (
{
closed = 1;
nodes = (
"173 0 LINE",
"204 204 LINE",
"346 204 LINE",
"315 0 LINE",
"383 0 LINE",
"414 204 LINE",
"530 204 LINE",
"540 267 LINE",
"423 267 LINE",
"451 445 LINE",
"574 445 LINE",
"584 506 LINE",
"460 506 LINE",
"490 700 LINE",
"422 700 LINE",
"392 506 LINE",
"250 506 LINE",
"279 700 LINE",
"211 700 LINE",
"181 506 LINE",
"67 506 LINE",
"57 445 LINE",
"172 445 LINE",
"145 267 LINE",
"25 267 LINE",
"13 204 LINE",
"136 204 LINE",
"105 0 LINE"
);
},
{
closed = 1;
nodes = (
"241 445 LINE",
"383 445 LINE",
"355 267 LINE",
"213 267 LINE"
);
}
);
};
hints = (
{
horizontal = 1;
origin = "{0, 1}";
target = "{1, 3}";
},
{
horizontal = 1;
origin = "{0, 9}";
target = "{0, 12}";
},
{
horizontal = 1;
origin = "{0, 0}";
target = up;
type = BottomGhost;
},
{
horizontal = 1;
origin = "{0, 13}";
target = down;
type = TopGhost;
}
);
layerId = UUID0;
paths = (
{
closed = 1;
nodes = (
"182 0 LINE",
"213 204 LINE",
"355 204 LINE",
"324 0 LINE",
"392 0 LINE",
"423 204 LINE",
"539 204 LINE",
"549 267 LINE",
"432 267 LINE",
"460 445 LINE",
"583 445 LINE",
"593 506 LINE",
"469 506 LINE",
"499 700 LINE",
"431 700 LINE",
"401 506 LINE",
"259 506 LINE",
"288 700 LINE",
"220 700 LINE",
"190 506 LINE",
"76 506 LINE",
"66 445 LINE",
"181 445 LINE",
"154 267 LINE",
"34 267 LINE",
"22 204 LINE",
"145 204 LINE",
"114 0 LINE"
);
},
{
closed = 1;
nodes = (
"250 445 LINE",
"392 445 LINE",
"364 267 LINE",
"222 267 LINE"
);
}
);
width = 616;
},
{
layerId = "C8970C82-1F9F-492B-A412-6BE281DD1303";
paths = (
{
closed = 1;
nodes = (
"193 0 LINE",
"220 176 LINE",
"341 176 LINE",
"314 0 LINE",
"428 0 LINE",
"455 176 LINE",
"561 176 LINE",
"578 288 LINE",
"472 288 LINE",
"493 429 LINE",
"600 429 LINE",
"616 541 LINE",
"510 541 LINE",
"534 700 LINE",
"421 700 LINE",
"396 541 LINE",
"275 541 LINE",
"299 700 LINE",
"185 700 LINE",
"162 541 LINE",
"54 541 LINE",
"38 429 LINE",
"144 429 LINE",
"123 288 LINE",
"16 288 LINE",
"0 176 LINE",
"106 176 LINE",
"79 0 LINE"
);
},
{
closed = 1;
nodes = (
"258 429 LINE",
"379 429 LINE",
"358 288 LINE",
"237 288 LINE"
);
}
);
width = 616;
}
);
unicode = 0023;
},
{
glyphname = dollar;
lastChange = "2016-11-16 16:27:00 +0000";
layers = (
{
background = {
paths = (
{
closed = 1;
nodes = (
"501 601 LINE",
"484 656 OFFCURVE",
"427 699 OFFCURVE",
"346 709 CURVE",
"346 789 LINE",
"275 789 LINE",
"275 710 LINE",
"164 699 OFFCURVE",
"100 630 OFFCURVE",
"100 549 CURVE SMOOTH",
"100 431 OFFCURVE",
"207 380 OFFCURVE",
"305 343 CURVE SMOOTH",
"387 312 OFFCURVE",
"462 264 OFFCURVE",
"462 180 CURVE SMOOTH",
"462 96 OFFCURVE",
"406 53 OFFCURVE",
"315 53 CURVE SMOOTH",
"235 53 OFFCURVE",
"175 93 OFFCURVE",
"147 154 CURVE",
"81 130 LINE",
"106 62 OFFCURVE",
"177 3 OFFCURVE",
"275 -9 CURVE",
"275 -98 LINE",
"346 -98 LINE",
"346 -10 LINE",
"458 0 OFFCURVE",
"535 68 OFFCURVE",
"535 182 CURVE SMOOTH",
"535 315 OFFCURVE",
"428 373 OFFCURVE",
"333 410 CURVE SMOOTH",
"250 442 OFFCURVE",
"173 478 OFFCURVE",
"173 550 CURVE SMOOTH",
"173 610 OFFCURVE",
"221 647 OFFCURVE",
"303 647 CURVE SMOOTH",
"373 647 OFFCURVE",
"419 616 OFFCURVE",
"436 579 CURVE"
);
}
);
};
hints = (
{
origin = "{0, 26}";
target = "{0, 10}";
},
{
origin = "{0, 22}";
target = "{0, 21}";
},
{
origin = "{0, 32}";
target = "{0, 4}";
},
{
horizontal = 1;
origin = "{0, 1}";
target = "{0, 35}";
},
{
horizontal = 1;
origin = "{0, 13}";
target = "{0, 23}";
},
{
horizontal = 1;
origin = "{0, 21}";
target = down;
type = TopGhost;
},
{
horizontal = 1;
origin = "{0, 0}";
target = up;
type = BottomGhost;
}
);
layerId = UUID0;
paths = (
{
closed = 1;
nodes = (
"346 -98 LINE",
"346 -10 LINE",
"453 0 OFFCURVE",
"527 68 OFFCURVE",
"527 182 CURVE SMOOTH",
"527 315 OFFCURVE",
"424 373 OFFCURVE",
"333 410 CURVE SMOOTH",
"254 442 OFFCURVE",
"181 478 OFFCURVE",
"181 550 CURVE SMOOTH",
"181 610 OFFCURVE",
"226 647 OFFCURVE",
"303 647 CURVE SMOOTH",
"369 647 OFFCURVE",
"412 616 OFFCURVE",
"428 579 CURVE",
"493 601 LINE",
"477 656 OFFCURVE",
"423 699 OFFCURVE",
"346 709 CURVE",
"346 789 LINE",
"275 789 LINE",
"275 710 LINE",
"169 699 OFFCURVE",
"108 630 OFFCURVE",
"108 549 CURVE SMOOTH",
"108 431 OFFCURVE",
"211 380 OFFCURVE",
"305 343 CURVE SMOOTH",
"383 312 OFFCURVE",
"454 264 OFFCURVE",
"454 180 CURVE SMOOTH",
"454 96 OFFCURVE",
"401 53 OFFCURVE",
"315 53 CURVE SMOOTH",
"239 53 OFFCURVE",
"182 93 OFFCURVE",
"155 154 CURVE",
"89 130 LINE",
"113 62 OFFCURVE",
"181 3 OFFCURVE",
"275 -9 CURVE",
"275 -98 LINE"
);
}
);
width = 616;
},
{
layerId = "C8970C82-1F9F-492B-A412-6BE281DD1303";
paths = (
{
closed = 1;
nodes = (
"377 -92 LINE",
"377 -6 LINE",
"476 13 OFFCURVE",
"553 86 OFFCURVE",
"553 202 CURVE SMOOTH",
"553 354 OFFCURVE",
"437 398 OFFCURVE",
"343 434 CURVE SMOOTH",
"281 457 OFFCURVE",
"228 477 OFFCURVE",
"228 523 CURVE SMOOTH",
"228 562 OFFCURVE",
"256 584 OFFCURVE",
"303 584 CURVE SMOOTH",
"357 584 OFFCURVE",
"390 551 OFFCURVE",
"406 511 CURVE",
"527 551 LINE",
"506 624 OFFCURVE",
"458 683 OFFCURVE",
"377 704 CURVE",
"377 785 LINE",
"246 785 LINE",
"246 705 LINE",
"145 684 OFFCURVE",
"90 608 OFFCURVE",
"90 523 CURVE SMOOTH",
"90 387 OFFCURVE",
"195 347 OFFCURVE",
"285 312 CURVE SMOOTH",
"354 285 OFFCURVE",
"415 262 OFFCURVE",
"415 201 CURVE SMOOTH",
"415 146 OFFCURVE",
"377 116 OFFCURVE",
"320 116 CURVE SMOOTH",
"261 116 OFFCURVE",
"212 161 OFFCURVE",
"185 223 CURVE",
"62 178 LINE",
"93 85 OFFCURVE",
"155 20 OFFCURVE",
"246 -3 CURVE",
"246 -92 LINE"
);
}
);
width = 616;
}
);
unicode = 0024;
},
{
glyphname = percent;
lastChange = "2016-11-16 16:27:00 +0000";
layers = (
{
background = {
paths = (
{
closed = 1;
nodes = (
"198 356 OFFCURVE",
"237 457 OFFCURVE",
"237 534 CURVE SMOOTH",
"237 619 OFFCURVE",
"195 712 OFFCURVE",
"80 712 CURVE SMOOTH",
"-36 712 OFFCURVE",
"-77 609 OFFCURVE",
"-77 534 CURVE SMOOTH",
"-77 450 OFFCURVE",
"-35 356 OFFCURVE",
"80 356 CURVE SMOOTH"
);
},
{
closed = 1;
nodes = (
"17 414 OFFCURVE",
"-12 465 OFFCURVE",
"-12 534 CURVE SMOOTH",
"-12 599 OFFCURVE",
"16 654 OFFCURVE",
"80 654 CURVE SMOOTH",
"141 654 OFFCURVE",
"172 605 OFFCURVE",
"172 534 CURVE SMOOTH",
"172 470 OFFCURVE",
"142 414 OFFCURVE",
"80 414 CURVE SMOOTH"
);
},
{
closed = 1;
nodes = (
"583 712 LINE",
"511 712 LINE",
"33 -12 LINE",
"105 -12 LINE"
);
},
{
closed = 1;
nodes = (
"654 -12 OFFCURVE",
"693 89 OFFCURVE",
"693 166 CURVE SMOOTH",
"693 251 OFFCURVE",
"651 344 OFFCURVE",
"536 344 CURVE SMOOTH",
"420 344 OFFCURVE",
"379 241 OFFCURVE",
"379 166 CURVE SMOOTH",
"379 82 OFFCURVE",
"421 -12 OFFCURVE",
"536 -12 CURVE SMOOTH"
);
},
{
closed = 1;
nodes = (
"473 46 OFFCURVE",
"444 97 OFFCURVE",
"444 166 CURVE SMOOTH",
"444 231 OFFCURVE",
"472 286 OFFCURVE",
"536 286 CURVE SMOOTH",
"597 286 OFFCURVE",
"628 237 OFFCURVE",
"628 166 CURVE SMOOTH",
"628 102 OFFCURVE",
"598 46 OFFCURVE",
"536 46 CURVE SMOOTH"
);
}
);
};
hints = (
{
origin = "{0, 9}";
target = "{1, 3}";
},
{
origin = "{1, 9}";
target = "{0, 3}";
},
{
origin = "{3, 9}";
target = "{4, 3}";
},
{
origin = "{4, 9}";
target = "{3, 3}";
},
{
horizontal = 1;
origin = "{3, 0}";
target = "{4, 0}";
},
{
horizontal = 1;
origin = "{4, 6}";
target = "{3, 6}";
},
{
horizontal = 1;
origin = "{0, 0}";
target = "{1, 0}";
},
{
horizontal = 1;
origin = "{1, 6}";
target = "{0, 6}";
}
);
layerId = UUID0;
paths = (
{
closed = 1;
nodes = (
"272 364 OFFCURVE",
"310 461 OFFCURVE",
"310 534 CURVE SMOOTH",
"310 615 OFFCURVE",
"270 704 OFFCURVE",
"160 704 CURVE SMOOTH",
"50 704 OFFCURVE",
"10 605 OFFCURVE",
"10 534 CURVE SMOOTH",
"10 454 OFFCURVE",
"50 364 OFFCURVE",
"160 364 CURVE SMOOTH"
);
},
{
closed = 1;
nodes = (
"97 414 OFFCURVE",
"68 465 OFFCURVE",
"68 534 CURVE SMOOTH",
"68 599 OFFCURVE",
"96 654 OFFCURVE",
"160 654 CURVE SMOOTH",
"221 654 OFFCURVE",
"252 605 OFFCURVE",
"252 534 CURVE SMOOTH",
"252 470 OFFCURVE",
"222 414 OFFCURVE",
"160 414 CURVE SMOOTH"
);
},
{
closed = 1;
nodes = (
"578 712 LINE",
"511 712 LINE",
"33 -12 LINE",
"100 -12 LINE"
);
},
{
closed = 1;
nodes = (
"568 -4 OFFCURVE",
"606 93 OFFCURVE",
"606 166 CURVE SMOOTH",
"606 247 OFFCURVE",
"566 336 OFFCURVE",
"456 336 CURVE SMOOTH",
"346 336 OFFCURVE",
"306 237 OFFCURVE",
"306 166 CURVE SMOOTH",
"306 86 OFFCURVE",
"346 -4 OFFCURVE",
"456 -4 CURVE SMOOTH"
);
},
{
closed = 1;
nodes = (
"393 46 OFFCURVE",
"364 97 OFFCURVE",
"364 166 CURVE SMOOTH",
"364 231 OFFCURVE",
"392 286 OFFCURVE",
"456 286 CURVE SMOOTH",
"517 286 OFFCURVE",
"548 237 OFFCURVE",
"548 166 CURVE SMOOTH",
"548 102 OFFCURVE",
"518 46 OFFCURVE",
"456 46 CURVE SMOOTH"
);
}
);
width = 616;
},
{
background = {
paths = (
{
closed = 1;
nodes = (
"228 346 OFFCURVE",
"271 450 OFFCURVE",
"271 529 CURVE SMOOTH",
"271 614 OFFCURVE",
"225 712 OFFCURVE",
"101 712 CURVE SMOOTH",
"-24 712 OFFCURVE",
"-69 608 OFFCURVE",
"-69 529 CURVE SMOOTH",
"-69 444 OFFCURVE",
"-23 346 OFFCURVE",
"101 346 CURVE SMOOTH"
);
},
{
closed = 1;
nodes = (
"62 454 OFFCURVE",
"43 485 OFFCURVE",
"43 529 CURVE SMOOTH",
"43 569 OFFCURVE",
"61 604 OFFCURVE",
"101 604 CURVE SMOOTH",
"140 604 OFFCURVE",
"159 573 OFFCURVE",
"159 529 CURVE SMOOTH",
"159 489 OFFCURVE",
"141 454 OFFCURVE",
"101 454 CURVE SMOOTH"
);
},
{
closed = 1;
nodes = (
"611 712 LINE",
"482 712 LINE",
"5 -12 LINE",
"134 -12 LINE"
);
},
{
closed = 1;
nodes = (
"642 -12 OFFCURVE",
"685 90 OFFCURVE",
"685 171 CURVE SMOOTH",
"685 257 OFFCURVE",
"639 354 OFFCURVE",
"515 354 CURVE SMOOTH",
"390 354 OFFCURVE",
"345 250 OFFCURVE",
"345 171 CURVE SMOOTH",
"345 85 OFFCURVE",
"390 -12 OFFCURVE",
"515 -12 CURVE SMOOTH"
);
},
{
closed = 1;
nodes = (
"475 96 OFFCURVE",
"457 127 OFFCURVE",
"457 171 CURVE SMOOTH",
"457 211 OFFCURVE",
"475 246 OFFCURVE",
"515 246 CURVE SMOOTH",
"554 246 OFFCURVE",
"573 215 OFFCURVE",
"573 171 CURVE SMOOTH",
"573 131 OFFCURVE",
"555 96 OFFCURVE",
"515 96 CURVE SMOOTH"
);
}
);
};
layerId = "C8970C82-1F9F-492B-A412-6BE281DD1303";
paths = (
{
closed = 1;
nodes = (
"255 378 OFFCURVE",
"291 464 OFFCURVE",
"291 529 CURVE SMOOTH",
"291 599 OFFCURVE",
"253 680 OFFCURVE",
"151 680 CURVE SMOOTH",
"48 680 OFFCURVE",
"11 594 OFFCURVE",
"11 529 CURVE SMOOTH",
"11 459 OFFCURVE",
"49 378 OFFCURVE",
"151 378 CURVE SMOOTH"
);
},
{
closed = 1;
nodes = (
"112 454 OFFCURVE",
"93 485 OFFCURVE",
"93 529 CURVE SMOOTH",
"93 569 OFFCURVE",
"111 604 OFFCURVE",
"151 604 CURVE SMOOTH",
"190 604 OFFCURVE",
"209 573 OFFCURVE",
"209 529 CURVE SMOOTH",
"209 489 OFFCURVE",
"191 454 OFFCURVE",
"151 454 CURVE SMOOTH"
);
},
{
closed = 1;
nodes = (
"598 712 LINE",
"492 712 LINE",
"15 -12 LINE",
"121 -12 LINE"
);
},
{
closed = 1;
nodes = (
"569 20 OFFCURVE",
"605 104 OFFCURVE",
"605 171 CURVE SMOOTH",
"605 242 OFFCURVE",
"567 322 OFFCURVE",
"465 322 CURVE SMOOTH",
"362 322 OFFCURVE",
"325 236 OFFCURVE",
"325 171 CURVE SMOOTH",
"325 100 OFFCURVE",
"362 20 OFFCURVE",
"465 20 CURVE SMOOTH"
);
},
{
closed = 1;
nodes = (
"425 96 OFFCURVE",
"407 127 OFFCURVE",
"407 171 CURVE SMOOTH",
"407 211 OFFCURVE",
"425 246 OFFCURVE",
"465 246 CURVE SMOOTH",
"504 246 OFFCURVE",
"523 215 OFFCURVE",
"523 171 CURVE SMOOTH",
"523 131 OFFCURVE",
"505 96 OFFCURVE",
"465 96 CURVE SMOOTH"
);
}
);
width = 616;
}
);
unicode = 0025;
},
{
glyphname = ampersand;
lastChange = "2016-11-16 16:27:00 +0000";
layers = (
{
background = {
paths = (
{
closed = 1;
nodes = (
"310 -12 OFFCURVE",
"402 40 OFFCURVE",
"459 118 CURVE SMOOTH",
"512 190 OFFCURVE",
"530 268 OFFCURVE",
"534 319 CURVE",
"468 319 LINE",
"461 269 OFFCURVE",
"445 216 OFFCURVE",
"411 166 CURVE SMOOTH",
"360 92 OFFCURVE",
"286 51 OFFCURVE",
"224 51 CURVE SMOOTH",
"141 51 OFFCURVE",
"81 103 OFFCURVE",
"81 182 CURVE SMOOTH",
"81 251 OFFCURVE",
"136 298 OFFCURVE",
"248 364 CURVE SMOOTH",
"367 433 OFFCURVE",
"418 485 OFFCURVE",
"418 563 CURVE SMOOTH",
"418 650 OFFCURVE",
"351 712 OFFCURVE",
"260 712 CURVE SMOOTH",
"168 712 OFFCURVE",
"95 657 OFFCURVE",
"95 565 CURVE SMOOTH",
"95 508 OFFCURVE",
"130 457 OFFCURVE",
"202 370 CURVE SMOOTH",
"514 0 LINE",
"601 0 LINE",
"259 408 LINE SMOOTH",
"197 481 OFFCURVE",
"161 524 OFFCURVE",
"161 564 CURVE SMOOTH",
"161 616 OFFCURVE",
"199 650 OFFCURVE",
"256 650 CURVE SMOOTH",
"309 650 OFFCURVE",
"352 614 OFFCURVE",
"352 556 CURVE SMOOTH",
"352 507 OFFCURVE",
"308 461 OFFCURVE",
"210 408 CURVE SMOOTH",
"76 336 OFFCURVE",
"15 275 OFFCURVE",
"15 176 CURVE SMOOTH",
"15 62 OFFCURVE",
"93 -12 OFFCURVE",
"210 -12 CURVE SMOOTH"
);
}
);
};
hints = (
{
origin = "{0, 36}";
target = "{0, 9}";
},
{
origin = "{0, 18}";
target = "{0, 28}";
},
{
origin = "{0, 33}";
target = "{0, 12}";
},
{
horizontal = 1;
origin = "{0, 39}";
target = "{0, 7}";
},
{
horizontal = 1;
origin = "{0, 31}";
target = "{0, 15}";
}
);
layerId = UUID0;
paths = (
{
closed = 1;
nodes = (
"387 -12 OFFCURVE",
"520 143 OFFCURVE",
"534 319 CURVE",
"468 319 LINE",
"453 179 OFFCURVE",
"340 51 OFFCURVE",
"224 51 CURVE SMOOTH",
"141 51 OFFCURVE",
"81 103 OFFCURVE",
"81 182 CURVE SMOOTH",
"81 349 OFFCURVE",
"418 375 OFFCURVE",
"418 565 CURVE SMOOTH",
"418 650 OFFCURVE",
"351 712 OFFCURVE",
"257 712 CURVE SMOOTH",
"168 712 OFFCURVE",
"95 657 OFFCURVE",
"95 565 CURVE SMOOTH",
"95 509 OFFCURVE",
"122 464 OFFCURVE",
"209 361 CURVE SMOOTH",
"514 0 LINE",
"601 0 LINE",
"270 395 LINE SMOOTH",
"181 500 OFFCURVE",
"161 525 OFFCURVE",
"161 564 CURVE SMOOTH",
"161 616 OFFCURVE",
"198 650 OFFCURVE",
"256 650 CURVE SMOOTH",
"309 650 OFFCURVE",
"352 614 OFFCURVE",
"352 560 CURVE SMOOTH",
"352 409 OFFCURVE",
"15 395 OFFCURVE",
"15 176 CURVE SMOOTH",
"15 62 OFFCURVE",
"93 -12 OFFCURVE",
"210 -12 CURVE SMOOTH"
);
}
);
width = 616;
},
{
background = {
paths = (
{
closed = 1;
nodes = (
"415 -12 OFFCURVE",
"542 170 OFFCURVE",
"542 350 CURVE",
"414 350 LINE",
"414 261 OFFCURVE",
"367 113 OFFCURVE",
"232 113 CURVE SMOOTH",
"174 113 OFFCURVE",
"140 146 OFFCURVE",
"140 194 CURVE SMOOTH",
"140 336 OFFCURVE",
"440 343 OFFCURVE",
"440 550 CURVE SMOOTH",
"440 649 OFFCURVE",
"367 712 OFFCURVE",
"266 712 CURVE SMOOTH",
"166 712 OFFCURVE",
"88 655 OFFCURVE",
"88 548 CURVE SMOOTH",
"88 486 OFFCURVE",
"102 447 OFFCURVE",
"442 0 CURVE",
"611 0 LINE",
"236 482 OFFCURVE",
"210 518 OFFCURVE",
"210 556 CURVE SMOOTH",
"210 591 OFFCURVE",
"232 612 OFFCURVE",
"263 612 CURVE SMOOTH",
"292 612 OFFCURVE",
"318 591 OFFCURVE",
"318 548 CURVE SMOOTH",
"318 407 OFFCURVE",
"5 411 OFFCURVE",
"5 190 CURVE SMOOTH",
"5 67 OFFCURVE",
"89 -12 OFFCURVE",
"218 -12 CURVE SMOOTH"
);
}
);
};
layerId = "C8970C82-1F9F-492B-A412-6BE281DD1303";
paths = (
{
closed = 1;
nodes = (
"415 -12 OFFCURVE",
"542 170 OFFCURVE",
"542 350 CURVE",
"414 350 LINE",
"414 261 OFFCURVE",
"367 113 OFFCURVE",
"236 113 CURVE SMOOTH",
"174 113 OFFCURVE",
"140 146 OFFCURVE",
"140 194 CURVE SMOOTH",
"140 336 OFFCURVE",
"440 343 OFFCURVE",
"440 548 CURVE SMOOTH",
"440 649 OFFCURVE",
"367 712 OFFCURVE",
"266 712 CURVE SMOOTH",
"166 712 OFFCURVE",
"88 655 OFFCURVE",
"88 553 CURVE SMOOTH",
"88 478 OFFCURVE",
"131 418 OFFCURVE",
"196 330 CURVE SMOOTH",
"442 0 LINE",
"611 0 LINE",
"303 397 LINE SMOOTH",
"243 474 OFFCURVE",
"210 513 OFFCURVE",
"210 556 CURVE SMOOTH",
"210 591 OFFCURVE",
"232 612 OFFCURVE",
"262 612 CURVE SMOOTH",
"292 612 OFFCURVE",
"318 591 OFFCURVE",
"318 549 CURVE SMOOTH",
"318 403 OFFCURVE",
"5 416 OFFCURVE",
"5 186 CURVE SMOOTH",
"5 67 OFFCURVE",
"89 -12 OFFCURVE",
"218 -12 CURVE SMOOTH"
);
}
);
width = 616;
}
);
unicode = 0026;
},
{
glyphname = quotesingle;
lastChange = "2016-11-16 16:27:00 +0000";
layers = (
{
background = {
paths = (
{
closed = 1;
nodes = (
"32 433 LINE",
"85 433 LINE",
"103 700 LINE",
"16 700 LINE"
);
}
);
};
hints = (
{
origin = "{0, 0}";
target = "{0, 1}";
}
);
layerId = UUID0;
paths = (
{
closed = 1;
nodes = (
"280 433 LINE",
"333 433 LINE",
"351 700 LINE",
"264 700 LINE"
);
}
);
width = 616;
},
{
layerId = "C8970C82-1F9F-492B-A412-6BE281DD1303";
paths = (
{
closed = 1;
nodes = (
"254 409 LINE",
"362 409 LINE",
"386 700 LINE",
"230 700 LINE"
);
}
);
width = 616;
}
);
unicode = 0027;
},
{
glyphname = parenleft;
lastChange = "2016-11-16 16:27:00 +0000";
layers = (
{
background = {
paths = (
{
closed = 1;
nodes = (
"230 -130 LINE",
"201 -87 OFFCURVE",
"110 56 OFFCURVE",
"110 284 CURVE SMOOTH",
"110 508 OFFCURVE",
"206 669 OFFCURVE",
"241 712 CURVE",
"174 712 LINE",
"107 632 OFFCURVE",
"41 496 OFFCURVE",
"41 284 CURVE SMOOTH",
"41 72 OFFCURVE",
"102 -50 OFFCURVE",
"163 -130 CURVE"
);
}
);
};
hints = (
{
origin = "{0, 10}";
target = "{0, 3}";
},
{
horizontal = 1;
origin = "{0, 0}";
target = up;
type = BottomGhost;
},
{
horizontal = 1;
origin = "{0, 6}";
target = down;
type = TopGhost;
}
);
layerId = UUID0;
paths = (
{
closed = 1;
nodes = (
"467 -130 LINE",
"421 -87 OFFCURVE",
"277 56 OFFCURVE",
"277 284 CURVE SMOOTH",
"277 508 OFFCURVE",
"424 669 OFFCURVE",
"478 712 CURVE",
"411 712 LINE",
"309 632 OFFCURVE",
"208 496 OFFCURVE",
"208 284 CURVE SMOOTH",
"208 72 OFFCURVE",
"304 -50 OFFCURVE",
"400 -130 CURVE"
);
}
);
width = 616;
},
{
background = {
paths = (
{
closed = 1;
nodes = (
"428 -130 LINE",
"391 -79 OFFCURVE",
"308 74 OFFCURVE",
"308 283 CURVE SMOOTH",
"308 495 OFFCURVE",
"396 659 OFFCURVE",
"439 712 CURVE",
"310 712 LINE",
"243 631 OFFCURVE",
"177 476 OFFCURVE",
"177 283 CURVE SMOOTH",
"177 89 OFFCURVE",
"238 -50 OFFCURVE",
"299 -130 CURVE"
);
}
);
};
layerId = "C8970C82-1F9F-492B-A412-6BE281DD1303";
paths = (
{
closed = 1;
nodes = (
"478 -130 LINE",
"426 -79 OFFCURVE",
"308 74 OFFCURVE",
"308 283 CURVE SMOOTH",
"308 495 OFFCURVE",
"430 659 OFFCURVE",
"489 712 CURVE",
"360 712 LINE",
"268 631 OFFCURVE",
"177 476 OFFCURVE",
"177 283 CURVE SMOOTH",
"177 89 OFFCURVE",
"263 -50 OFFCURVE",
"349 -130 CURVE"
);
}
);
width = 616;
}
);
unicode = 0028;
},
{
glyphname = parenright;
lastChange = "2016-11-16 16:27:00 +0000";
layers = (
{
background = {
paths = (
{
closed = 1;
nodes = (
"89 -130 LINE",
"150 -50 OFFCURVE",
"211 72 OFFCURVE",
"211 284 CURVE SMOOTH",
"211 496 OFFCURVE",
"145 632 OFFCURVE",
"78 712 CURVE",
"11 712 LINE",
"46 669 OFFCURVE",
"142 508 OFFCURVE",
"142 284 CURVE SMOOTH",
"142 56 OFFCURVE",
"51 -87 OFFCURVE",
"22 -130 CURVE"
);
}
);
};
hints = (
{
origin = "{0, 10}";
target = "{0, 3}";
},
{
horizontal = 1;
origin = "{0, 0}";
target = up;
type = BottomGhost;
},
{
horizontal = 1;
origin = "{0, 6}";
target = down;
type = TopGhost;
}
);
layerId = UUID0;
paths = (
{
closed = 1;
nodes = (
"216 -130 LINE",
"312 -50 OFFCURVE",
"408 72 OFFCURVE",
"408 284 CURVE SMOOTH",
"408 496 OFFCURVE",
"307 632 OFFCURVE",
"205 712 CURVE",
"138 712 LINE",
"192 669 OFFCURVE",
"339 508 OFFCURVE",
"339 284 CURVE SMOOTH",
"339 56 OFFCURVE",
"195 -87 OFFCURVE",
"149 -130 CURVE"
);
}
);
width = 616;
},
{
layerId = "C8970C82-1F9F-492B-A412-6BE281DD1303";
paths = (
{
closed = 1;
nodes = (
"267 -130 LINE",
"353 -50 OFFCURVE",
"439 89 OFFCURVE",
"439 283 CURVE SMOOTH",
"439 476 OFFCURVE",
"348 631 OFFCURVE",
"256 712 CURVE",
"127 712 LINE",
"186 659 OFFCURVE",
"308 495 OFFCURVE",
"308 283 CURVE SMOOTH",
"308 73 OFFCURVE",
"189 -78 OFFCURVE",
"138 -130 CURVE"
);
}
);
width = 616;
}
);
unicode = 0029;
},
{
glyphname = asterisk;
lastChange = "2016-11-16 16:27:00 +0000";
layers = (
{
background = {
paths = (
{
closed = 1;
nodes = (
"280 227 LINE",
"308 308 LINE",
"335 227 LINE",
"375 158 LINE",
"434 192 LINE",
"394 261 LINE",
"338 325 LINE",
"421 308 LINE",
"501 308 LINE",
"501 376 LINE",
"421 376 LINE",
"338 359 LINE",
"394 423 LINE",
"434 492 LINE",
"375 526 LINE",
"335 457 LINE",
"308 376 LINE",
"281 457 LINE",
"241 526 LINE",
"182 492 LINE",
"222 423 LINE",
"278 359 LINE",
"195 376 LINE",
"115 376 LINE",
"115 308 LINE",
"195 308 LINE",
"278 325 LINE",
"221 261 LINE",
"181 192 LINE",
"240 158 LINE"
);
}
);
};
guideLines = (
{
position = "{308, 578}";
},
{
position = "{308, 108}";
},
{
angle = 90;
position = "{73, 342}";
},
{
angle = 90;
position = "{543, 342}";
}
);
layerId = UUID0;
paths = (
{
closed = 1;
nodes = (
"280 227 LINE",
"308 308 LINE",
"335 227 LINE",
"395 123 LINE",
"454 157 LINE",
"394 261 LINE",
"338 325 LINE",
"421 308 LINE",
"537 308 LINE",
"537 376 LINE",
"421 376 LINE",
"338 359 LINE",
"394 423 LINE",
"454 527 LINE",
"395 561 LINE",
"335 457 LINE",
"308 376 LINE",
"281 457 LINE",
"221 561 LINE",
"162 527 LINE",
"222 423 LINE",
"278 359 LINE",
"195 376 LINE",
"79 376 LINE",
"79 308 LINE",
"195 308 LINE",
"278 325 LINE",
"221 261 LINE",
"161 157 LINE",
"220 123 LINE"
);
}
);
width = 616;
},
{
layerId = "C8970C82-1F9F-492B-A412-6BE281DD1303";
paths = (
{
closed = 1;
nodes = (
"298 211 LINE",
"308 265 LINE",
"318 211 LINE",
"396 107 LINE",
"493 177 LINE",
"429 263 LINE",
"378 298 LINE",
"441 282 LINE",
"543 282 LINE",
"543 404 LINE",
"441 404 LINE",
"378 388 LINE",
"429 423 LINE",
"493 509 LINE",
"396 579 LINE",
"318 475 LINE",
"308 421 LINE",
"298 475 LINE",
"220 579 LINE",
"123 509 LINE",
"187 423 LINE",
"238 388 LINE",
"175 404 LINE",
"73 404 LINE",
"73 282 LINE",
"175 282 LINE",
"238 298 LINE",
"187 263 LINE",
"123 177 LINE",
"220 107 LINE"
);
}
);
width = 616;
},
{
associatedMasterId = UUID0;
layerId = "99D818DE-6445-4D54-8E51-61CC985AC8BE";
name = "Light Aug 11 16, 21:58";
paths = (
{
closed = 1;
nodes = (
"406 301 LINE",
"461 344 LINE",
"398 432 LINE",
"336 488 LINE",
"413 493 LINE",
"517 527 LINE",
"494 593 LINE",
"395 561 LINE",
"324 512 LINE",
"342 595 LINE",
"342 707 LINE",
"273 707 LINE",
"273 595 LINE",
"289 512 LINE",
"218 561 LINE",
"121 593 LINE",
"98 527 LINE",
"200 493 LINE",
"275 488 LINE",
"217 432 LINE",
"153 344 LINE",
"209 301 LINE",
"275 393 LINE",
"306 473 LINE",
"338 393 LINE"
);
}
);
width = 616;
},
{
associatedMasterId = "C8970C82-1F9F-492B-A412-6BE281DD1303";
layerId = "C7C16A20-B949-43D5-8454-7E510D821809";
name = "Bold Aug 11 16, 21:58";
paths = (
{
closed = 1;
nodes = (
"394 280 LINE",
"491 350 LINE",
"417 450 LINE",
"378 469 LINE",
"425 470 LINE",
"533 506 LINE",
"496 622 LINE",
"386 586 LINE",
"353 561 LINE",
"369 601 LINE",
"369 720 LINE",
"247 720 LINE",
"247 601 LINE",
"263 561 LINE",
"230 586 LINE",
"120 622 LINE",
"83 506 LINE",
"191 470 LINE",
"238 469 LINE",
"199 450 LINE",
"125 350 LINE",
"222 280 LINE",
"296 379 LINE",
"308 426 LINE",
"320 379 LINE"
);
}
);
width = 616;
},
{
associatedMasterId = UUID0;
layerId = "17B99ED6-14D8-4E97-BFBC-05E61E78BC42";
name = "Sep 8 16, 21:11";
paths = (
{
closed = 1;
nodes = (
"278 230 LINE",
"308 310 LINE",
"338 230 LINE",
"416 128 LINE",
"472 171 LINE",
"398 269 LINE",
"338 325 LINE",
"421 308 LINE",
"543 308 LINE",
"543 376 LINE",
"421 376 LINE",
"338 359 LINE",
"398 415 LINE",
"471 513 LINE",
"416 556 LINE",
"338 454 LINE",
"308 374 LINE",
"278 454 LINE",
"200 556 LINE",
"145 513 LINE",
"218 415 LINE",
"278 359 LINE",
"195 376 LINE",
"73 376 LINE",
"73 308 LINE",
"195 308 LINE",
"278 325 LINE",
"218 269 LINE",
"144 171 LINE",
"200 128 LINE"
);
}
);
width = 616;
}
);
unicode = 002A;
},
{
glyphname = plus;
lastChange = "2016-11-16 16:27:00 +0000";
layers = (
{
background = {
paths = (
{
closed = 1;
nodes = (
"521 308 LINE",
"521 376 LINE",
"321 376 LINE",
"321 578 LINE",
"249 578 LINE",
"249 376 LINE",
"51 376 LINE",
"51 308 LINE",
"249 308 LINE",
"249 108 LINE",
"321 108 LINE",
"321 308 LINE"
);
}
);
};
hints = (
{
origin = "{0, 4}";
target = "{0, 3}";
},
{
horizontal = 1;
origin = "{0, 0}";
target = "{0, 1}";
},
{
horizontal = 1;
origin = "{0, 3}";
target = down;
type = TopGhost;
},
{
horizontal = 1;
origin = "{0, 9}";
target = up;
type = BottomGhost;
}
);
layerId = UUID0;
paths = (
{
closed = 1;
nodes = (
"543 308 LINE",
"543 376 LINE",
"343 376 LINE",
"343 578 LINE",
"271 578 LINE",
"271 376 LINE",
"73 376 LINE",
"73 308 LINE",
"271 308 LINE",
"271 108 LINE",
"343 108 LINE",
"343 308 LINE"
);
}
);
width = 616;
},
{
layerId = "C8970C82-1F9F-492B-A412-6BE281DD1303";
paths = (
{
closed = 1;
nodes = (
"543 280 LINE",
"543 406 LINE",
"373 406 LINE",
"373 578 LINE",
"243 578 LINE",
"243 406 LINE",
"73 406 LINE",
"73 280 LINE",
"243 280 LINE",
"243 108 LINE",
"373 108 LINE",
"373 280 LINE"
);
}
);
width = 616;
}
);
unicode = 002B;
},
{
glyphname = comma;
lastChange = "2016-11-16 16:27:00 +0000";
layers = (
{
background = {
paths = (
{
closed = 1;
nodes = (
"283 -141 LINE",
"335 -109 OFFCURVE",
"374 -51 OFFCURVE",
"374 25 CURVE SMOOTH",
"374 84 OFFCURVE",
"337 109 OFFCURVE",
"302 109 CURVE SMOOTH",
"269 109 OFFCURVE",
"241 84 OFFCURVE",
"241 43 CURVE SMOOTH",
"241 7 OFFCURVE",
"272 -19 OFFCURVE",
"314 -19 CURVE",
"314 -78 OFFCURVE",
"282 -120 OFFCURVE",
"264 -136 CURVE"
);
}
);
};
hints = (
{
place = "{241, 133}";
},
{
horizontal = 1;
place = "{-141, 21}";
target = up;
type = BottomGhost;
},
{
horizontal = 1;
place = "{109, -20}";
target = down;
type = TopGhost;
}
);
layerId = UUID0;
paths = (
{
closed = 1;
nodes = (
"328 -135 OFFCURVE",
"374 -55 OFFCURVE",
"374 25 CURVE SMOOTH",
"374 82 OFFCURVE",
"341 109 OFFCURVE",
"305 109 CURVE SMOOTH",
"270 109 OFFCURVE",
"241 83 OFFCURVE",
"241 45 CURVE SMOOTH",
"241 7 OFFCURVE",
"269 -17 OFFCURVE",
"307 -19 CURVE",
"306 -63 OFFCURVE",
"277 -122 OFFCURVE",
"244 -161 CURVE",
"283 -171 LINE"
);
}
);
width = 616;
},
{
background = {
paths = (
{
closed = 1;
nodes = (
"283 -171 LINE",
"328 -135 OFFCURVE",
"374 -57 OFFCURVE",
"374 25 CURVE SMOOTH",
"374 84 OFFCURVE",
"341 109 OFFCURVE",
"305 109 CURVE SMOOTH",
"270 109 OFFCURVE",
"241 83 OFFCURVE",
"241 43 CURVE SMOOTH",
"241 7 OFFCURVE",
"269 -17 OFFCURVE",
"307 -19 CURVE",
"306 -63 OFFCURVE",
"277 -122 OFFCURVE",
"244 -161 CURVE"
);
},
{
closed = 1;
nodes = (
"274 -141 LINE",
"338 -101 OFFCURVE",
"396 -20 OFFCURVE",
"396 57 CURVE SMOOTH",
"396 119 OFFCURVE",
"358 153 OFFCURVE",
"311 153 CURVE SMOOTH",
"267 153 OFFCURVE",
"227 120 OFFCURVE",
"227 70 CURVE SMOOTH",
"227 29 OFFCURVE",
"252 3 OFFCURVE",
"284 -8 CURVE",
"273 -40 OFFCURVE",
"237 -84 OFFCURVE",
"219 -100 CURVE"
);
}
);
};
layerId = "C8970C82-1F9F-492B-A412-6BE281DD1303";
paths = (
{
closed = 1;
nodes = (
"326 -156 OFFCURVE",
"396 -64 OFFCURVE",
"396 52 CURVE SMOOTH",
"396 119 OFFCURVE",
"358 153 OFFCURVE",
"310 153 CURVE SMOOTH",
"267 153 OFFCURVE",
"227 120 OFFCURVE",
"227 68 CURVE SMOOTH",
"227 27 OFFCURVE",
"250 2 OFFCURVE",
"284 -8 CURVE",
"276 -79 OFFCURVE",
"239 -130 OFFCURVE",
"219 -150 CURVE",
"274 -191 LINE"
);
}
);
width = 616;
}
);
unicode = 002C;
},
{
glyphname = hyphen;
lastChange = "2016-11-16 16:27:00 +0000";
layers = (
{
background = {
paths = (
{
closed = 1;
nodes = (
"269 264 LINE",
"269 332 LINE",
"46 332 LINE",
"46 264 LINE"
);
}
);
};
hints = (
{
horizontal = 1;
origin = "{0, 0}";
target = "{0, 1}";
}
);
layerId = UUID0;
paths = (
{
closed = 1;
nodes = (
"543 264 LINE",
"543 332 LINE",
"73 332 LINE",
"73 264 LINE"
);
}
);
width = 616;
},
{
layerId = "C8970C82-1F9F-492B-A412-6BE281DD1303";
paths = (
{
closed = 1;
nodes = (
"543 233 LINE",
"543 358 LINE",
"73 358 LINE",
"73 233 LINE"
);
}
);
width = 616;
}
);
unicode = 002D;
},
{
glyphname = period;
lastChange = "2016-11-16 16:27:00 +0000";
layers = (
{
background = {
paths = (
{
closed = 1;
nodes = (
"105 -14 OFFCURVE",
"132 17 OFFCURVE",
"132 49 CURVE SMOOTH",
"132 81 OFFCURVE",
"105 112 OFFCURVE",
"69 112 CURVE SMOOTH",
"33 112 OFFCURVE",
"6 81 OFFCURVE",
"6 49 CURVE SMOOTH",
"6 17 OFFCURVE",
"33 -14 OFFCURVE",
"69 -14 CURVE SMOOTH"
);
}
);
};
hints = (
{
origin = "{0, 9}";
target = "{0, 3}";
},
{
horizontal = 1;
origin = "{0, 0}";
target = "{0, 6}";
}
);
layerId = UUID0;
paths = (
{
closed = 1;
nodes = (
"344 -14 OFFCURVE",
"371 17 OFFCURVE",
"371 49 CURVE SMOOTH",
"371 81 OFFCURVE",
"344 112 OFFCURVE",
"308 112 CURVE SMOOTH",
"272 112 OFFCURVE",
"245 81 OFFCURVE",
"245 49 CURVE SMOOTH",
"245 17 OFFCURVE",
"272 -14 OFFCURVE",
"308 -14 CURVE SMOOTH"
);
}
);
width = 616;
},
{
layerId = "C8970C82-1F9F-492B-A412-6BE281DD1303";
paths = (
{
closed = 1;
nodes = (
"355 -12 OFFCURVE",
"392 23 OFFCURVE",
"392 70 CURVE SMOOTH",
"392 116 OFFCURVE",
"355 153 OFFCURVE",
"307 153 CURVE SMOOTH",
"259 153 OFFCURVE",
"223 116 OFFCURVE",
"223 70 CURVE SMOOTH",
"223 23 OFFCURVE",
"259 -12 OFFCURVE",
"307 -12 CURVE SMOOTH"
);
}
);
width = 616;
}
);
unicode = 002E;
},
{
glyphname = slash;
lastChange = "2016-11-16 16:27:00 +0000";
layers = (
{
background = {
paths = (
{
closed = 1;
nodes = (
"24 -130 LINE",
"417 712 LINE",
"349 712 LINE",
"-44 -130 LINE"
);
}
);
};
hints = (
{
horizontal = 1;
origin = "{0, 0}";
target = up;
type = BottomGhost;
},
{
horizontal = 1;
origin = "{0, 1}";
target = down;
type = TopGhost;
}
);
layerId = UUID0;
paths = (
{
closed = 1;
nodes = (
"145 -130 LINE",
"538 712 LINE",
"470 712 LINE",
"77 -130 LINE"
);
}
);
width = 616;
},
{
layerId = "C8970C82-1F9F-492B-A412-6BE281DD1303";
paths = (
{
closed = 1;
nodes = (
"178 -130 LINE",
"571 712 LINE",
"437 712 LINE",
"44 -130 LINE"
);
}
);
width = 616;
}
);
unicode = 002F;
},
{
glyphname = zero;
lastChange = "2016-11-16 16:27:00 +0000";
layers = (
{
background = {
paths = (
{
closed = 1;
nodes = (
"501 -12 OFFCURVE",
"548 202 OFFCURVE",
"548 350 CURVE SMOOTH",
"548 521 OFFCURVE",
"491 712 OFFCURVE",
"308 712 CURVE SMOOTH",
"113 712 OFFCURVE",
"68 496 OFFCURVE",
"68 350 CURVE SMOOTH",
"68 175 OFFCURVE",
"125 -12 OFFCURVE",
"308 -12 CURVE SMOOTH"
);
},
{
closed = 1;
nodes = (
"174 51 OFFCURVE",
"141 203 OFFCURVE",
"141 350 CURVE SMOOTH",
"141 477 OFFCURVE",
"168 649 OFFCURVE",
"308 649 CURVE SMOOTH",
"440 649 OFFCURVE",
"473 495 OFFCURVE",
"473 350 CURVE SMOOTH",
"473 221 OFFCURVE",
"448 51 OFFCURVE",
"308 51 CURVE SMOOTH"
);
},
{
closed = 1;
nodes = (
"103 -12 LINE",
"581 712 LINE",
"512 712 LINE",
"34 -12 LINE"
);
}
);
};
hints = (
{
origin = "{0, 9}";
target = "{1, 3}";
},
{
origin = "{1, 9}";
target = "{0, 3}";
},
{
horizontal = 1;
origin = "{0, 0}";
target = "{1, 0}";
},
{
horizontal = 1;
origin = "{1, 6}";
target = "{0, 6}";
}
);
layerId = UUID0;
paths = (
{
closed = 1;
nodes = (
"501 -12 OFFCURVE",
"548 202 OFFCURVE",
"548 350 CURVE SMOOTH",
"548 521 OFFCURVE",
"491 712 OFFCURVE",
"308 712 CURVE SMOOTH",
"113 712 OFFCURVE",
"68 496 OFFCURVE",
"68 350 CURVE SMOOTH",
"68 175 OFFCURVE",
"125 -12 OFFCURVE",
"308 -12 CURVE SMOOTH"
);
},
{
closed = 1;
nodes = (
"174 51 OFFCURVE",
"141 203 OFFCURVE",
"141 350 CURVE SMOOTH",
"141 477 OFFCURVE",
"168 649 OFFCURVE",
"308 649 CURVE SMOOTH",
"440 649 OFFCURVE",
"473 495 OFFCURVE",
"473 350 CURVE SMOOTH",
"473 221 OFFCURVE",
"448 51 OFFCURVE",
"308 51 CURVE SMOOTH"
);
},
{
closed = 1;
nodes = (
"344 286 OFFCURVE",
"371 317 OFFCURVE",
"371 349 CURVE SMOOTH",
"371 381 OFFCURVE",
"344 412 OFFCURVE",
"308 412 CURVE SMOOTH",
"272 412 OFFCURVE",
"245 381 OFFCURVE",
"245 349 CURVE SMOOTH",
"245 317 OFFCURVE",
"272 286 OFFCURVE",
"308 286 CURVE SMOOTH"
);
}
);
width = 616;
},
{
layerId = "C8970C82-1F9F-492B-A412-6BE281DD1303";
paths = (
{
closed = 1;
nodes = (
"509 -12 OFFCURVE",
"566 178 OFFCURVE",
"566 350 CURVE SMOOTH",
"566 525 OFFCURVE",
"509 712 OFFCURVE",
"308 712 CURVE SMOOTH",
"107 712 OFFCURVE",
"50 523 OFFCURVE",
"50 350 CURVE SMOOTH",
"50 178 OFFCURVE",
"107 -12 OFFCURVE",
"308 -12 CURVE SMOOTH"
);
},
{
closed = 1;
nodes = (
"213 116 OFFCURVE",
"185 233 OFFCURVE",
"185 350 CURVE SMOOTH",
"185 467 OFFCURVE",
"213 584 OFFCURVE",
"308 584 CURVE SMOOTH",
"403 584 OFFCURVE",
"431 467 OFFCURVE",
"431 350 CURVE SMOOTH",
"431 233 OFFCURVE",
"403 116 OFFCURVE",
"308 116 CURVE SMOOTH"
);
},
{
closed = 1;
nodes = (
"349 277 OFFCURVE",
"381 308 OFFCURVE",
"381 350 CURVE SMOOTH",
"381 391 OFFCURVE",
"349 423 OFFCURVE",
"308 423 CURVE SMOOTH",
"266 423 OFFCURVE",
"235 391 OFFCURVE",
"235 350 CURVE SMOOTH",
"235 308 OFFCURVE",
"266 277 OFFCURVE",
"308 277 CURVE SMOOTH"
);
}
);
width = 616;
}
);
unicode = 0030;
},
{
glyphname = one;
lastChange = "2016-11-16 16:27:00 +0000";
layers = (
{
background = {
paths = (
{
closed = 1;
nodes = (
"344 0 LINE",
"344 704 LINE",
"299 704 LINE",
"277 638 OFFCURVE",
"195 617 OFFCURVE",
"125 617 CURVE",
"125 567 LINE",
"274 567 LINE",
"274 0 LINE"
);
},
{
closed = 1;
nodes = (
"100 0 LINE",
"516 0 LINE",
"516 67 LINE",
"100 67 LINE"
);
}
);
};
hints = (
{
origin = "{0, 4}";
target = "{0, 1}";
},
{
horizontal = 1;
origin = "{0, 0}";
target = up;
type = BottomGhost;
},
{
horizontal = 1;
origin = "{0, 1}";
target = down;
type = TopGhost;
}
);
layerId = UUID0;
paths = (
{
closed = 1;
nodes = (
"344 0 LINE",
"344 704 LINE",
"120 617 LINE",
"120 548 LINE",
"274 604 LINE",
"274 0 LINE"
);
},
{
closed = 1;
nodes = (
"100 0 LINE",
"516 0 LINE",
"516 67 LINE",
"100 67 LINE"
);
}
);
width = 616;
},
{
background = {
paths = (
{
closed = 1;
nodes = (
"374 50 LINE",
"374 700 LINE",
"266 700 LINE",
"247 643 OFFCURVE",
"199 625 OFFCURVE",
"102 625 CURVE",
"102 508 LINE",
"239 508 LINE",
"239 50 LINE"
);
},
{
closed = 1;
nodes = (
"75 0 LINE",
"535 0 LINE",
"535 130 LINE",
"75 130 LINE"
);
}
);
};
layerId = "C8970C82-1F9F-492B-A412-6BE281DD1303";
paths = (
{
closed = 1;
nodes = (
"377 50 LINE",
"377 700 LINE",
"90 621 LINE",
"90 494 LINE",
"242 531 LINE",
"242 50 LINE"
);
},
{
closed = 1;
nodes = (
"68 0 LINE",
"548 0 LINE",
"548 130 LINE",
"68 130 LINE"
);
}
);
width = 616;
},
{
associatedMasterId = UUID0;
background = {
paths = (
{
closed = 1;
nodes = (
"344 0 LINE",
"344 700 LINE",
"299 700 LINE",
"277 634 OFFCURVE",
"225 613 OFFCURVE",
"155 613 CURVE",
"155 573 LINE",
"274 573 LINE",
"274 0 LINE"
);
}
);
};
hints = (
{
origin = "{0, 7}";
target = "{0, 1}";
},
{
horizontal = 1;
origin = "{0, 0}";
target = up;
type = BottomGhost;
},
{
horizontal = 1;
origin = "{0, 1}";
target = down;
type = TopGhost;
}
);
layerId = "F57A449A-F0A6-4BAC-B631-8B9D3F57CF68";
name = "Regular Feb 1 16, 13:58";
paths = (
{
closed = 1;
nodes = (
"344 0 LINE",
"344 704 LINE",
"299 704 LINE",
"277 638 OFFCURVE",
"195 617 OFFCURVE",
"125 617 CURVE",
"125 567 LINE",
"274 567 LINE",
"274 0 LINE"
);
},
{
closed = 1;
nodes = (
"100 0 LINE",
"516 0 LINE",
"516 67 LINE",
"100 67 LINE"
);
}
);
width = 616;
},
{
associatedMasterId = "C8970C82-1F9F-492B-A412-6BE281DD1303";
background = {
paths = (
{
closed = 1;
nodes = (
"377 50 LINE",
"377 700 LINE",
"269 700 LINE",
"250 643 OFFCURVE",
"202 625 OFFCURVE",
"135 625 CURVE",
"135 518 LINE",
"242 518 LINE",
"242 50 LINE"
);
}
);
};
layerId = "0C751766-78B1-47FB-942D-63E94C89B8CF";
name = "Bold Feb 1 16, 14:28";
paths = (
{
closed = 1;
nodes = (
"377 50 LINE",
"377 700 LINE",
"269 700 LINE",
"250 643 OFFCURVE",
"202 625 OFFCURVE",
"105 625 CURVE",
"105 508 LINE",
"242 508 LINE",
"242 50 LINE"
);
},
{
closed = 1;
nodes = (
"78 0 LINE",
"538 0 LINE",
"538 130 LINE",
"78 130 LINE"
);
}
);
width = 616;
}
);
unicode = 0031;
},
{
glyphname = two;
lastChange = "2016-11-16 16:27:00 +0000";
layers = (
{
background = {
paths = (
{
closed = 1;
nodes = (
"537 0 LINE",
"537 67 LINE",
"152 67 LINE",
"168 155 OFFCURVE",
"243 205 OFFCURVE",
"323 257 CURVE SMOOTH",
"424 322 OFFCURVE",
"531 387 OFFCURVE",
"531 515 CURVE SMOOTH",
"531 634 OFFCURVE",
"450 712 OFFCURVE",
"312 712 CURVE SMOOTH",
"193 712 OFFCURVE",
"109 646 OFFCURVE",
"88 564 CURVE",
"150 536 LINE",
"167 603 OFFCURVE",
"211 649 OFFCURVE",
"306 649 CURVE SMOOTH",
"403 649 OFFCURVE",
"458 591 OFFCURVE",
"458 515 CURVE SMOOTH",
"458 425 OFFCURVE",
"377 372 OFFCURVE",
"290 313 CURVE SMOOTH",
"189 245 OFFCURVE",
"78 175 OFFCURVE",
"78 0 CURVE"
);
}
);
};
hints = (
{
origin = "{0, 27}";
target = "{0, 2}";
},
{
origin = "{0, 21}";
target = "{0, 8}";
},
{
horizontal = 1;
origin = "{0, 0}";
target = "{0, 1}";
},
{
horizontal = 1;
origin = "{0, 18}";
target = "{0, 11}";
}
);
layerId = UUID0;
paths = (
{
closed = 1;
nodes = (
"517 0 LINE",
"517 67 LINE",
"172 67 LINE",
"175 146 OFFCURVE",
"252 205 OFFCURVE",
"323 257 CURVE SMOOTH",
"414 322 OFFCURVE",
"511 387 OFFCURVE",
"511 515 CURVE SMOOTH",
"511 634 OFFCURVE",
"437 712 OFFCURVE",
"312 712 CURVE SMOOTH",
"198 712 OFFCURVE",
"118 646 OFFCURVE",
"98 564 CURVE",
"160 536 LINE",
"176 603 OFFCURVE",
"227 649 OFFCURVE",
"311 649 CURVE SMOOTH",
"390 649 OFFCURVE",
"438 591 OFFCURVE",
"438 515 CURVE SMOOTH",
"438 425 OFFCURVE",
"367 372 OFFCURVE",
"290 313 CURVE SMOOTH",
"199 245 OFFCURVE",
"98 181 OFFCURVE",
"98 0 CURVE"
);
}
);
width = 616;
},
{
layerId = "C8970C82-1F9F-492B-A412-6BE281DD1303";
paths = (
{
closed = 1;
nodes = (
"550 0 LINE",
"550 130 LINE",
"225 130 LINE",
"244 187 OFFCURVE",
"294 231 OFFCURVE",
"366 271 CURVE SMOOTH",
"471 328 OFFCURVE",
"544 377 OFFCURVE",
"544 505 CURVE SMOOTH",
"544 621 OFFCURVE",
"459 712 OFFCURVE",
"315 712 CURVE SMOOTH",
"209 712 OFFCURVE",
"116 653 OFFCURVE",
"76 560 CURVE",
"197 505 LINE",
"220 554 OFFCURVE",
"259 584 OFFCURVE",
"318 584 CURVE SMOOTH",
"373 584 OFFCURVE",
"409 554 OFFCURVE",
"409 502 CURVE SMOOTH",
"409 447 OFFCURVE",
"360 415 OFFCURVE",
"309 388 CURVE SMOOTH",
"175 316 OFFCURVE",
"65 207 OFFCURVE",
"65 0 CURVE"
);
}
);
width = 616;
}
);
unicode = 0032;
},
{
glyphname = three;
lastChange = "2016-11-16 16:27:00 +0000";
layers = (
{
background = {
paths = (
{
closed = 1;
nodes = (
"433 -12 OFFCURVE",
"543 75 OFFCURVE",
"543 192 CURVE SMOOTH",
"543 284 OFFCURVE",
"498 351 OFFCURVE",
"425 380 CURVE",
"480 410 OFFCURVE",
"514 471 OFFCURVE",
"514 533 CURVE SMOOTH",
"514 641 OFFCURVE",
"425 712 OFFCURVE",
"309 712 CURVE SMOOTH",
"191 712 OFFCURVE",
"121 638 OFFCURVE",
"92 564 CURVE",
"157 539 LINE",
"178 587 OFFCURVE",
"223 647 OFFCURVE",
"312 647 CURVE SMOOTH",
"379 647 OFFCURVE",
"441 601 OFFCURVE",
"441 523 CURVE SMOOTH",
"441 446 OFFCURVE",
"386 396 OFFCURVE",
"303 396 CURVE SMOOTH",
"266 396 LINE",
"266 332 LINE",
"313 332 LINE SMOOTH",
"414 332 OFFCURVE",
"469 276 OFFCURVE",
"469 190 CURVE SMOOTH",
"469 97 OFFCURVE",
"394 53 OFFCURVE",
"305 53 CURVE SMOOTH",
"223 53 OFFCURVE",
"172 93 OFFCURVE",
"138 179 CURVE",
"73 152 LINE",
"107 60 OFFCURVE",
"169 -12 OFFCURVE",
"305 -12 CURVE SMOOTH"
);
}
);
};
hints = (
{
origin = "{0, 22}";
target = "{0, 9}";
},
{
origin = "{0, 31}";
target = "{0, 3}";
},
{
horizontal = 1;
origin = "{0, 0}";
target = "{0, 34}";
},
{
horizontal = 1;
origin = "{0, 27}";
target = "{0, 26}";
},
{
horizontal = 1;
origin = "{0, 19}";
target = "{0, 12}";
}
);
layerId = UUID0;
paths = (
{
closed = 1;
nodes = (
"425 -12 OFFCURVE",
"528 75 OFFCURVE",
"528 192 CURVE SMOOTH",
"528 284 OFFCURVE",
"483 351 OFFCURVE",
"410 380 CURVE",
"465 410 OFFCURVE",
"499 471 OFFCURVE",
"499 533 CURVE SMOOTH",
"499 641 OFFCURVE",
"414 712 OFFCURVE",
"304 712 CURVE SMOOTH",
"197 712 OFFCURVE",
"133 638 OFFCURVE",
"107 564 CURVE",
"172 539 LINE",
"190 587 OFFCURVE",
"229 647 OFFCURVE",
"307 647 CURVE SMOOTH",
"369 647 OFFCURVE",
"426 601 OFFCURVE",
"426 523 CURVE SMOOTH",
"426 446 OFFCURVE",
"371 396 OFFCURVE",
"288 396 CURVE SMOOTH",
"251 396 LINE",
"251 332 LINE",
"298 332 LINE SMOOTH",
"399 332 OFFCURVE",
"454 276 OFFCURVE",
"454 190 CURVE SMOOTH",
"454 97 OFFCURVE",
"386 53 OFFCURVE",
"305 53 CURVE SMOOTH",
"230 53 OFFCURVE",
"184 93 OFFCURVE",
"153 179 CURVE",
"88 152 LINE",
"120 60 OFFCURVE",
"178 -12 OFFCURVE",
"305 -12 CURVE SMOOTH"
);
}
);
width = 616;
},
{
layerId = "C8970C82-1F9F-492B-A412-6BE281DD1303";
paths = (
{
closed = 1;
nodes = (
"455 -12 OFFCURVE",
"554 67 OFFCURVE",
"554 206 CURVE SMOOTH",
"554 286 OFFCURVE",
"505 344 OFFCURVE",
"445 368 CURVE",
"497 399 OFFCURVE",
"530 451 OFFCURVE",
"530 518 CURVE SMOOTH",
"530 627 OFFCURVE",
"441 712 OFFCURVE",
"311 712 CURVE SMOOTH",
"203 712 OFFCURVE",
"125 654 OFFCURVE",
"85 567 CURVE",
"207 520 LINE",
"228 557 OFFCURVE",
"260 584 OFFCURVE",
"309 584 CURVE SMOOTH",
"365 584 OFFCURVE",
"395 550 OFFCURVE",
"395 506 CURVE SMOOTH",
"395 458 OFFCURVE",
"362 428 OFFCURVE",
"311 428 CURVE SMOOTH",
"243 428 LINE",
"243 299 LINE",
"311 299 LINE SMOOTH",
"387 299 OFFCURVE",
"419 257 OFFCURVE",
"419 206 CURVE SMOOTH",
"419 149 OFFCURVE",
"374 116 OFFCURVE",
"313 116 CURVE SMOOTH",
"262 116 OFFCURVE",
"216 139 OFFCURVE",
"184 201 CURVE",
"62 152 LINE",
"102 52 OFFCURVE",
"190 -12 OFFCURVE",
"309 -12 CURVE SMOOTH"
);
}
);
width = 616;
}
);
unicode = 0033;
},
{
glyphname = four;
lastChange = "2016-11-16 16:27:00 +0000";
layers = (
{
background = {
paths = (
{
closed = 1;
nodes = (
"450 0 LINE",
"450 189 LINE",
"556 189 LINE",
"556 249 LINE",
"450 249 LINE",
"450 700 LINE",
"408 700 LINE",
"40 226 LINE",
"40 189 LINE",
"380 189 LINE",
"380 0 LINE"
);
},
{
closed = 1;
nodes = (
"131 249 LINE",
"380 579 LINE",
"380 249 LINE"
);
}
);
};
hints = (
{
origin = "{0, 9}";
target = "{0, 1}";
},
{
horizontal = 1;
origin = "{0, 1}";
target = "{0, 4}";
},
{
horizontal = 1;
origin = "{0, 5}";
target = down;
type = TopGhost;
},
{
horizontal = 1;
origin = "{0, 0}";
target = up;
type = BottomGhost;
}
);
layerId = UUID0;
paths = (
{
closed = 1;
nodes = (
"450 0 LINE",
"450 189 LINE",
"551 189 LINE",
"551 249 LINE",
"450 249 LINE",
"450 700 LINE",
"406 700 LINE",
"65 225 LINE",
"65 189 LINE",
"380 189 LINE",
"380 0 LINE"
);
},
{
closed = 1;
nodes = (
"154 249 LINE",
"380 568 LINE",
"380 249 LINE"
);
}
);
width = 616;
},
{
background = {
paths = (
{
closed = 1;
nodes = (
"514 0 LINE",
"514 140 LINE",
"599 140 LINE",
"599 265 LINE",
"514 265 LINE",
"514 700 LINE",
"374 700 LINE",
"16 226 LINE",
"16 140 LINE",
"382 140 LINE",
"382 0 LINE"
);
},
{
closed = 1;
nodes = (
"192 265 LINE",
"382 522 LINE",
"382 265 LINE"
);
}
);
};
layerId = "C8970C82-1F9F-492B-A412-6BE281DD1303";
paths = (
{
closed = 1;
nodes = (
"505 0 LINE",
"505 140 LINE",
"590 140 LINE",
"590 265 LINE",
"505 265 LINE",
"505 700 LINE",
"365 700 LINE",
"31 226 LINE",
"31 140 LINE",
"373 140 LINE",
"373 0 LINE"
);
},
{
closed = 1;
nodes = (
"207 265 LINE",
"373 522 LINE",
"373 265 LINE"
);
}
);
width = 616;
}
);
unicode = 0034;
},
{
glyphname = five;
lastChange = "2016-11-16 16:27:00 +0000";
layers = (
{
background = {
paths = (
{
closed = 1;
nodes = (
"62 77 LINE",
"97 35 OFFCURVE",
"183 -12 OFFCURVE",
"296 -12 CURVE SMOOTH",
"457 -12 OFFCURVE",
"550 110 OFFCURVE",
"550 227 CURVE SMOOTH",
"550 361 OFFCURVE",
"448 452 OFFCURVE",
"324 452 CURVE SMOOTH",
"266 452 OFFCURVE",
"206 431 OFFCURVE",
"163 393 CURVE",
"203 637 LINE",
"503 637 LINE",
"503 700 LINE",
"147 700 LINE",
"90 337 LINE",
"149 319 LINE",
"175 349 OFFCURVE",
"235 386 OFFCURVE",
"319 386 CURVE SMOOTH",
"413 386 OFFCURVE",
"476 310 OFFCURVE",
"476 218 CURVE SMOOTH",
"476 127 OFFCURVE",
"398 48 OFFCURVE",
"293 48 CURVE SMOOTH",
"201 48 OFFCURVE",
"149 83 OFFCURVE",
"103 128 CURVE"
);
}
);
};
hints = (
{
origin = "{0, 20}";
target = "{0, 2}";
},
{
horizontal = 1;
origin = "{0, 30}";
target = "{0, 23}";
},
{
horizontal = 1;
origin = "{0, 17}";
target = "{0, 5}";
},
{
horizontal = 1;
origin = "{0, 9}";
target = "{0, 12}";
}
);
layerId = UUID0;
paths = (
{
closed = 1;
nodes = (
"441 -12 OFFCURVE",
"527 110 OFFCURVE",
"527 227 CURVE SMOOTH",
"527 360 OFFCURVE",
"444 452 OFFCURVE",
"331 452 CURVE SMOOTH",
"274 452 OFFCURVE",
"225 431 OFFCURVE",
"190 393 CURVE",
"230 637 LINE",
"490 637 LINE",
"490 700 LINE",
"174 700 LINE",
"117 337 LINE",
"176 319 LINE",
"202 349 OFFCURVE",
"249 386 OFFCURVE",
"316 386 CURVE SMOOTH",
"402 386 OFFCURVE",
"453 312 OFFCURVE",
"453 221 CURVE SMOOTH",
"453 129 OFFCURVE",
"386 51 OFFCURVE",
"292 51 CURVE SMOOTH",
"215 51 OFFCURVE",
"169 85 OFFCURVE",
"130 128 CURVE",
"89 77 LINE",
"120 35 OFFCURVE",
"194 -12 OFFCURVE",
"293 -12 CURVE SMOOTH"
);
}
);
width = 616;
},
{
layerId = "C8970C82-1F9F-492B-A412-6BE281DD1303";
paths = (
{
closed = 1;
nodes = (
"437 -12 OFFCURVE",
"551 82 OFFCURVE",
"551 235 CURVE SMOOTH",
"551 360 OFFCURVE",
"475 466 OFFCURVE",
"323 466 CURVE SMOOTH",
"282 466 OFFCURVE",
"249 456 OFFCURVE",
"220 443 CURVE",
"228 570 LINE",
"507 570 LINE",
"507 700 LINE",
"103 700 LINE",
"85 348 LINE",
"210 289 LINE",
"238 320 OFFCURVE",
"269 338 OFFCURVE",
"317 338 CURVE SMOOTH",
"380 338 OFFCURVE",
"416 299 OFFCURVE",
"416 235 CURVE SMOOTH",
"416 160 OFFCURVE",
"362 116 OFFCURVE",
"282 116 CURVE SMOOTH",
"212 116 OFFCURVE",
"173 140 OFFCURVE",
"138 161 CURVE",
"65 55 LINE",
"105 23 OFFCURVE",
"176 -12 OFFCURVE",
"282 -12 CURVE SMOOTH"
);
}
);
width = 616;
}
);
unicode = 0035;
},
{
glyphname = six;
lastChange = "2016-11-16 16:27:00 +0000";
layers = (
{
background = {
paths = (
{
closed = 1;
nodes = (
"428 -12 OFFCURVE",
"530 89 OFFCURVE",
"530 220 CURVE SMOOTH",
"530 327 OFFCURVE",
"438 434 OFFCURVE",
"323 434 CURVE SMOOTH",
"252 434 OFFCURVE",
"194 411 OFFCURVE",
"160 370 CURVE",
"182 489 OFFCURVE",
"299 618 OFFCURVE",
"432 657 CURVE",
"432 712 LINE",
"230 661 OFFCURVE",
"74 458 OFFCURVE",
"74 259 CURVE SMOOTH",
"74 106 OFFCURVE",
"153 -12 OFFCURVE",
"306 -12 CURVE SMOOTH"
);
},
{
closed = 1;
nodes = (
"402 372 OFFCURVE",
"463 304 OFFCURVE",
"463 210 CURVE SMOOTH",
"463 120 OFFCURVE",
"399 51 OFFCURVE",
"303 51 CURVE SMOOTH",
"213 51 OFFCURVE",
"143 120 OFFCURVE",
"143 210 CURVE SMOOTH",
"143 304 OFFCURVE",
"210 372 OFFCURVE",
"303 372 CURVE SMOOTH"
);
}
);
};
hints = (
{
origin = "{0, 16}";
target = "{1, 3}";
},
{
origin = "{1, 9}";
target = "{0, 3}";
},
{
horizontal = 1;
origin = "{0, 0}";
target = "{1, 0}";
},
{
horizontal = 1;
origin = "{1, 6}";
target = "{0, 6}";
},
{
horizontal = 1;
origin = "{0, 13}";
target = down;
type = TopGhost;
}
);
layerId = UUID0;
paths = (
{
closed = 1;
nodes = (
"428 -12 OFFCURVE",
"525 89 OFFCURVE",
"525 220 CURVE SMOOTH",
"525 327 OFFCURVE",
"443 434 OFFCURVE",
"328 434 CURVE SMOOTH",
"261 434 OFFCURVE",
"207 411 OFFCURVE",
"175 370 CURVE",
"196 489 OFFCURVE",
"309 618 OFFCURVE",
"437 657 CURVE",
"437 712 LINE",
"242 661 OFFCURVE",
"91 458 OFFCURVE",
"91 259 CURVE SMOOTH",
"91 106 OFFCURVE",
"166 -12 OFFCURVE",
"311 -12 CURVE SMOOTH"
);
},
{
closed = 1;
nodes = (
"224 51 OFFCURVE",
"158 120 OFFCURVE",
"158 210 CURVE SMOOTH",
"158 305 OFFCURVE",
"221 374 OFFCURVE",
"308 374 CURVE SMOOTH",
"401 374 OFFCURVE",
"458 305 OFFCURVE",
"458 210 CURVE SMOOTH",
"458 120 OFFCURVE",
"398 51 OFFCURVE",
"308 51 CURVE SMOOTH"
);
}
);
width = 616;
},
{
associatedMasterId = UUID0;
background = {
paths = (
{
closed = 1;
nodes = (
"370 -12 OFFCURVE",
"472 89 OFFCURVE",
"472 220 CURVE SMOOTH",
"472 327 OFFCURVE",
"380 434 OFFCURVE",
"265 434 CURVE SMOOTH",
"194 434 OFFCURVE",
"136 411 OFFCURVE",
"102 370 CURVE",
"124 489 OFFCURVE",
"241 618 OFFCURVE",
"374 657 CURVE",
"374 712 LINE",
"172 661 OFFCURVE",
"16 458 OFFCURVE",
"16 259 CURVE SMOOTH",
"16 106 OFFCURVE",
"95 -12 OFFCURVE",
"248 -12 CURVE SMOOTH"
);
},
{
closed = 1;
nodes = (
"344 372 OFFCURVE",
"405 304 OFFCURVE",
"405 210 CURVE SMOOTH",
"405 120 OFFCURVE",
"341 51 OFFCURVE",
"245 51 CURVE SMOOTH",
"155 51 OFFCURVE",
"85 120 OFFCURVE",
"85 210 CURVE SMOOTH",
"85 304 OFFCURVE",
"152 372 OFFCURVE",
"245 372 CURVE SMOOTH"
);
}
);
};
hints = (
{
origin = "{0, 16}";
target = "{1, 9}";
},
{
origin = "{1, 3}";
target = "{0, 3}";
},
{
horizontal = 1;
origin = "{0, 0}";
target = "{1, 6}";
},
{
horizontal = 1;
origin = "{1, 0}";
target = "{0, 6}";
},
{
horizontal = 1;
origin = "{0, 13}";
target = down;
type = TopGhost;
}
);
layerId = "3AE10071-5888-4690-91F7-3200A280267C";
name = "Regular Jan 18 16, 12:10";
paths = (
{
closed = 1;
nodes = (
"434 -12 OFFCURVE",
"536 89 OFFCURVE",
"536 220 CURVE SMOOTH",
"536 327 OFFCURVE",
"444 434 OFFCURVE",
"329 434 CURVE SMOOTH",
"258 434 OFFCURVE",
"200 411 OFFCURVE",
"166 370 CURVE",
"188 489 OFFCURVE",
"305 618 OFFCURVE",
"438 657 CURVE",
"438 712 LINE",
"236 661 OFFCURVE",
"80 458 OFFCURVE",
"80 259 CURVE SMOOTH",
"80 106 OFFCURVE",
"159 -12 OFFCURVE",
"312 -12 CURVE SMOOTH"
);
},
{
closed = 1;
nodes = (
"408 372 OFFCURVE",
"469 304 OFFCURVE",
"469 210 CURVE SMOOTH",
"469 120 OFFCURVE",
"405 51 OFFCURVE",
"309 51 CURVE SMOOTH",
"219 51 OFFCURVE",
"149 120 OFFCURVE",
"149 210 CURVE SMOOTH",
"149 304 OFFCURVE",
"216 372 OFFCURVE",
"309 372 CURVE SMOOTH"
);
}
);
width = 616;
},
{
layerId = "C8970C82-1F9F-492B-A412-6BE281DD1303";
paths = (
{
closed = 1;
nodes = (
"463 -12 OFFCURVE",
"570 80 OFFCURVE",
"570 215 CURVE SMOOTH",
"570 351 OFFCURVE",
"470 444 OFFCURVE",
"331 444 CURVE SMOOTH",
"280 444 OFFCURVE",
"241 428 OFFCURVE",
"216 409 CURVE",
"256 518 OFFCURVE",
"363 568 OFFCURVE",
"465 584 CURVE",
"465 712 LINE",
"169 666 OFFCURVE",
"45 484 OFFCURVE",
"45 258 CURVE SMOOTH",
"45 105 OFFCURVE",
"135 -12 OFFCURVE",
"310 -12 CURVE SMOOTH"
);
},
{
closed = 1;
nodes = (
"237 116 OFFCURVE",
"184 152 OFFCURVE",
"184 215 CURVE SMOOTH",
"184 277 OFFCURVE",
"237 316 OFFCURVE",
"310 316 CURVE SMOOTH",
"382 316 OFFCURVE",
"435 278 OFFCURVE",
"435 215 CURVE SMOOTH",
"435 152 OFFCURVE",
"382 116 OFFCURVE",
"310 116 CURVE SMOOTH"
);
}
);
width = 616;
}
);
unicode = 0036;
},
{
glyphname = seven;
lastChange = "2016-11-16 16:27:00 +0000";
layers = (
{
background = {
paths = (
{
closed = 1;
nodes = (
"277 0 LINE",
"278 172 OFFCURVE",
"307 431 OFFCURVE",
"502 654 CURVE",
"502 700 LINE",
"83 700 LINE",
"83 640 LINE",
"422 640 LINE",
"252 424 OFFCURVE",
"209 219 OFFCURVE",
"207 0 CURVE"
);
}
);
};
hints = (
{
origin = "{0, 11}";
target = "{0, 0}";
},
{
horizontal = 1;
origin = "{0, 6}";
target = "{0, 5}";
},
{
horizontal = 1;
origin = "{0, 0}";
target = up;
type = BottomGhost;
}
);
layerId = UUID0;
paths = (
{
closed = 1;
nodes = (
"292 0 LINE",
"293 172 OFFCURVE",
"321 431 OFFCURVE",
"507 654 CURVE",
"507 700 LINE",
"108 700 LINE",
"108 640 LINE",
"460 640 LINE",
"443 661 LINE",
"268 437 OFFCURVE",
"224 226 OFFCURVE",
"222 0 CURVE"
);
}
);
width = 616;
},
{
associatedMasterId = UUID0;
background = {
paths = (
{
closed = 1;
nodes = (
"190 0 LINE",
"191 172 OFFCURVE",
"220 431 OFFCURVE",
"415 654 CURVE",
"415 700 LINE",
"-4 700 LINE",
"-4 640 LINE",
"335 640 LINE",
"165 424 OFFCURVE",
"122 219 OFFCURVE",
"120 0 CURVE"
);
}
);
};
hints = (
{
origin = "{0, 10}";
target = "{0, 0}";
},
{
horizontal = 1;
origin = "{0, 6}";
target = "{0, 5}";
},
{
horizontal = 1;
origin = "{0, 0}";
target = up;
type = BottomGhost;
}
);
layerId = "23172B66-1C3E-4B52-AC01-E616427E79A2";
name = "Regular Jan 18 16, 12:13";
paths = (
{
closed = 1;
nodes = (
"292 0 LINE",
"293 172 OFFCURVE",
"322 431 OFFCURVE",
"517 654 CURVE",
"517 700 LINE",
"98 700 LINE",
"98 640 LINE",
"437 640 LINE",
"267 424 OFFCURVE",
"224 219 OFFCURVE",
"222 0 CURVE"
);
}
);
width = 616;
},
{
layerId = "C8970C82-1F9F-492B-A412-6BE281DD1303";
paths = (
{
closed = 1;
nodes = (
"347 0 LINE",
"347 148 OFFCURVE",
"402 415 OFFCURVE",
"559 581 CURVE",
"559 700 LINE",
"57 700 LINE",
"57 570 LINE",
"434 570 LINE",
"417 587 LINE",
"277 414 OFFCURVE",
"212 236 OFFCURVE",
"212 0 CURVE"
);
}
);
width = 616;
}
);
unicode = 0037;
},
{
glyphname = eight;
lastChange = "2016-11-16 16:27:00 +0000";
layers = (
{
background = {
paths = (
{
closed = 1;
nodes = (
"166 51 OFFCURVE",
"99 109 OFFCURVE",
"99 207 CURVE SMOOTH",
"99 290 OFFCURVE",
"161 362 OFFCURVE",
"255 362 CURVE SMOOTH",
"349 362 OFFCURVE",
"411 290 OFFCURVE",
"411 207 CURVE SMOOTH",
"411 109 OFFCURVE",
"344 51 OFFCURVE",
"255 51 CURVE SMOOTH"
);
},
{
closed = 1;
nodes = (
"142 712 OFFCURVE",
"58 628 OFFCURVE",
"58 531 CURVE SMOOTH",
"58 472 OFFCURVE",
"91 413 OFFCURVE",
"150 387 CURVE",
"78 360 OFFCURVE",
"26 284 OFFCURVE",
"26 197 CURVE SMOOTH",
"26 79 OFFCURVE",
"123 -12 OFFCURVE",
"255 -12 CURVE SMOOTH",
"387 -12 OFFCURVE",
"484 79 OFFCURVE",
"484 197 CURVE SMOOTH",
"484 284 OFFCURVE",
"433 359 OFFCURVE",
"359 387 CURVE",
"422 413 OFFCURVE",
"452 472 OFFCURVE",
"452 531 CURVE SMOOTH",
"452 628 OFFCURVE",
"368 712 OFFCURVE",
"255 712 CURVE SMOOTH"
);
},
{
closed = 1;
nodes = (
"178 408 OFFCURVE",
"129 456 OFFCURVE",
"129 522 CURVE SMOOTH",
"129 600 OFFCURVE",
"183 649 OFFCURVE",
"255 649 CURVE SMOOTH",
"327 649 OFFCURVE",
"381 600 OFFCURVE",
"381 522 CURVE SMOOTH",
"381 456 OFFCURVE",
"332 408 OFFCURVE",
"255 408 CURVE SMOOTH"
);
}
);
};
hints = (
{
origin = "{0, 21}";
target = "{1, 3}";
},
{
origin = "{0, 15}";
target = "{2, 3}";
},
{
origin = "{2, 9}";
target = "{0, 9}";
},
{
origin = "{1, 9}";
target = "{0, 3}";
},
{
horizontal = 1;
origin = "{0, 0}";
target = "{1, 0}";
},
{
horizontal = 1;
origin = "{1, 6}";
target = "{2, 0}";
},
{
horizontal = 1;
origin = "{2, 6}";
target = "{0, 12}";
}
);
layerId = UUID0;
paths = (
{
closed = 1;
nodes = (
"440 -12 OFFCURVE",
"537 79 OFFCURVE",
"537 197 CURVE SMOOTH",
"537 284 OFFCURVE",
"486 359 OFFCURVE",
"412 387 CURVE",
"475 413 OFFCURVE",
"505 472 OFFCURVE",
"505 531 CURVE SMOOTH",
"505 628 OFFCURVE",
"421 712 OFFCURVE",
"308 712 CURVE SMOOTH",
"195 712 OFFCURVE",
"111 628 OFFCURVE",
"111 531 CURVE SMOOTH",
"111 472 OFFCURVE",
"144 413 OFFCURVE",
"203 387 CURVE",
"131 360 OFFCURVE",
"79 284 OFFCURVE",
"79 197 CURVE SMOOTH",
"79 79 OFFCURVE",
"176 -12 OFFCURVE",
"308 -12 CURVE SMOOTH"
);
},
{
closed = 1;
nodes = (
"219 51 OFFCURVE",
"152 109 OFFCURVE",
"152 207 CURVE SMOOTH",
"152 290 OFFCURVE",
"214 362 OFFCURVE",
"308 362 CURVE SMOOTH",
"402 362 OFFCURVE",
"464 290 OFFCURVE",
"464 207 CURVE SMOOTH",
"464 109 OFFCURVE",
"397 51 OFFCURVE",
"308 51 CURVE SMOOTH"
);
},
{
closed = 1;
nodes = (
"231 408 OFFCURVE",
"182 456 OFFCURVE",
"182 522 CURVE SMOOTH",
"182 600 OFFCURVE",
"236 649 OFFCURVE",
"308 649 CURVE SMOOTH",
"380 649 OFFCURVE",
"434 600 OFFCURVE",
"434 522 CURVE SMOOTH",
"434 456 OFFCURVE",
"385 408 OFFCURVE",
"308 408 CURVE SMOOTH"
);
}
);
width = 616;
},
{
layerId = "C8970C82-1F9F-492B-A412-6BE281DD1303";
paths = (
{
closed = 1;
nodes = (
"469 -12 OFFCURVE",
"570 78 OFFCURVE",
"570 211 CURVE SMOOTH",
"570 291 OFFCURVE",
"518 352 OFFCURVE",
"443 384 CURVE",
"493 408 OFFCURVE",
"542 456 OFFCURVE",
"542 527 CURVE SMOOTH",
"542 636 OFFCURVE",
"453 712 OFFCURVE",
"307 712 CURVE SMOOTH",
"161 712 OFFCURVE",
"73 636 OFFCURVE",
"73 527 CURVE SMOOTH",
"73 454 OFFCURVE",
"121 407 OFFCURVE",
"171 383 CURVE",
"94 350 OFFCURVE",
"45 292 OFFCURVE",
"45 211 CURVE SMOOTH",
"45 78 OFFCURVE",
"146 -12 OFFCURVE",
"307 -12 CURVE SMOOTH"
);
},
{
closed = 1;
nodes = (
"231 110 OFFCURVE",
"180 153 OFFCURVE",
"180 213 CURVE SMOOTH",
"180 274 OFFCURVE",
"231 317 OFFCURVE",
"307 317 CURVE SMOOTH",
"381 317 OFFCURVE",
"435 274 OFFCURVE",
"435 213 CURVE SMOOTH",
"435 153 OFFCURVE",
"381 110 OFFCURVE",
"307 110 CURVE SMOOTH"
);
},
{
closed = 1;
nodes = (
"245 441 OFFCURVE",
"207 474 OFFCURVE",
"207 518 CURVE SMOOTH",
"207 561 OFFCURVE",
"245 592 OFFCURVE",
"307 592 CURVE SMOOTH",
"367 592 OFFCURVE",
"408 561 OFFCURVE",
"408 518 CURVE SMOOTH",
"408 474 OFFCURVE",
"367 441 OFFCURVE",
"307 441 CURVE SMOOTH"
);
}
);
width = 616;
}
);
unicode = 0038;
},
{
glyphname = nine;
lastChange = "2016-11-16 16:27:00 +0000";
layers = (
{
background = {
paths = (
{
closed = 1;
nodes = (
"118 712 OFFCURVE",
"16 611 OFFCURVE",
"16 480 CURVE SMOOTH",
"16 367 OFFCURVE",
"106 268 OFFCURVE",
"221 268 CURVE SMOOTH",
"294 268 OFFCURVE",
"353 292 OFFCURVE",
"387 336 CURVE",
"370 215 OFFCURVE",
"263 82 OFFCURVE",
"128 43 CURVE",
"128 -12 LINE",
"330 39 OFFCURVE",
"472 242 OFFCURVE",
"472 441 CURVE SMOOTH",
"472 594 OFFCURVE",
"399 712 OFFCURVE",
"248 712 CURVE SMOOTH"
);
},
{
closed = 1;
nodes = (
"144 324 OFFCURVE",
"83 394 OFFCURVE",
"83 488 CURVE SMOOTH",
"83 578 OFFCURVE",
"147 649 OFFCURVE",
"243 649 CURVE SMOOTH",
"333 649 OFFCURVE",
"403 578 OFFCURVE",
"403 488 CURVE SMOOTH",
"403 394 OFFCURVE",
"336 324 OFFCURVE",
"243 324 CURVE SMOOTH"
);
}
);
};
hints = (
{
origin = "{0, 9}";
target = "{1, 3}";
},
{
origin = "{1, 9}";
target = "{0, 3}";
},
{
horizontal = 1;
origin = "{0, 12}";
target = "{1, 0}";
},
{
horizontal = 1;
origin = "{1, 6}";
target = "{0, 6}";
},
{
horizontal = 1;
origin = "{0, 0}";
target = up;
type = BottomGhost;
}
);
layerId = UUID0;
paths = (
{
closed = 1;
nodes = (
"394 39 OFFCURVE",
"536 242 OFFCURVE",
"536 441 CURVE SMOOTH",
"536 594 OFFCURVE",
"463 712 OFFCURVE",
"312 712 CURVE SMOOTH",
"182 712 OFFCURVE",
"80 611 OFFCURVE",
"80 480 CURVE SMOOTH",
"80 367 OFFCURVE",
"170 268 OFFCURVE",
"285 268 CURVE SMOOTH",
"358 268 OFFCURVE",
"417 292 OFFCURVE",
"451 336 CURVE",
"434 215 OFFCURVE",
"327 82 OFFCURVE",
"192 43 CURVE",
"192 -12 LINE"
);
},
{
closed = 1;
nodes = (
"208 324 OFFCURVE",
"147 394 OFFCURVE",
"147 488 CURVE SMOOTH",
"147 578 OFFCURVE",
"211 649 OFFCURVE",
"307 649 CURVE SMOOTH",
"397 649 OFFCURVE",
"467 578 OFFCURVE",
"467 488 CURVE SMOOTH",
"467 394 OFFCURVE",
"400 324 OFFCURVE",
"307 324 CURVE SMOOTH"
);
}
);
width = 616;
},
{
layerId = "C8970C82-1F9F-492B-A412-6BE281DD1303";
paths = (
{
closed = 1;
nodes = (
"437 -4 OFFCURVE",
"560 171 OFFCURVE",
"560 441 CURVE SMOOTH",
"560 597 OFFCURVE",
"483 712 OFFCURVE",
"308 712 CURVE SMOOTH",
"159 712 OFFCURVE",
"55 624 OFFCURVE",
"55 487 CURVE SMOOTH",
"55 344 OFFCURVE",
"154 260 OFFCURVE",
"291 260 CURVE SMOOTH",
"344 260 OFFCURVE",
"385 277 OFFCURVE",
"410 298 CURVE",
"373 157 OFFCURVE",
"269 119 OFFCURVE",
"169 116 CURVE",
"169 -12 LINE"
);
},
{
closed = 1;
nodes = (
"235 388 OFFCURVE",
"190 423 OFFCURVE",
"190 488 CURVE SMOOTH",
"190 547 OFFCURVE",
"235 586 OFFCURVE",
"308 586 CURVE SMOOTH",
"379 586 OFFCURVE",
"425 547 OFFCURVE",
"425 488 CURVE SMOOTH",
"425 423 OFFCURVE",
"380 388 OFFCURVE",
"307 388 CURVE SMOOTH"
);
}
);
width = 616;
}
);
unicode = 0039;
},
{
glyphname = colon;
lastChange = "2016-11-16 16:27:00 +0000";
layers = (
{
background = {
paths = (
{
closed = 1;
nodes = (
"105 -14 OFFCURVE",
"132 17 OFFCURVE",
"132 49 CURVE SMOOTH",
"132 81 OFFCURVE",
"105 112 OFFCURVE",
"69 112 CURVE SMOOTH",
"33 112 OFFCURVE",
"6 81 OFFCURVE",
"6 49 CURVE SMOOTH",
"6 17 OFFCURVE",
"33 -14 OFFCURVE",
"69 -14 CURVE SMOOTH"
);
},
{
closed = 1;
nodes = (
"105 357 OFFCURVE",
"132 388 OFFCURVE",
"132 420 CURVE SMOOTH",
"132 452 OFFCURVE",
"105 483 OFFCURVE",
"69 483 CURVE SMOOTH",
"33 483 OFFCURVE",
"6 452 OFFCURVE",
"6 420 CURVE SMOOTH",
"6 388 OFFCURVE",
"33 357 OFFCURVE",
"69 357 CURVE SMOOTH"
);
}
);
};
hints = (
{
origin = "{0, 8}";
target = "{0, 2}";
},
{
horizontal = 1;
place = "{-14, 126}";
},
{
horizontal = 1;
origin = "{0, 0}";
target = "{0, 6}";
}
);
layerId = UUID0;
paths = (
{
closed = 1;
nodes = (
"344 357 OFFCURVE",
"371 388 OFFCURVE",
"371 420 CURVE SMOOTH",
"371 452 OFFCURVE",
"344 483 OFFCURVE",
"308 483 CURVE SMOOTH",
"272 483 OFFCURVE",
"245 452 OFFCURVE",
"245 420 CURVE SMOOTH",
"245 388 OFFCURVE",
"272 357 OFFCURVE",
"308 357 CURVE SMOOTH"
);
},
{
closed = 1;
nodes = (
"344 -14 OFFCURVE",
"371 17 OFFCURVE",
"371 49 CURVE SMOOTH",
"371 81 OFFCURVE",
"344 112 OFFCURVE",
"308 112 CURVE SMOOTH",
"272 112 OFFCURVE",
"245 81 OFFCURVE",
"245 49 CURVE SMOOTH",
"245 17 OFFCURVE",
"272 -14 OFFCURVE",
"308 -14 CURVE SMOOTH"
);
}
);
width = 616;
},
{
layerId = "C8970C82-1F9F-492B-A412-6BE281DD1303";
paths = (
{
closed = 1;
nodes = (
"355 321 OFFCURVE",
"392 356 OFFCURVE",
"392 403 CURVE SMOOTH",
"392 449 OFFCURVE",
"355 486 OFFCURVE",
"307 486 CURVE SMOOTH",
"259 486 OFFCURVE",
"223 449 OFFCURVE",
"223 403 CURVE SMOOTH",
"223 356 OFFCURVE",
"259 321 OFFCURVE",
"307 321 CURVE SMOOTH"
);
},
{
closed = 1;
nodes = (
"355 -12 OFFCURVE",
"392 23 OFFCURVE",
"392 70 CURVE SMOOTH",
"392 116 OFFCURVE",
"355 153 OFFCURVE",
"307 153 CURVE SMOOTH",
"259 153 OFFCURVE",
"223 116 OFFCURVE",
"223 70 CURVE SMOOTH",
"223 23 OFFCURVE",
"259 -12 OFFCURVE",
"307 -12 CURVE SMOOTH"
);
}
);
width = 616;
}
);
unicode = 003A;
},
{
glyphname = semicolon;
lastChange = "2016-11-16 16:27:00 +0000";
layers = (
{
background = {
paths = (
{
closed = 1;
nodes = (
"340 357 OFFCURVE",
"367 388 OFFCURVE",
"367 420 CURVE SMOOTH",
"367 452 OFFCURVE",
"340 483 OFFCURVE",
"304 483 CURVE SMOOTH",
"268 483 OFFCURVE",
"241 452 OFFCURVE",
"241 420 CURVE SMOOTH",
"241 388 OFFCURVE",
"268 357 OFFCURVE",
"304 357 CURVE SMOOTH"
);
},
{
closed = 1;
nodes = (
"283 -141 LINE",
"335 -109 OFFCURVE",
"374 -51 OFFCURVE",
"374 25 CURVE SMOOTH",
"374 84 OFFCURVE",
"337 109 OFFCURVE",
"302 109 CURVE SMOOTH",
"269 109 OFFCURVE",
"241 84 OFFCURVE",
"241 43 CURVE SMOOTH",
"241 7 OFFCURVE",
"272 -18 OFFCURVE",
"309 -18 CURVE",
"309 -77 OFFCURVE",
"282 -120 OFFCURVE",
"264 -136 CURVE"
);
}
);
};
hints = (
{
origin = "{1, 9}";
target = "{1, 3}";
},
{
horizontal = 1;
place = "{109, -20}";
target = down;
type = TopGhost;
},
{
horizontal = 1;
origin = "{1, 0}";
target = "{1, 6}";
},
{
horizontal = 1;
place = "{-161, 21}";
target = up;
type = BottomGhost;
}
);
layerId = UUID0;
paths = (
{
closed = 1;
nodes = (
"328 -135 OFFCURVE",
"374 -55 OFFCURVE",
"374 25 CURVE SMOOTH",
"374 82 OFFCURVE",
"341 109 OFFCURVE",
"305 109 CURVE SMOOTH",
"270 109 OFFCURVE",
"241 83 OFFCURVE",
"241 45 CURVE SMOOTH",
"241 7 OFFCURVE",
"269 -17 OFFCURVE",
"307 -19 CURVE",
"306 -63 OFFCURVE",
"277 -122 OFFCURVE",
"244 -161 CURVE",
"283 -171 LINE"
);
},
{
closed = 1;
nodes = (
"340 357 OFFCURVE",
"367 388 OFFCURVE",
"367 420 CURVE SMOOTH",
"367 452 OFFCURVE",
"340 483 OFFCURVE",
"304 483 CURVE SMOOTH",
"268 483 OFFCURVE",
"241 452 OFFCURVE",
"241 420 CURVE SMOOTH",
"241 388 OFFCURVE",
"268 357 OFFCURVE",
"304 357 CURVE SMOOTH"
);
}
);
width = 616;
},
{
background = {
paths = (
{
closed = 1;
nodes = (
"359 321 OFFCURVE",
"396 356 OFFCURVE",
"396 403 CURVE SMOOTH",
"396 449 OFFCURVE",
"359 486 OFFCURVE",
"311 486 CURVE SMOOTH",
"263 486 OFFCURVE",
"227 449 OFFCURVE",
"227 403 CURVE SMOOTH",
"227 356 OFFCURVE",
"263 321 OFFCURVE",
"311 321 CURVE SMOOTH"
);
},
{
closed = 1;
nodes = (
"274 -141 LINE",
"338 -101 OFFCURVE",
"396 -27 OFFCURVE",
"396 57 CURVE SMOOTH",
"396 119 OFFCURVE",
"358 153 OFFCURVE",
"311 153 CURVE SMOOTH",
"267 153 OFFCURVE",
"227 120 OFFCURVE",
"227 70 CURVE SMOOTH",
"227 29 OFFCURVE",
"252 3 OFFCURVE",
"284 -8 CURVE",
"273 -46 OFFCURVE",
"238 -84 OFFCURVE",
"219 -100 CURVE"
);
}
);
};
layerId = "C8970C82-1F9F-492B-A412-6BE281DD1303";
paths = (
{
closed = 1;
nodes = (
"326 -156 OFFCURVE",
"396 -64 OFFCURVE",
"396 52 CURVE SMOOTH",
"396 119 OFFCURVE",
"358 153 OFFCURVE",
"310 153 CURVE SMOOTH",
"267 153 OFFCURVE",
"227 120 OFFCURVE",
"227 68 CURVE SMOOTH",
"227 27 OFFCURVE",
"250 2 OFFCURVE",
"284 -8 CURVE",
"276 -79 OFFCURVE",
"239 -130 OFFCURVE",
"219 -150 CURVE",
"274 -191 LINE"
);
},
{
closed = 1;
nodes = (
"359 321 OFFCURVE",
"396 356 OFFCURVE",
"396 403 CURVE SMOOTH",
"396 449 OFFCURVE",
"359 486 OFFCURVE",
"311 486 CURVE SMOOTH",
"263 486 OFFCURVE",
"227 449 OFFCURVE",
"227 403 CURVE SMOOTH",
"227 356 OFFCURVE",
"263 321 OFFCURVE",
"311 321 CURVE SMOOTH"
);
}
);
width = 616;
}
);
unicode = 003B;
},
{
glyphname = less;
lastChange = "2016-11-16 16:27:00 +0000";
layers = (
{
background = {
paths = (
{
closed = 1;
nodes = (
"521 188 LINE",
"128 343 LINE",
"521 498 LINE",
"521 565 LINE",
"51 375 LINE",
"51 309 LINE",
"521 120 LINE"
);
}
);
};
hints = (
{
horizontal = 1;
origin = "{0, 3}";
target = down;
type = TopGhost;
},
{
horizontal = 1;
origin = "{0, 6}";
target = up;
type = BottomGhost;
}
);
layerId = UUID0;
paths = (
{
closed = 1;
nodes = (
"543 195 LINE",
"150 350 LINE",
"543 505 LINE",
"543 572 LINE",
"73 382 LINE",
"73 316 LINE",
"543 127 LINE"
);
}
);
width = 616;
},
{
layerId = "C8970C82-1F9F-492B-A412-6BE281DD1303";
paths = (
{
closed = 1;
nodes = (
"543 233 LINE",
"267 343 LINE",
"543 452 LINE",
"543 588 LINE",
"73 396 LINE",
"73 290 LINE",
"543 98 LINE"
);
}
);
width = 616;
}
);
unicode = 003C;
},
{
glyphname = equal;
lastChange = "2016-11-16 16:27:00 +0000";
layers = (
{
background = {
paths = (
{
closed = 1;
nodes = (
"543 229 LINE",
"543 297 LINE",
"73 297 LINE",
"73 229 LINE"
);
},
{
closed = 1;
nodes = (
"543 387 LINE",
"543 455 LINE",
"73 455 LINE",
"73 387 LINE"
);
}
);
};
hints = (
{
horizontal = 1;
place = "{229, 67}";
},
{
horizontal = 1;
place = "{388, 67}";
}
);
layerId = UUID0;
paths = (
{
closed = 1;
nodes = (
"543 204 LINE",
"543 272 LINE",
"73 272 LINE",
"73 204 LINE"
);
},
{
closed = 1;
nodes = (
"543 412 LINE",
"543 480 LINE",
"73 480 LINE",
"73 412 LINE"
);
}
);
width = 616;
},
{
background = {
paths = (
{
closed = 1;
nodes = (
"543 165 LINE",
"543 295 LINE",
"73 295 LINE",
"73 165 LINE"
);
},
{
closed = 1;
nodes = (
"543 391 LINE",
"543 521 LINE",
"73 521 LINE",
"73 391 LINE"
);
}
);
};
layerId = "C8970C82-1F9F-492B-A412-6BE281DD1303";
paths = (
{
closed = 1;
nodes = (
"543 153 LINE",
"543 283 LINE",
"73 283 LINE",
"73 153 LINE"
);
},
{
closed = 1;
nodes = (
"543 403 LINE",
"543 533 LINE",
"73 533 LINE",
"73 403 LINE"
);
}
);
width = 616;
},
{
associatedMasterId = UUID0;
background = {
paths = (
{
closed = 1;
nodes = (
"521 229 LINE",
"521 296 LINE",
"51 296 LINE",
"51 229 LINE"
);
},
{
closed = 1;
nodes = (
"521 388 LINE",
"521 455 LINE",
"51 455 LINE",
"51 388 LINE"
);
}
);
};
hints = (
{
horizontal = 1;
place = "{229, 67}";
},
{
horizontal = 1;
place = "{388, 67}";
}
);
layerId = "5DCAB347-DEF5-445D-B015-D005CA845985";
name = "Sep 21 16, 19:08";
paths = (
{
closed = 1;
nodes = (
"543 229 LINE",
"543 297 LINE",
"73 297 LINE",
"73 229 LINE"
);
},
{
closed = 1;
nodes = (
"543 387 LINE",
"543 455 LINE",
"73 455 LINE",
"73 387 LINE"
);
}
);
width = 616;
},
{
associatedMasterId = "C8970C82-1F9F-492B-A412-6BE281DD1303";
background = {
paths = (
{
closed = 1;
nodes = (
"543 165 LINE",
"543 295 LINE",
"73 295 LINE",
"73 165 LINE"
);
},
{
closed = 1;
nodes = (
"543 391 LINE",
"543 521 LINE",
"73 521 LINE",
"73 391 LINE"
);
}
);
};
layerId = "AE3B0B34-04BA-4105-B45E-C3D713E5D093";
name = "Sep 21 16, 19:19";
paths = (
{
closed = 1;
nodes = (
"543 165 LINE",
"543 295 LINE",
"73 295 LINE",
"73 165 LINE"
);
},
{
closed = 1;
nodes = (
"543 391 LINE",
"543 521 LINE",
"73 521 LINE",
"73 391 LINE"
);
}
);
width = 616;
},
{
associatedMasterId = UUID0;
background = {
paths = (
{
closed = 1;
nodes = (
"543 229 LINE",
"543 297 LINE",
"73 297 LINE",
"73 229 LINE"
);
},
{
closed = 1;
nodes = (
"543 387 LINE",
"543 455 LINE",
"73 455 LINE",
"73 387 LINE"
);
}
);
};
hints = (
{
horizontal = 1;
place = "{229, 67}";
},
{
horizontal = 1;
place = "{388, 67}";
}
);
layerId = "CEC183A5-27F0-4142-B117-6C0E70BEE31F";
name = "Sep 22 16, 20:26";
paths = (
{
closed = 1;
nodes = (
"543 214 LINE",
"543 282 LINE",
"73 282 LINE",
"73 214 LINE"
);
},
{
closed = 1;
nodes = (
"543 402 LINE",
"543 470 LINE",
"73 470 LINE",
"73 402 LINE"
);
}
);
width = 616;
},
{
associatedMasterId = "C8970C82-1F9F-492B-A412-6BE281DD1303";
background = {
paths = (
{
closed = 1;
nodes = (
"543 165 LINE",
"543 295 LINE",
"73 295 LINE",
"73 165 LINE"
);
},
{
closed = 1;
nodes = (
"543 391 LINE",
"543 521 LINE",
"73 521 LINE",
"73 391 LINE"
);
}
);
};
layerId = "BCB52434-ADE3-4043-BF91-2F80938C1AF4";
name = "Sep 22 16, 20:26";
paths = (
{
closed = 1;
nodes = (
"543 155 LINE",
"543 285 LINE",
"73 285 LINE",
"73 155 LINE"
);
},
{
closed = 1;
nodes = (
"543 401 LINE",
"543 531 LINE",
"73 531 LINE",
"73 401 LINE"
);
}
);
width = 616;
}
);
unicode = 003D;
},
{
glyphname = greater;
lastChange = "2016-11-16 16:27:00 +0000";
layers = (
{
background = {
paths = (
{
closed = 1;
nodes = (
"521 375 LINE",
"51 565 LINE",
"51 498 LINE",
"444 343 LINE",
"51 186 LINE",
"51 120 LINE",
"521 309 LINE"
);
}
);
};
hints = (
{
horizontal = 1;
origin = "{0, 1}";
target = down;
type = TopGhost;
},
{
horizontal = 1;
origin = "{0, 5}";
target = up;
type = BottomGhost;
}
);
layerId = UUID0;
paths = (
{
closed = 1;
nodes = (
"543 382 LINE",
"73 572 LINE",
"73 505 LINE",
"466 350 LINE",
"73 193 LINE",
"73 127 LINE",
"543 316 LINE"
);
}
);
width = 616;
},
{
layerId = "C8970C82-1F9F-492B-A412-6BE281DD1303";
paths = (
{
closed = 1;
nodes = (
"543 401 LINE",
"73 593 LINE",
"73 458 LINE",
"349 348 LINE",
"73 239 LINE",
"73 103 LINE",
"543 295 LINE"
);
}
);
width = 616;
}
);
unicode = 003E;
},
{
glyphname = question;
lastChange = "2016-11-16 16:27:00 +0000";
layers = (
{
background = {
paths = (
{
closed = 1;
nodes = (
"335 190 LINE",
"335 360 OFFCURVE",
"523 350 OFFCURVE",
"523 528 CURVE SMOOTH",
"523 629 OFFCURVE",
"448 712 OFFCURVE",
"312 712 CURVE SMOOTH",
"205 712 OFFCURVE",
"122 654 OFFCURVE",
"93 562 CURVE",
"157 533 LINE",
"173 606 OFFCURVE",
"229 647 OFFCURVE",
"312 647 CURVE SMOOTH",
"402 647 OFFCURVE",
"451 594 OFFCURVE",
"451 530 CURVE SMOOTH",
"451 385 OFFCURVE",
"263 387 OFFCURVE",
"263 190 CURVE"
);
},
{
closed = 1;
nodes = (
"333 -14 OFFCURVE",
"360 17 OFFCURVE",
"360 49 CURVE SMOOTH",
"360 81 OFFCURVE",
"333 112 OFFCURVE",
"297 112 CURVE SMOOTH",
"261 112 OFFCURVE",
"234 81 OFFCURVE",
"234 49 CURVE SMOOTH",
"234 17 OFFCURVE",
"261 -14 OFFCURVE",
"297 -14 CURVE SMOOTH"
);
}
);
};
hints = (
{
place = "{234, 126}";
},
{
place = "{263, 72}";
},
{
place = "{451, 72}";
},
{
horizontal = 1;
place = "{-14, 126}";
},
{
horizontal = 1;
place = "{647, 65}";
}
);
layerId = UUID0;
paths = (
{
closed = 1;
nodes = (
"336 170 LINE",
"336 193 LINE SMOOTH",
"336 357 OFFCURVE",
"524 352 OFFCURVE",
"524 528 CURVE SMOOTH",
"524 629 OFFCURVE",
"449 712 OFFCURVE",
"313 712 CURVE SMOOTH",
"175 712 OFFCURVE",
"92 624 OFFCURVE",
"92 511 CURVE",
"158 511 LINE",
"158 589 OFFCURVE",
"214 647 OFFCURVE",
"313 647 CURVE SMOOTH",
"403 647 OFFCURVE",
"452 594 OFFCURVE",
"452 530 CURVE SMOOTH",
"452 387 OFFCURVE",
"264 383 OFFCURVE",
"264 193 CURVE SMOOTH",
"264 170 LINE"
);
},
{
closed = 1;
nodes = (
"334 -14 OFFCURVE",
"361 17 OFFCURVE",
"361 49 CURVE SMOOTH",
"361 81 OFFCURVE",
"334 112 OFFCURVE",
"298 112 CURVE SMOOTH",
"262 112 OFFCURVE",
"235 81 OFFCURVE",
"235 49 CURVE SMOOTH",
"235 17 OFFCURVE",
"262 -14 OFFCURVE",
"298 -14 CURVE SMOOTH"
);
}
);
width = 616;
},
{
layerId = "C8970C82-1F9F-492B-A412-6BE281DD1303";
paths = (
{
closed = 1;
nodes = (
"372 189 LINE",
"372 224 LINE SMOOTH",
"372 351 OFFCURVE",
"533 344 OFFCURVE",
"533 509 CURVE SMOOTH",
"533 624 OFFCURVE",
"457 712 OFFCURVE",
"316 712 CURVE SMOOTH",
"179 712 OFFCURVE",
"83 625 OFFCURVE",
"83 469 CURVE",
"213 469 LINE",
"213 544 OFFCURVE",
"249 587 OFFCURVE",
"316 587 CURVE SMOOTH",
"372 587 OFFCURVE",
"403 554 OFFCURVE",
"403 509 CURVE SMOOTH",
"403 406 OFFCURVE",
"242 410 OFFCURVE",
"242 225 CURVE SMOOTH",
"242 189 LINE"
);
},
{
closed = 1;
nodes = (
"356 -12 OFFCURVE",
"393 23 OFFCURVE",
"393 70 CURVE SMOOTH",
"393 116 OFFCURVE",
"356 153 OFFCURVE",
"308 153 CURVE SMOOTH",
"260 153 OFFCURVE",
"224 116 OFFCURVE",
"224 70 CURVE SMOOTH",
"224 23 OFFCURVE",
"260 -12 OFFCURVE",
"308 -12 CURVE SMOOTH"
);
}
);
width = 616;
}
);
unicode = 003F;
},
{
glyphname = at;
lastChange = "2016-11-16 16:27:00 +0000";
layers = (
{
background = {
paths = (
{
closed = 1;
nodes = (
"355 -12 OFFCURVE",
"403 -7 OFFCURVE",
"439 3 CURVE",
"454 69 LINE",
"418 57 OFFCURVE",
"359 50 OFFCURVE",
"311 50 CURVE SMOOTH",
"130 50 OFFCURVE",
"24 177 OFFCURVE",
"24 334 CURVE SMOOTH",
"24 515 OFFCURVE",
"138 650 OFFCURVE",
"329 650 CURVE SMOOTH",
"476 650 OFFCURVE",
"597 571 OFFCURVE",
"597 417 CURVE SMOOTH",
"597 301 OFFCURVE",
"558 215 OFFCURVE",
"503 215 CURVE SMOOTH",
"475 215 OFFCURVE",
"458 234 OFFCURVE",
"458 266 CURVE SMOOTH",
"458 271 OFFCURVE",
"458 278 OFFCURVE",
"459 284 CURVE SMOOTH",
"499 516 LINE",
"436 516 LINE",
"422 433 LINE",
"411 495 OFFCURVE",
"369 529 OFFCURVE",
"311 529 CURVE SMOOTH",
"196 529 OFFCURVE",
"124 419 OFFCURVE",
"124 322 CURVE SMOOTH",
"124 223 OFFCURVE",
"187 151 OFFCURVE",
"270 151 CURVE SMOOTH",
"326 151 OFFCURVE",
"369 184 OFFCURVE",
"397 236 CURVE",
"406 190 OFFCURVE",
"438 160 OFFCURVE",
"493 160 CURVE SMOOTH",
"584 160 OFFCURVE",
"657 266 OFFCURVE",
"657 413 CURVE SMOOTH",
"657 592 OFFCURVE",
"521 712 OFFCURVE",
"326 712 CURVE SMOOTH",
"130 712 OFFCURVE",
"-42 557 OFFCURVE",
"-42 335 CURVE SMOOTH",
"-42 114 OFFCURVE",
"114 -12 OFFCURVE",
"307 -12 CURVE SMOOTH"
);
},
{
closed = 1;
nodes = (
"364 468 OFFCURVE",
"406 425 OFFCURVE",
"406 359 CURVE SMOOTH",
"406 279 OFFCURVE",
"359 212 OFFCURVE",
"289 212 CURVE SMOOTH",
"232 212 OFFCURVE",
"196 254 OFFCURVE",
"196 321 CURVE SMOOTH",
"196 400 OFFCURVE",
"240 468 OFFCURVE",
"316 468 CURVE SMOOTH"
);
}
);
};
hints = (
{
origin = "{0, 52}";
target = "{0, 10}";
},
{
origin = "{0, 16}";
target = "{0, 46}";
},
{
origin = "{0, 34}";
target = "{1, 3}";
},
{
horizontal = 1;
origin = "{0, 0}";
target = "{0, 7}";
},
{
horizontal = 1;
origin = "{0, 13}";
target = "{0, 49}";
},
{
horizontal = 1;
origin = "{0, 43}";
target = "{0, 19}";
},
{
horizontal = 1;
origin = "{0, 37}";
target = "{1, 0}";
},
{
horizontal = 1;
origin = "{1, 6}";
target = "{0, 31}";
}
);
layerId = UUID0;
paths = (
{
closed = 1;
nodes = (
"345 -12 OFFCURVE",
"382 -7 OFFCURVE",
"411 3 CURVE",
"422 56 LINE",
"394 44 OFFCURVE",
"348 37 OFFCURVE",
"310 37 CURVE SMOOTH",
"168 37 OFFCURVE",
"85 170 OFFCURVE",
"85 334 CURVE SMOOTH",
"85 522 OFFCURVE",
"185 663 OFFCURVE",
"324 663 CURVE SMOOTH",
"430 663 OFFCURVE",
"534 580 OFFCURVE",
"534 417 CURVE SMOOTH",
"534 301 OFFCURVE",
"504 215 OFFCURVE",
"461 215 CURVE SMOOTH",
"439 215 OFFCURVE",
"425 234 OFFCURVE",
"425 266 CURVE SMOOTH",
"425 271 OFFCURVE",
"425 278 OFFCURVE",
"426 284 CURVE SMOOTH",
"458 516 LINE",
"408 516 LINE",
"397 433 LINE",
"389 495 OFFCURVE",
"356 529 OFFCURVE",
"310 529 CURVE SMOOTH",
"220 529 OFFCURVE",
"164 419 OFFCURVE",
"164 322 CURVE SMOOTH",
"164 223 OFFCURVE",
"213 151 OFFCURVE",
"278 151 CURVE SMOOTH",
"322 151 OFFCURVE",
"356 184 OFFCURVE",
"378 236 CURVE",
"385 190 OFFCURVE",
"410 160 OFFCURVE",
"453 160 CURVE SMOOTH",
"524 160 OFFCURVE",
"581 266 OFFCURVE",
"581 413 CURVE SMOOTH",
"581 592 OFFCURVE",
"475 712 OFFCURVE",
"322 712 CURVE SMOOTH",
"168 712 OFFCURVE",
"34 557 OFFCURVE",
"34 335 CURVE SMOOTH",
"34 114 OFFCURVE",
"156 -12 OFFCURVE",
"307 -12 CURVE SMOOTH"
);
},
{
closed = 1;
nodes = (
"248 207 OFFCURVE",
"220 251 OFFCURVE",
"220 321 CURVE SMOOTH",
"220 403 OFFCURVE",
"255 473 OFFCURVE",
"314 473 CURVE SMOOTH",
"352 473 OFFCURVE",
"385 428 OFFCURVE",
"385 359 CURVE SMOOTH",
"385 276 OFFCURVE",
"348 207 OFFCURVE",
"293 207 CURVE SMOOTH"
);
}
);
width = 616;
},
{
background = {
paths = (
{
closed = 1;
nodes = (
"352 -12 OFFCURVE",
"388 -9 OFFCURVE",
"427 -4 CURVE",
"456 105 LINE",
"407 93 OFFCURVE",
"362 86 OFFCURVE",
"319 86 CURVE SMOOTH",
"157 86 OFFCURVE",
"53 174 OFFCURVE",
"53 337 CURVE SMOOTH",
"53 498 OFFCURVE",
"165 614 OFFCURVE",
"329 614 CURVE SMOOTH",
"492 614 OFFCURVE",
"568 522 OFFCURVE",
"568 410 CURVE SMOOTH",
"568 308 OFFCURVE",
"520 248 OFFCURVE",
"472 248 CURVE SMOOTH",
"460 248 OFFCURVE",
"455 254 OFFCURVE",
"455 265 CURVE SMOOTH",
"455 274 OFFCURVE",
"460 305 OFFCURVE",
"468 345 CURVE SMOOTH",
"501 523 LINE",
"402 523 LINE",
"397 495 LINE",
"384 518 OFFCURVE",
"355 536 OFFCURVE",
"315 536 CURVE SMOOTH",
"202 536 OFFCURVE",
"129 430 OFFCURVE",
"129 329 CURVE SMOOTH",
"129 225 OFFCURVE",
"188 158 OFFCURVE",
"273 158 CURVE SMOOTH",
"314 158 OFFCURVE",
"349 171 OFFCURVE",
"372 210 CURVE",
"383 173 OFFCURVE",
"424 158 OFFCURVE",
"453 158 CURVE SMOOTH",
"574 158 OFFCURVE",
"666 265 OFFCURVE",
"666 412 CURVE SMOOTH",
"666 577 OFFCURVE",
"533 712 OFFCURVE",
"324 712 CURVE SMOOTH",
"115 712 OFFCURVE",
"-51 557 OFFCURVE",
"-51 338 CURVE SMOOTH",
"-51 114 OFFCURVE",
"97 -12 OFFCURVE",
"315 -12 CURVE SMOOTH"
);
},
{
closed = 1;
nodes = (
"252 256 OFFCURVE",
"231 284 OFFCURVE",
"231 327 CURVE SMOOTH",
"231 387 OFFCURVE",
"265 438 OFFCURVE",
"317 438 CURVE SMOOTH",
"352 438 OFFCURVE",
"371 411 OFFCURVE",
"371 368 CURVE SMOOTH",
"371 316 OFFCURVE",
"339 256 OFFCURVE",
"285 256 CURVE SMOOTH"
);
}
);
};
layerId = "C8970C82-1F9F-492B-A412-6BE281DD1303";
paths = (
{
closed = 1;
nodes = (
"342 -12 OFFCURVE",
"371 -9 OFFCURVE",
"401 -4 CURVE",
"424 90 LINE",
"385 78 OFFCURVE",
"350 71 OFFCURVE",
"317 71 CURVE SMOOTH",
"190 71 OFFCURVE",
"108 164 OFFCURVE",
"108 337 CURVE SMOOTH",
"108 510 OFFCURVE",
"196 634 OFFCURVE",
"324 634 CURVE SMOOTH",
"452 634 OFFCURVE",
"512 533 OFFCURVE",
"512 410 CURVE SMOOTH",
"512 308 OFFCURVE",
"474 248 OFFCURVE",
"436 248 CURVE SMOOTH",
"427 248 OFFCURVE",
"423 254 OFFCURVE",
"423 265 CURVE SMOOTH",
"423 274 OFFCURVE",
"427 305 OFFCURVE",
"433 345 CURVE SMOOTH",
"459 523 LINE",
"382 523 LINE",
"378 495 LINE",
"367 518 OFFCURVE",
"345 536 OFFCURVE",
"313 536 CURVE SMOOTH",
"225 536 OFFCURVE",
"168 430 OFFCURVE",
"168 329 CURVE SMOOTH",
"168 225 OFFCURVE",
"214 158 OFFCURVE",
"280 158 CURVE SMOOTH",
"313 158 OFFCURVE",
"340 171 OFFCURVE",
"358 210 CURVE",
"367 173 OFFCURVE",
"399 158 OFFCURVE",
"422 158 CURVE SMOOTH",
"516 158 OFFCURVE",
"588 265 OFFCURVE",
"588 412 CURVE SMOOTH",
"588 577 OFFCURVE",
"484 712 OFFCURVE",
"320 712 CURVE SMOOTH",
"157 712 OFFCURVE",
"27 557 OFFCURVE",
"27 338 CURVE SMOOTH",
"27 114 OFFCURVE",
"143 -12 OFFCURVE",
"313 -12 CURVE SMOOTH"
);
},
{
closed = 1;
nodes = (
"264 246 OFFCURVE",
"248 278 OFFCURVE",
"248 327 CURVE SMOOTH",
"248 392 OFFCURVE",
"274 448 OFFCURVE",
"315 448 CURVE SMOOTH",
"342 448 OFFCURVE",
"357 417 OFFCURVE",
"357 368 CURVE SMOOTH",
"357 311 OFFCURVE",
"332 246 OFFCURVE",
"290 246 CURVE SMOOTH"
);
}
);
width = 616;
}
);
unicode = 0040;
},
{
glyphname = A;
lastChange = "2016-11-16 16:27:00 +0000";
layers = (
{
anchors = (
{
name = bottom;
position = "{308, 0}";
},
{
name = ogonek;
position = "{545, 10}";
},
{
name = top;
position = "{308, 730}";
}
);
background = {
paths = (
{
closed = 1;
nodes = (
"544 0 LINE",
"309 704 LINE",
"261 704 LINE",
"26 0 LINE",
"99 0 LINE",
"268 528 LINE SMOOTH",
"273 545 OFFCURVE",
"282 578 OFFCURVE",
"285 591 CURVE",
"288 578 OFFCURVE",
"296 545 OFFCURVE",
"302 528 CURVE SMOOTH",
"473 0 LINE"
);
},
{
closed = 1;
nodes = (
"115 181 LINE",
"454 181 LINE",
"431 243 LINE",
"137 243 LINE"
);
}
);
};
hints = (
{
horizontal = 1;
place = "{181, 62}";
},
{
horizontal = 1;
place = "{0, 21}";
target = up;
type = BottomGhost;
},
{
horizontal = 1;
place = "{704, -20}";
target = down;
type = TopGhost;
}
);
layerId = UUID0;
paths = (
{
closed = 1;
nodes = (
"122 0 LINE",
"288 523 LINE SMOOTH",
"293 538 OFFCURVE",
"304 573 OFFCURVE",
"307 586 CURVE",
"310 573 OFFCURVE",
"322 538 OFFCURVE",
"327 523 CURVE SMOOTH",
"496 0 LINE",
"567 0 LINE",
"334 700 LINE",
"280 700 LINE",
"49 0 LINE"
);
},
{
closed = 1;
nodes = (
"460 181 LINE",
"439 243 LINE",
"176 243 LINE",
"155 181 LINE"
);
}
);
width = 616;
},
{
anchors = (
{
name = bottom;
position = "{308, 0}";
},
{
name = ogonek;
position = "{605, 10}";
},
{
name = top;
position = "{308, 700}";
}
);
background = {
paths = (
{
closed = 1;
nodes = (
"642 0 LINE",
"374 700 LINE",
"242 700 LINE",
"-26 0 LINE",
"119 0 LINE",
"173 145 LINE",
"443 145 LINE",
"497 0 LINE"
);
},
{
closed = 1;
nodes = (
"217 268 LINE",
"286 450 LINE SMOOTH",
"293 467 OFFCURVE",
"303 493 OFFCURVE",
"308 513 CURVE",
"313 493 OFFCURVE",
"323 467 OFFCURVE",
"330 450 CURVE SMOOTH",
"399 268 LINE"
);
}
);
};
layerId = "C8970C82-1F9F-492B-A412-6BE281DD1303";
paths = (
{
closed = 1;
nodes = (
"161 0 LINE",
"292 452 LINE SMOOTH",
"297 469 OFFCURVE",
"303 505 OFFCURVE",
"308 535 CURVE",
"313 505 OFFCURVE",
"319 469 OFFCURVE",
"324 452 CURVE SMOOTH",
"455 0 LINE",
"602 0 LINE",
"374 700 LINE",
"242 700 LINE",
"14 0 LINE"
);
},
{
closed = 1;
nodes = (
"459 145 LINE",
"415 268 LINE",
"201 268 LINE",
"157 145 LINE"
);
}
);
width = 616;
}
);
unicode = 0041;
},
{
glyphname = B;
lastChange = "2016-11-16 16:27:00 +0000";
layers = (
{
background = {
paths = (
{
closed = 1;
nodes = (
"106 0 LINE",
"305 0 LINE SMOOTH",
"477 0 OFFCURVE",
"528 107 OFFCURVE",
"528 207 CURVE SMOOTH",
"528 309 OFFCURVE",
"469 368 OFFCURVE",
"393 388 CURVE",
"462 413 OFFCURVE",
"505 460 OFFCURVE",
"505 531 CURVE SMOOTH",
"505 617 OFFCURVE",
"455 704 OFFCURVE",
"291 704 CURVE SMOOTH",
"106 704 LINE"
);
},
{
closed = 1;
nodes = (
"176 63 LINE",
"176 352 LINE",
"284 352 LINE SMOOTH",
"427 352 OFFCURVE",
"463 278 OFFCURVE",
"463 199 CURVE SMOOTH",
"463 130 OFFCURVE",
"432 63 OFFCURVE",
"317 63 CURVE SMOOTH"
);
},
{
closed = 1;
nodes = (
"176 413 LINE",
"176 641 LINE",
"297 641 LINE SMOOTH",
"414 641 OFFCURVE",
"440 584 OFFCURVE",
"440 530 CURVE SMOOTH",
"440 459 OFFCURVE",
"385 413 OFFCURVE",
"272 413 CURVE SMOOTH"
);
}
);
};
hints = (
{
place = "{463, 65}";
},
{
place = "{440, 65}";
},
{
place = "{106, 70}";
},
{
horizontal = 1;
place = "{352, 61}";
},
{
horizontal = 1;
place = "{641, 63}";
},
{
horizontal = 1;
place = "{0, 63}";
}
);
layerId = UUID0;
paths = (
{
closed = 1;
nodes = (
"305 0 LINE SMOOTH",
"477 0 OFFCURVE",
"528 101 OFFCURVE",
"528 196 CURVE SMOOTH",
"528 292 OFFCURVE",
"469 350 OFFCURVE",
"393 369 CURVE",
"459 394 OFFCURVE",
"503 446 OFFCURVE",
"503 517 CURVE SMOOTH",
"503 608 OFFCURVE",
"453 700 OFFCURVE",
"289 700 CURVE SMOOTH",
"106 700 LINE",
"106 0 LINE"
);
},
{
closed = 1;
nodes = (
"176 333 LINE",
"284 333 LINE SMOOTH",
"427 333 OFFCURVE",
"463 264 OFFCURVE",
"463 190 CURVE SMOOTH",
"463 126 OFFCURVE",
"432 63 OFFCURVE",
"317 63 CURVE SMOOTH",
"176 63 LINE"
);
},
{
closed = 1;
nodes = (
"176 637 LINE",
"295 637 LINE SMOOTH",
"412 637 OFFCURVE",
"438 576 OFFCURVE",
"438 519 CURVE SMOOTH",
"438 443 OFFCURVE",
"382 394 OFFCURVE",
"272 394 CURVE SMOOTH",
"176 394 LINE"
);
}
);
width = 616;
},
{
background = {
paths = (
{
closed = 1;
nodes = (
"29 0 LINE",
"350 0 LINE SMOOTH",
"525 0 OFFCURVE",
"587 109 OFFCURVE",
"587 208 CURVE SMOOTH",
"587 269 OFFCURVE",
"557 340 OFFCURVE",
"478 369 CURVE",
"539 398 OFFCURVE",
"563 453 OFFCURVE",
"563 512 CURVE SMOOTH",
"563 607 OFFCURVE",
"507 700 OFFCURVE",
"336 700 CURVE SMOOTH",
"29 700 LINE"
);
},
{
closed = 1;
nodes = (
"164 126 LINE",
"164 299 LINE",
"329 299 LINE SMOOTH",
"428 299 OFFCURVE",
"450 253 OFFCURVE",
"450 208 CURVE SMOOTH",
"450 171 OFFCURVE",
"429 126 OFFCURVE",
"357 126 CURVE SMOOTH"
);
},
{
closed = 1;
nodes = (
"164 425 LINE",
"164 574 LINE",
"338 574 LINE SMOOTH",
"412 574 OFFCURVE",
"426 536 OFFCURVE",
"426 500 CURVE SMOOTH",
"426 455 OFFCURVE",
"392 425 OFFCURVE",
"320 425 CURVE SMOOTH"
);
}
);
};
layerId = "C8970C82-1F9F-492B-A412-6BE281DD1303";
paths = (
{
closed = 1;
nodes = (
"334 0 LINE SMOOTH",
"509 0 OFFCURVE",
"571 109 OFFCURVE",
"571 208 CURVE SMOOTH",
"571 269 OFFCURVE",
"541 340 OFFCURVE",
"462 369 CURVE",
"523 398 OFFCURVE",
"547 453 OFFCURVE",
"547 512 CURVE SMOOTH",
"547 607 OFFCURVE",
"491 700 OFFCURVE",
"320 700 CURVE SMOOTH",
"66 700 LINE",
"66 0 LINE"
);
},
{
closed = 1;
nodes = (
"201 299 LINE",
"313 299 LINE SMOOTH",
"412 299 OFFCURVE",
"434 253 OFFCURVE",
"434 208 CURVE SMOOTH",
"434 171 OFFCURVE",
"413 126 OFFCURVE",
"341 126 CURVE SMOOTH",
"201 126 LINE"
);
},
{
closed = 1;
nodes = (
"201 574 LINE",
"322 574 LINE SMOOTH",
"396 574 OFFCURVE",
"410 536 OFFCURVE",
"410 500 CURVE SMOOTH",
"410 455 OFFCURVE",
"376 425 OFFCURVE",
"304 425 CURVE SMOOTH",
"201 425 LINE"
);
}
);
width = 616;
}
);
unicode = 0042;
},
{
glyphname = C;
lastChange = "2016-11-16 16:27:00 +0000";
layers = (
{
anchors = (
{
name = bottom;
position = "{328, 0}";
},
{
name = top;
position = "{338, 704}";
}
);
background = {
paths = (
{
closed = 1;
nodes = (
"433 -12 OFFCURVE",
"498 52 OFFCURVE",
"527 116 CURVE",
"465 140 LINE",
"437 87 OFFCURVE",
"397 51 OFFCURVE",
"323 51 CURVE SMOOTH",
"205 51 OFFCURVE",
"156 196 OFFCURVE",
"156 350 CURVE SMOOTH",
"156 489 OFFCURVE",
"200 653 OFFCURVE",
"323 653 CURVE SMOOTH",
"393 653 OFFCURVE",
"428 608 OFFCURVE",
"455 563 CURVE",
"517 599 LINE",
"485 656 OFFCURVE",
"437 715 OFFCURVE",
"323 715 CURVE SMOOTH",
"156 715 OFFCURVE",
"83 541 OFFCURVE",
"83 350 CURVE SMOOTH",
"83 167 OFFCURVE",
"151 -12 OFFCURVE",
"323 -12 CURVE SMOOTH"
);
}
);
};
hints = (
{
place = "{83, 73}";
},
{
horizontal = 1;
place = "{-12, 63}";
},
{
horizontal = 1;
place = "{653, 62}";
}
);
layerId = UUID0;
paths = (
{
closed = 1;
nodes = (
"441 -12 OFFCURVE",
"501 52 OFFCURVE",
"528 116 CURVE",
"466 140 LINE",
"441 87 OFFCURVE",
"405 51 OFFCURVE",
"339 51 CURVE SMOOTH",
"210 51 OFFCURVE",
"156 196 OFFCURVE",
"156 350 CURVE SMOOTH",
"156 489 OFFCURVE",
"204 649 OFFCURVE",
"339 649 CURVE SMOOTH",
"401 649 OFFCURVE",
"432 608 OFFCURVE",
"456 563 CURVE",
"518 599 LINE",
"489 656 OFFCURVE",
"444 712 OFFCURVE",
"339 712 CURVE SMOOTH",
"161 712 OFFCURVE",
"83 541 OFFCURVE",
"83 350 CURVE SMOOTH",
"83 167 OFFCURVE",
"155 -12 OFFCURVE",
"339 -12 CURVE SMOOTH"
);
}
);
width = 616;
},
{
anchors = (
{
name = bottom;
position = "{319, 0}";
},
{
name = top;
position = "{312, 700}";
}
);
background = {
paths = (
{
closed = 1;
nodes = (
"456 -11 OFFCURVE",
"534 60 OFFCURVE",
"580 162 CURVE",
"456 209 LINE",
"424 156 OFFCURVE",
"386 119 OFFCURVE",
"329 119 CURVE SMOOTH",
"221 119 OFFCURVE",
"175 242 OFFCURVE",
"175 350 CURVE SMOOTH",
"175 453 OFFCURVE",
"212 581 OFFCURVE",
"329 581 CURVE SMOOTH",
"390 581 OFFCURVE",
"423 551 OFFCURVE",
"458 498 CURVE",
"579 553 LINE",
"547 632 OFFCURVE",
"463 711 OFFCURVE",
"329 711 CURVE SMOOTH",
"112 711 OFFCURVE",
"35 510 OFFCURVE",
"35 350 CURVE SMOOTH",
"35 177 OFFCURVE",
"110 -11 OFFCURVE",
"329 -11 CURVE SMOOTH"
);
}
);
};
layerId = "C8970C82-1F9F-492B-A412-6BE281DD1303";
paths = (
{
closed = 1;
nodes = (
"430 -11 OFFCURVE",
"502 60 OFFCURVE",
"544 162 CURVE",
"420 209 LINE",
"395 156 OFFCURVE",
"363 119 OFFCURVE",
"313 119 CURVE SMOOTH",
"215 119 OFFCURVE",
"169 242 OFFCURVE",
"169 350 CURVE SMOOTH",
"169 453 OFFCURVE",
"206 581 OFFCURVE",
"313 581 CURVE SMOOTH",
"365 581 OFFCURVE",
"394 552 OFFCURVE",
"422 498 CURVE",
"543 553 LINE",
"514 632 OFFCURVE",
"436 711 OFFCURVE",
"313 711 CURVE SMOOTH",
"106 711 OFFCURVE",
"29 510 OFFCURVE",
"29 350 CURVE SMOOTH",
"29 177 OFFCURVE",
"104 -11 OFFCURVE",
"313 -11 CURVE SMOOTH"
);
}
);
width = 616;
}
);
unicode = 0043;
},
{
glyphname = D;
lastChange = "2016-11-16 16:27:00 +0000";
layers = (
{
anchors = (
{
name = bottom;
position = "{308, 0}";
},
{
name = center;
position = "{308, 350}";
},
{
name = top;
position = "{308, 700}";
}
);
background = {
paths = (
{
closed = 1;
nodes = (
"106 704 LINE",
"265 704 LINE SMOOTH",
"476 704 OFFCURVE",
"534 516 OFFCURVE",
"534 352 CURVE SMOOTH",
"534 176 OFFCURVE",
"467 0 OFFCURVE",
"269 0 CURVE SMOOTH",
"106 0 LINE"
);
},
{
closed = 1;
nodes = (
"176 641 LINE",
"176 63 LINE",
"281 63 LINE SMOOTH",
"410 63 OFFCURVE",
"461 204 OFFCURVE",
"461 352 CURVE SMOOTH",
"461 491 OFFCURVE",
"418 641 OFFCURVE",
"270 641 CURVE SMOOTH"
);
}
);
};
hints = (
{
place = "{106, 70}";
},
{
place = "{461, 73}";
},
{
horizontal = 1;
place = "{704, -63}";
},
{
horizontal = 1;
place = "{63, -63}";
}
);
layerId = UUID0;
paths = (
{
closed = 1;
nodes = (
"260 0 LINE SMOOTH",
"474 0 OFFCURVE",
"533 189 OFFCURVE",
"533 350 CURVE SMOOTH",
"533 523 OFFCURVE",
"465 700 OFFCURVE",
"264 700 CURVE SMOOTH",
"105 700 LINE",
"105 0 LINE"
);
},
{
closed = 1;
nodes = (
"175 637 LINE",
"270 637 LINE SMOOTH",
"408 637 OFFCURVE",
"460 495 OFFCURVE",
"460 350 CURVE SMOOTH",
"460 214 OFFCURVE",
"416 63 OFFCURVE",
"259 63 CURVE SMOOTH",
"175 63 LINE"
);
}
);
width = 616;
},
{
anchors = (
{
name = bottom;
position = "{308, 0}";
},
{
name = center;
position = "{308, 350}";
},
{
name = top;
position = "{308, 700}";
}
);
background = {
paths = (
{
closed = 1;
nodes = (
"20 0 LINE",
"252 0 LINE SMOOTH",
"509 0 OFFCURVE",
"595 190 OFFCURVE",
"595 350 CURVE SMOOTH",
"595 524 OFFCURVE",
"501 700 OFFCURVE",
"256 700 CURVE SMOOTH",
"20 700 LINE"
);
},
{
closed = 1;
nodes = (
"155 128 LINE",
"155 572 LINE",
"279 572 LINE SMOOTH",
"402 572 OFFCURVE",
"455 459 OFFCURVE",
"455 350 CURVE SMOOTH",
"455 247 OFFCURVE",
"406 128 OFFCURVE",
"268 128 CURVE SMOOTH"
);
}
);
};
layerId = "C8970C82-1F9F-492B-A412-6BE281DD1303";
paths = (
{
closed = 1;
nodes = (
"244 0 LINE SMOOTH",
"501 0 OFFCURVE",
"587 190 OFFCURVE",
"587 350 CURVE SMOOTH",
"587 524 OFFCURVE",
"493 700 OFFCURVE",
"248 700 CURVE SMOOTH",
"66 700 LINE",
"66 0 LINE"
);
},
{
closed = 1;
nodes = (
"201 572 LINE",
"271 572 LINE SMOOTH",
"394 572 OFFCURVE",
"447 459 OFFCURVE",
"447 350 CURVE SMOOTH",
"447 247 OFFCURVE",
"398 128 OFFCURVE",
"260 128 CURVE SMOOTH",
"201 128 LINE"
);
}
);
width = 616;
}
);
unicode = 0044;
},
{
glyphname = E;
lastChange = "2016-11-16 16:27:00 +0000";
layers = (
{
anchors = (
{
name = bottom;
position = "{308, 0}";
},
{
name = ogonek;
position = "{493, 10}";
},
{
name = top;
position = "{308, 700}";
},
{
name = topleft;
position = "{78, 700}";
}
);
background = {
paths = (
{
closed = 1;
nodes = (
"518 0 LINE",
"518 67 LINE",
"176 67 LINE",
"176 352 LINE",
"430 352 LINE",
"430 418 LINE",
"176 418 LINE",
"176 637 LINE",
"506 637 LINE",
"506 704 LINE",
"106 704 LINE",
"106 0 LINE"
);
}
);
};
hints = (
{
place = "{106, 70}";
},
{
horizontal = 1;
place = "{0, 67}";
},
{
horizontal = 1;
place = "{352, 66}";
},
{
horizontal = 1;
place = "{637, 67}";
}
);
layerId = UUID0;
paths = (
{
closed = 1;
nodes = (
"518 0 LINE",
"518 67 LINE",
"176 67 LINE",
"176 329 LINE",
"399 329 LINE",
"399 395 LINE",
"176 395 LINE",
"176 633 LINE",
"496 633 LINE",
"496 700 LINE",
"106 700 LINE",
"106 0 LINE"
);
}
);
width = 616;
},
{
anchors = (
{
name = bottom;
position = "{308, 0}";
},
{
name = ogonek;
position = "{554, 10}";
},
{
name = top;
position = "{308, 700}";
},
{
name = topleft;
position = "{20, 700}";
}
);
background = {
paths = (
{
closed = 1;
nodes = (
"557 0 LINE",
"557 128 LINE",
"193 128 LINE",
"193 297 LINE",
"395 297 LINE",
"395 425 LINE",
"193 425 LINE",
"193 572 LINE",
"536 572 LINE",
"536 700 LINE",
"58 700 LINE",
"58 0 LINE"
);
}
);
};
layerId = "C8970C82-1F9F-492B-A412-6BE281DD1303";
paths = (
{
closed = 1;
nodes = (
"555 0 LINE",
"555 128 LINE",
"201 128 LINE",
"201 297 LINE",
"413 297 LINE",
"413 425 LINE",
"201 425 LINE",
"201 572 LINE",
"534 572 LINE",
"534 700 LINE",
"66 700 LINE",
"66 0 LINE"
);
}
);
width = 616;
}
);
unicode = 0045;
},
{
glyphname = F;
lastChange = "2016-11-16 16:27:00 +0000";
layers = (
{
background = {
paths = (
{
closed = 1;
nodes = (
"176 0 LINE",
"176 352 LINE",
"418 352 LINE",
"418 418 LINE",
"176 418 LINE",
"176 637 LINE",
"528 637 LINE",
"528 704 LINE",
"106 704 LINE",
"106 0 LINE"
);
}
);
};
hints = (
{
place = "{106, 70}";
},
{
horizontal = 1;
place = "{352, 66}";
},
{
horizontal = 1;
place = "{637, 67}";
},
{
horizontal = 1;
place = "{0, 21}";
target = up;
type = BottomGhost;
}
);
layerId = UUID0;
paths = (
{
closed = 1;
nodes = (
"176 0 LINE",
"176 329 LINE",
"418 329 LINE",
"418 395 LINE",
"176 395 LINE",
"176 633 LINE",
"528 633 LINE",
"528 700 LINE",
"106 700 LINE",
"106 0 LINE"
);
}
);
width = 616;
},
{
background = {
paths = (
{
closed = 1;
nodes = (
"208 0 LINE",
"208 297 LINE",
"420 297 LINE",
"420 425 LINE",
"208 425 LINE",
"208 572 LINE",
"542 572 LINE",
"542 700 LINE",
"73 700 LINE",
"73 0 LINE"
);
}
);
};
layerId = "C8970C82-1F9F-492B-A412-6BE281DD1303";
paths = (
{
closed = 1;
nodes = (
"201 0 LINE",
"201 297 LINE",
"463 297 LINE",
"463 425 LINE",
"201 425 LINE",
"201 572 LINE",
"555 572 LINE",
"555 700 LINE",
"66 700 LINE",
"66 0 LINE"
);
}
);
width = 616;
}
);
unicode = 0046;
},
{
glyphname = G;
lastChange = "2016-11-16 16:27:00 +0000";
layers = (
{
anchors = (
{
name = bottom;
position = "{372, -30}";
},
{
name = top;
position = "{372, 730}";
}
);
background = {
paths = (
{
closed = 1;
nodes = (
"444 -12 OFFCURVE",
"533 77 OFFCURVE",
"533 252 CURVE SMOOTH",
"533 333 LINE",
"330 333 LINE",
"330 271 LINE",
"459 271 LINE",
"459 225 LINE SMOOTH",
"459 116 OFFCURVE",
"408 51 OFFCURVE",
"328 51 CURVE SMOOTH",
"207 51 OFFCURVE",
"156 195 OFFCURVE",
"156 352 CURVE SMOOTH",
"156 494 OFFCURVE",
"201 653 OFFCURVE",
"326 653 CURVE SMOOTH",
"389 653 OFFCURVE",
"421 612 OFFCURVE",
"445 567 CURVE",
"507 603 LINE",
"477 660 OFFCURVE",
"433 716 OFFCURVE",
"327 716 CURVE SMOOTH",
"157 716 OFFCURVE",
"83 546 OFFCURVE",
"83 352 CURVE SMOOTH",
"83 166 OFFCURVE",
"153 -12 OFFCURVE",
"329 -12 CURVE SMOOTH"
);
}
);
};
hints = (
{
place = "{83, 73}";
},
{
place = "{459, 74}";
},
{
horizontal = 1;
place = "{-12, 63}";
},
{
horizontal = 1;
place = "{271, 0}";
},
{
horizontal = 1;
place = "{653, 63}";
}
);
layerId = UUID0;
paths = (
{
closed = 1;
nodes = (
"444 -12 OFFCURVE",
"536 80 OFFCURVE",
"536 252 CURVE SMOOTH",
"536 329 LINE",
"333 329 LINE",
"333 267 LINE",
"462 267 LINE",
"462 225 LINE SMOOTH",
"462 119 OFFCURVE",
"410 51 OFFCURVE",
"326 51 CURVE SMOOTH",
"208 51 OFFCURVE",
"159 196 OFFCURVE",
"159 350 CURVE SMOOTH",
"159 489 OFFCURVE",
"203 649 OFFCURVE",
"326 649 CURVE SMOOTH",
"391 649 OFFCURVE",
"423 608 OFFCURVE",
"448 563 CURVE",
"510 599 LINE",
"480 656 OFFCURVE",
"434 712 OFFCURVE",
"326 712 CURVE SMOOTH",
"159 712 OFFCURVE",
"86 541 OFFCURVE",
"86 350 CURVE SMOOTH",
"86 167 OFFCURVE",
"154 -12 OFFCURVE",
"326 -12 CURVE SMOOTH"
);
}
);
width = 616;
},
{
anchors = (
{
name = bottom;
position = "{312, 0}";
},
{
name = top;
position = "{317, 700}";
}
);
background = {
paths = (
{
closed = 1;
nodes = (
"479 -12 OFFCURVE",
"592 85 OFFCURVE",
"592 264 CURVE SMOOTH",
"592 367 LINE",
"335 367 LINE",
"335 239 LINE",
"454 239 LINE",
"454 233 LINE SMOOTH",
"454 169 OFFCURVE",
"400 118 OFFCURVE",
"332 118 CURVE SMOOTH",
"212 118 OFFCURVE",
"164 232 OFFCURVE",
"164 350 CURVE SMOOTH",
"164 452 OFFCURVE",
"203 582 OFFCURVE",
"332 582 CURVE SMOOTH",
"393 582 OFFCURVE",
"433 541 OFFCURVE",
"464 494 CURVE",
"583 562 LINE",
"535 639 OFFCURVE",
"468 712 OFFCURVE",
"332 712 CURVE SMOOTH",
"121 712 OFFCURVE",
"24 520 OFFCURVE",
"24 350 CURVE SMOOTH",
"24 167 OFFCURVE",
"116 -12 OFFCURVE",
"332 -12 CURVE SMOOTH"
);
}
);
};
layerId = "C8970C82-1F9F-492B-A412-6BE281DD1303";
paths = (
{
closed = 1;
nodes = (
"453 -12 OFFCURVE",
"557 85 OFFCURVE",
"557 264 CURVE SMOOTH",
"557 367 LINE",
"300 367 LINE",
"300 239 LINE",
"419 239 LINE",
"419 233 LINE SMOOTH",
"419 169 OFFCURVE",
"387 118 OFFCURVE",
"317 118 CURVE SMOOTH",
"217 118 OFFCURVE",
"169 232 OFFCURVE",
"169 350 CURVE SMOOTH",
"169 452 OFFCURVE",
"208 582 OFFCURVE",
"317 582 CURVE SMOOTH",
"366 582 OFFCURVE",
"399 541 OFFCURVE",
"424 494 CURVE",
"543 562 LINE",
"500 639 OFFCURVE",
"439 712 OFFCURVE",
"317 712 CURVE SMOOTH",
"126 712 OFFCURVE",
"29 520 OFFCURVE",
"29 350 CURVE SMOOTH",
"29 167 OFFCURVE",
"121 -12 OFFCURVE",
"317 -12 CURVE SMOOTH"
);
}
);
width = 616;
}
);
unicode = 0047;
},
{
glyphname = H;
lastChange = "2016-11-16 16:27:00 +0000";
layers = (
{
anchors = (
{
name = bottom;
position = "{308, 0}";
},
{
name = center;
position = "{308, 350}";
},
{
name = top;
position = "{308, 730}";
},
{
name = topleft;
position = "{20, 700}";
}
);
background = {
paths = (
{
closed = 1;
nodes = (
"510 0 LINE",
"510 704 LINE",
"440 704 LINE",
"440 418 LINE",
"176 418 LINE",
"176 704 LINE",
"106 704 LINE",
"106 0 LINE",
"176 0 LINE",
"176 352 LINE",
"440 352 LINE",
"440 0 LINE"
);
}
);
};
hints = (
{
place = "{106, 70}";
},
{
place = "{440, 70}";
},
{
horizontal = 1;
place = "{352, 66}";
},
{
horizontal = 1;
place = "{704, -20}";
target = down;
type = TopGhost;
},
{
horizontal = 1;
place = "{0, 21}";
target = up;
type = BottomGhost;
}
);
layerId = UUID0;
paths = (
{
closed = 1;
nodes = (
"176 0 LINE",
"176 331 LINE",
"440 331 LINE",
"440 0 LINE",
"510 0 LINE",
"510 700 LINE",
"440 700 LINE",
"440 397 LINE",
"176 397 LINE",
"176 700 LINE",
"106 700 LINE",
"106 0 LINE"
);
}
);
width = 616;
},
{
anchors = (
{
name = bottom;
position = "{308, 0}";
},
{
name = center;
position = "{308, 350}";
},
{
name = top;
position = "{308, 700}";
},
{
name = topleft;
position = "{20, 700}";
}
);
background = {
paths = (
{
closed = 1;
nodes = (
"589 0 LINE",
"589 700 LINE",
"454 700 LINE",
"454 424 LINE",
"161 424 LINE",
"161 700 LINE",
"26 700 LINE",
"26 0 LINE",
"161 0 LINE",
"161 296 LINE",
"454 296 LINE",
"454 0 LINE"
);
}
);
};
layerId = "C8970C82-1F9F-492B-A412-6BE281DD1303";
paths = (
{
closed = 1;
nodes = (
"201 0 LINE",
"201 296 LINE",
"415 296 LINE",
"415 0 LINE",
"550 0 LINE",
"550 700 LINE",
"415 700 LINE",
"415 424 LINE",
"201 424 LINE",
"201 700 LINE",
"66 700 LINE",
"66 0 LINE"
);
}
);
width = 616;
}
);
unicode = 0048;
},
{
glyphname = I;
lastChange = "2016-11-16 16:27:00 +0000";
layers = (
{
anchors = (
{
name = bottom;
position = "{308, 0}";
},
{
name = ogonek;
position = "{554, 10}";
},
{
name = top;
position = "{370, 730}";
},
{
name = topleft;
position = "{20, 700}";
}
);
background = {
paths = (
{
closed = 1;
nodes = (
"175 0 LINE",
"175 700 LINE",
"105 700 LINE",
"105 0 LINE"
);
}
);
};
hints = (
{
origin = "{0, 2}";
target = "{0, 1}";
},
{
horizontal = 1;
origin = "{1, 0}";
target = "{1, 1}";
},
{
horizontal = 1;
origin = "{2, 0}";
target = "{2, 1}";
}
);
layerId = UUID0;
paths = (
{
closed = 1;
nodes = (
"343 0 LINE",
"343 700 LINE",
"273 700 LINE",
"273 0 LINE"
);
},
{
closed = 1;
nodes = (
"510 0 LINE",
"510 66 LINE",
"106 66 LINE",
"106 0 LINE"
);
},
{
closed = 1;
nodes = (
"510 634 LINE",
"510 700 LINE",
"106 700 LINE",
"106 634 LINE"
);
}
);
width = 616;
},
{
anchors = (
{
name = bottom;
position = "{308, 0}";
},
{
name = ogonek;
position = "{554, 10}";
},
{
name = top;
position = "{308, 700}";
},
{
name = topleft;
position = "{20, 700}";
}
);
background = {
paths = (
{
closed = 1;
nodes = (
"375 0 LINE",
"375 700 LINE",
"240 700 LINE",
"240 0 LINE"
);
}
);
};
layerId = "C8970C82-1F9F-492B-A412-6BE281DD1303";
paths = (
{
closed = 1;
nodes = (
"375 0 LINE",
"375 700 LINE",
"240 700 LINE",
"240 0 LINE"
);
},
{
closed = 1;
nodes = (
"515 0 LINE",
"515 118 LINE",
"101 118 LINE",
"101 0 LINE"
);
},
{
closed = 1;
nodes = (
"515 582 LINE",
"515 700 LINE",
"101 700 LINE",
"101 582 LINE"
);
}
);
width = 616;
}
);
unicode = 0049;
},
{
glyphname = J;
lastChange = "2016-11-16 16:27:00 +0000";
layers = (
{
anchors = (
{
name = bottom;
position = "{292, 0}";
},
{
name = top;
position = "{469, 700}";
}
);
background = {
paths = (
{
closed = 1;
nodes = (
"303 -12 OFFCURVE",
"421 34 OFFCURVE",
"421 225 CURVE SMOOTH",
"421 700 LINE",
"351 700 LINE",
"351 204 LINE SMOOTH",
"351 82 OFFCURVE",
"280 51 OFFCURVE",
"215 51 CURVE SMOOTH",
"131 51 OFFCURVE",
"114 82 OFFCURVE",
"85 137 CURVE",
"30 107 LINE",
"61 33 OFFCURVE",
"111 -12 OFFCURVE",
"212 -12 CURVE SMOOTH"
);
}
);
};
hints = (
{
origin = "{0, 5}";
target = "{0, 4}";
},
{
horizontal = 1;
origin = "{0, 0}";
target = "{0, 9}";
},
{
horizontal = 1;
origin = "{0, 4}";
target = down;
type = TopGhost;
}
);
layerId = UUID0;
paths = (
{
closed = 1;
nodes = (
"383 -12 OFFCURVE",
"503 31 OFFCURVE",
"503 222 CURVE SMOOTH",
"503 700 LINE",
"433 700 LINE",
"433 210 LINE SMOOTH",
"433 88 OFFCURVE",
"360 51 OFFCURVE",
"292 51 CURVE SMOOTH",
"206 51 OFFCURVE",
"183 82 OFFCURVE",
"157 137 CURVE",
"102 107 LINE",
"131 33 OFFCURVE",
"186 -12 OFFCURVE",
"291 -12 CURVE SMOOTH"
);
}
);
width = 616;
},
{
anchors = (
{
name = bottom;
position = "{308, 0}";
},
{
name = top;
position = "{483, 700}";
}
);
background = {
paths = (
{
closed = 1;
nodes = (
"413 -12 OFFCURVE",
"545 43 OFFCURVE",
"545 243 CURVE SMOOTH",
"545 700 LINE",
"410 700 LINE",
"410 255 LINE SMOOTH",
"410 143 OFFCURVE",
"359 118 OFFCURVE",
"305 118 CURVE SMOOTH",
"253 118 OFFCURVE",
"215 146 OFFCURVE",
"188 197 CURVE",
"70 142 LINE",
"115 44 OFFCURVE",
"205 -12 OFFCURVE",
"305 -12 CURVE SMOOTH"
);
}
);
};
layerId = "C8970C82-1F9F-492B-A412-6BE281DD1303";
paths = (
{
closed = 1;
nodes = (
"418 -12 OFFCURVE",
"550 43 OFFCURVE",
"550 243 CURVE SMOOTH",
"550 700 LINE",
"415 700 LINE",
"415 255 LINE SMOOTH",
"415 143 OFFCURVE",
"364 118 OFFCURVE",
"310 118 CURVE SMOOTH",
"258 118 OFFCURVE",
"220 146 OFFCURVE",
"193 197 CURVE",
"75 142 LINE",
"120 44 OFFCURVE",
"210 -12 OFFCURVE",
"310 -12 CURVE SMOOTH"
);
}
);
width = 616;
}
);
unicode = 004A;
},
{
glyphname = K;
lastChange = "2016-11-16 16:27:00 +0000";
layers = (
{
anchors = (
{
name = bottom;
position = "{313, 0}";
},
{
name = top;
position = "{290, 700}";
}
);
background = {
paths = (
{
closed = 1;
nodes = (
"180 700 LINE",
"110 700 LINE",
"110 0 LINE",
"180 0 LINE"
);
},
{
closed = 1;
nodes = (
"286 417 LINE",
"514 0 LINE",
"593 0 LINE",
"334 476 LINE"
);
},
{
closed = 1;
nodes = (
"170 249 LINE",
"533 700 LINE",
"457 700 LINE",
"170 339 LINE"
);
}
);
};
hints = (
{
origin = "{1, 3}";
target = "{1, 2}";
},
{
horizontal = 1;
origin = "{1, 1}";
target = up;
type = BottomGhost;
},
{
horizontal = 1;
origin = "{1, 3}";
target = down;
type = TopGhost;
}
);
layerId = UUID0;
paths = (
{
closed = 1;
nodes = (
"501 700 LINE",
"423 700 LINE",
"136 329 LINE",
"138 239 LINE"
);
},
{
closed = 1;
nodes = (
"176 0 LINE",
"176 700 LINE",
"106 700 LINE",
"106 0 LINE"
);
},
{
closed = 1;
nodes = (
"549 0 LINE",
"300 476 LINE",
"252 417 LINE",
"470 0 LINE"
);
}
);
width = 616;
},
{
anchors = (
{
name = bottom;
position = "{308, 0}";
},
{
name = top;
position = "{293, 700}";
}
);
background = {
paths = (
{
closed = 1;
nodes = (
"141 700 LINE",
"6 700 LINE",
"6 0 LINE",
"141 0 LINE"
);
},
{
closed = 1;
nodes = (
"263 349 LINE",
"451 0 LINE",
"609 0 LINE",
"354 463 LINE"
);
},
{
closed = 1;
nodes = (
"566 700 LINE",
"406 700 LINE",
"131 353 LINE",
"131 163 LINE"
);
}
);
};
layerId = "C8970C82-1F9F-492B-A412-6BE281DD1303";
paths = (
{
closed = 1;
nodes = (
"556 700 LINE",
"396 700 LINE",
"121 353 LINE",
"121 163 LINE"
);
},
{
closed = 1;
nodes = (
"201 0 LINE",
"201 700 LINE",
"66 700 LINE",
"66 0 LINE"
);
},
{
closed = 1;
nodes = (
"599 0 LINE",
"344 463 LINE",
"253 349 LINE",
"441 0 LINE"
);
}
);
width = 616;
}
);
unicode = 004B;
},
{
glyphname = L;
lastChange = "2016-11-16 16:27:00 +0000";
layers = (
{
anchors = (
{
name = bottom;
position = "{338, -30}";
},
{
name = center;
position = "{308, 350}";
},
{
name = top;
position = "{205, 730}";
},
{
name = topright;
position = "{596, 700}";
}
);
background = {
paths = (
{
closed = 1;
nodes = (
"522 0 LINE",
"522 67 LINE",
"175 67 LINE",
"175 700 LINE",
"105 700 LINE",
"105 0 LINE"
);
}
);
};
hints = (
{
origin = "{0, 4}";
target = "{0, 3}";
},
{
horizontal = 1;
origin = "{0, 0}";
target = "{0, 1}";
},
{
horizontal = 1;
origin = "{0, 3}";
target = down;
type = TopGhost;
}
);
layerId = UUID0;
paths = (
{
closed = 1;
nodes = (
"514 0 LINE",
"514 67 LINE",
"176 67 LINE",
"176 700 LINE",
"106 700 LINE",
"106 0 LINE"
);
}
);
width = 616;
},
{
anchors = (
{
name = bottom;
position = "{265, 0}";
},
{
name = center;
position = "{265, 350}";
},
{
name = top;
position = "{265, 700}";
},
{
name = topright;
position = "{534, 700}";
}
);
background = {
paths = (
{
closed = 1;
nodes = (
"544 0 LINE",
"544 130 LINE",
"206 130 LINE",
"206 700 LINE",
"71 700 LINE",
"71 0 LINE"
);
}
);
};
layerId = "C8970C82-1F9F-492B-A412-6BE281DD1303";
paths = (
{
closed = 1;
nodes = (
"519 0 LINE",
"519 130 LINE",
"201 130 LINE",
"201 700 LINE",
"66 700 LINE",
"66 0 LINE"
);
}
);
width = 616;
}
);
unicode = 004C;
},
{
glyphname = M;
lastChange = "2016-11-16 16:27:00 +0000";
layers = (
{
anchors = (
{
name = bottom;
position = "{308, 0}";
},
{
name = top;
position = "{308, 700}";
}
);
background = {
paths = (
{
closed = 1;
nodes = (
"429 704 LINE",
"322 265 LINE SMOOTH",
"314 233 OFFCURVE",
"310 222 OFFCURVE",
"308 201 CURVE",
"305 222 OFFCURVE",
"302 233 OFFCURVE",
"294 265 CURVE SMOOTH",
"187 704 LINE",
"106 704 LINE",
"106 0 LINE",
"173 0 LINE",
"173 469 LINE SMOOTH",
"173 483 OFFCURVE",
"174 510 OFFCURVE",
"171 535 CURVE",
"184 469 LINE",
"300 0 LINE",
"316 0 LINE",
"432 469 LINE",
"445 535 LINE",
"442 510 OFFCURVE",
"443 483 OFFCURVE",
"443 469 CURVE SMOOTH",
"443 0 LINE",
"510 0 LINE",
"510 704 LINE"
);
}
);
};
hints = (
{
place = "{106, 70}";
},
{
place = "{440, 70}";
},
{
horizontal = 1;
place = "{0, 21}";
target = up;
type = BottomGhost;
},
{
horizontal = 1;
place = "{704, -20}";
target = down;
type = TopGhost;
}
);
layerId = UUID0;
paths = (
{
closed = 1;
nodes = (
"173 0 LINE",
"173 469 LINE SMOOTH",
"173 483 OFFCURVE",
"172 510 OFFCURVE",
"171 535 CURVE",
"175 511 OFFCURVE",
"179 490 OFFCURVE",
"184 469 CURVE SMOOTH",
"300 0 LINE",
"316 0 LINE",
"432 469 LINE SMOOTH",
"437 490 OFFCURVE",
"441 511 OFFCURVE",
"445 535 CURVE",
"443 510 OFFCURVE",
"443 483 OFFCURVE",
"443 469 CURVE SMOOTH",
"443 0 LINE",
"510 0 LINE",
"510 700 LINE",
"429 700 LINE",
"322 263 LINE SMOOTH",
"313 226 OFFCURVE",
"310 213 OFFCURVE",
"308 189 CURVE",
"305 213 OFFCURVE",
"303 226 OFFCURVE",
"294 263 CURVE SMOOTH",
"187 700 LINE",
"106 700 LINE",
"106 0 LINE"
);
}
);
width = 616;
},
{
associatedMasterId = UUID0;
background = {
paths = (
{
closed = 1;
nodes = (
"143 704 LINE",
"106 704 LINE",
"106 0 LINE",
"176 0 LINE",
"176 588 LINE"
);
},
{
closed = 1;
nodes = (
"440 588 LINE",
"440 0 LINE",
"510 0 LINE",
"510 704 LINE",
"473 704 LINE"
);
},
{
closed = 1;
nodes = (
"493 704 LINE",
"427 704 LINE",
"308 244 LINE",
"189 704 LINE",
"123 704 LINE",
"308 -12 LINE"
);
}
);
};
hints = (
{
place = "{106, 70}";
},
{
place = "{440, 70}";
},
{
horizontal = 1;
place = "{0, 21}";
target = up;
type = BottomGhost;
},
{
horizontal = 1;
place = "{704, -20}";
target = down;
type = TopGhost;
}
);
layerId = "DB1433BB-E788-469C-AB9B-09951522E5B2";
name = "Regular Jan 18 16, 12:23";
paths = (
{
closed = 1;
nodes = (
"450 588 LINE",
"450 588 OFFCURVE",
"440 498 OFFCURVE",
"440 469 CURVE SMOOTH",
"440 0 LINE",
"510 0 LINE",
"510 704 LINE",
"473 704 LINE"
);
},
{
closed = 1;
nodes = (
"316 0 LINE",
"432 469 LINE SMOOTH",
"439 498 OFFCURVE",
"474 704 OFFCURVE",
"474 704 CURVE",
"427 704 LINE",
"320 268 LINE SMOOTH",
"312 236 OFFCURVE",
"310 225 OFFCURVE",
"308 204 CURVE",
"305 225 OFFCURVE",
"304 236 OFFCURVE",
"296 268 CURVE SMOOTH",
"189 704 LINE",
"142 704 LINE",
"142 704 OFFCURVE",
"177 498 OFFCURVE",
"184 469 CURVE SMOOTH",
"300 0 LINE"
);
},
{
closed = 1;
nodes = (
"143 704 LINE",
"106 704 LINE",
"106 0 LINE",
"176 0 LINE",
"176 469 LINE SMOOTH",
"176 498 OFFCURVE",
"166 588 OFFCURVE",
"166 588 CURVE"
);
}
);
width = 616;
},
{
anchors = (
{
name = bottom;
position = "{308, 0}";
},
{
name = top;
position = "{308, 700}";
}
);
background = {
paths = (
{
closed = 1;
nodes = (
"181 0 LINE",
"181 350 LINE SMOOTH",
"181 365 OFFCURVE",
"180 395 OFFCURVE",
"179 405 CURVE",
"187 386 OFFCURVE",
"194 369 OFFCURVE",
"200 350 CURVE SMOOTH",
"308 -12 LINE",
"416 350 LINE SMOOTH",
"422 369 OFFCURVE",
"429 386 OFFCURVE",
"437 405 CURVE",
"435 395 OFFCURVE",
"435 365 OFFCURVE",
"435 350 CURVE SMOOTH",
"435 0 LINE",
"550 0 LINE",
"550 700 LINE",
"431 700 LINE",
"328 334 LINE SMOOTH",
"321 317 OFFCURVE",
"313 282 OFFCURVE",
"310 266 CURVE",
"307 282 OFFCURVE",
"297 317 OFFCURVE",
"292 334 CURVE SMOOTH",
"193 700 LINE",
"66 700 LINE",
"66 0 LINE"
);
}
);
};
layerId = "C8970C82-1F9F-492B-A412-6BE281DD1303";
paths = (
{
closed = 1;
nodes = (
"181 0 LINE",
"181 350 LINE SMOOTH",
"181 365 OFFCURVE",
"180 395 OFFCURVE",
"179 405 CURVE",
"187 386 OFFCURVE",
"194 369 OFFCURVE",
"200 350 CURVE SMOOTH",
"304 0 LINE",
"312 0 LINE",
"416 350 LINE SMOOTH",
"422 369 OFFCURVE",
"429 386 OFFCURVE",
"437 405 CURVE",
"435 395 OFFCURVE",
"435 365 OFFCURVE",
"435 350 CURVE SMOOTH",
"435 0 LINE",
"550 0 LINE",
"550 700 LINE",
"431 700 LINE",
"328 334 LINE SMOOTH",
"321 317 OFFCURVE",
"313 282 OFFCURVE",
"310 266 CURVE",
"307 282 OFFCURVE",
"297 317 OFFCURVE",
"292 334 CURVE SMOOTH",
"193 700 LINE",
"66 700 LINE",
"66 0 LINE"
);
}
);
width = 616;
}
);
unicode = 004D;
},
{
glyphname = N;
lastChange = "2016-11-16 16:27:00 +0000";
layers = (
{
anchors = (
{
name = bottom;
position = "{308, -30}";
},
{
name = top;
position = "{308, 700}";
}
);
background = {
paths = (
{
closed = 1;
nodes = (
"176 0 LINE",
"176 539 LINE",
"439 0 LINE",
"510 0 LINE",
"510 700 LINE",
"440 700 LINE",
"440 153 LINE",
"177 700 LINE",
"106 700 LINE",
"106 0 LINE"
);
}
);
};
hints = (
{
origin = "{0, 20}";
target = "{0, 4}";
},
{
origin = "{0, 11}";
target = "{0, 10}";
},
{
horizontal = 1;
origin = "{0, 9}";
target = up;
type = BottomGhost;
},
{
horizontal = 1;
origin = "{0, 10}";
target = down;
type = TopGhost;
}
);
layerId = UUID0;
paths = (
{
closed = 1;
nodes = (
"176 0 LINE",
"176 511 LINE SMOOTH",
"176 520 OFFCURVE",
"176 528 OFFCURVE",
"175 544 CURVE",
"179 534 OFFCURVE",
"185 520 OFFCURVE",
"190 510 CURVE SMOOTH",
"439 0 LINE",
"510 0 LINE",
"510 700 LINE",
"440 700 LINE",
"440 181 LINE SMOOTH",
"440 172 OFFCURVE",
"440 167 OFFCURVE",
"441 148 CURVE",
"437 158 OFFCURVE",
"431 171 OFFCURVE",
"427 180 CURVE SMOOTH",
"177 700 LINE",
"106 700 LINE",
"106 0 LINE"
);
}
);
width = 616;
},
{
anchors = (
{
name = bottom;
position = "{308, 0}";
},
{
name = top;
position = "{308, 700}";
}
);
background = {
paths = (
{
closed = 1;
nodes = (
"587 700 LINE",
"453 700 LINE",
"453 297 LINE SMOOTH",
"453 284 OFFCURVE",
"455 263 OFFCURVE",
"456 244 CURVE",
"448 263 OFFCURVE",
"435 284 OFFCURVE",
"427 297 CURVE",
"156 700 LINE",
"29 700 LINE",
"29 0 LINE",
"163 0 LINE",
"163 408 LINE SMOOTH",
"163 423 OFFCURVE",
"163 446 OFFCURVE",
"160 461 CURVE",
"168 444 OFFCURVE",
"180 421 OFFCURVE",
"189 408 CURVE SMOOTH",
"467 0 LINE",
"587 0 LINE"
);
}
);
};
layerId = "C8970C82-1F9F-492B-A412-6BE281DD1303";
paths = (
{
closed = 1;
nodes = (
"190 0 LINE",
"190 408 LINE SMOOTH",
"190 423 OFFCURVE",
"190 446 OFFCURVE",
"187 461 CURVE",
"195 444 OFFCURVE",
"209 421 OFFCURVE",
"216 408 CURVE SMOOTH",
"430 0 LINE",
"550 0 LINE",
"550 700 LINE",
"426 700 LINE",
"426 297 LINE SMOOTH",
"426 284 OFFCURVE",
"428 263 OFFCURVE",
"429 244 CURVE",
"421 263 OFFCURVE",
"408 284 OFFCURVE",
"400 297 CURVE SMOOTH",
"193 700 LINE",
"66 700 LINE",
"66 0 LINE"
);
}
);
width = 616;
}
);
unicode = 004E;
},
{
glyphname = O;
lastChange = "2016-11-16 16:27:00 +0000";
layers = (
{
anchors = (
{
name = bottom;
position = "{308, -30}";
},
{
name = center;
position = "{308, 350}";
},
{
name = ogonek;
position = "{554, 10}";
},
{
name = top;
position = "{308, 700}";
},
{
name = topleft;
position = "{20, 700}";
},
{
name = topright;
position = "{596, 700}";
}
);
background = {
paths = (
{
closed = 1;
nodes = (
"203 51 OFFCURVE",
"164 197 OFFCURVE",
"164 352 CURVE SMOOTH",
"164 494 OFFCURVE",
"203 653 OFFCURVE",
"316 653 CURVE SMOOTH",
"429 653 OFFCURVE",
"468 507 OFFCURVE",
"468 352 CURVE SMOOTH",
"468 210 OFFCURVE",
"429 51 OFFCURVE",
"316 51 CURVE SMOOTH"
);
},
{
closed = 1;
nodes = (
"484 -12 OFFCURVE",
"541 176 OFFCURVE",
"541 352 CURVE SMOOTH",
"541 528 OFFCURVE",
"484 716 OFFCURVE",
"316 716 CURVE SMOOTH",
"148 716 OFFCURVE",
"91 528 OFFCURVE",
"91 352 CURVE SMOOTH",
"91 176 OFFCURVE",
"148 -12 OFFCURVE",
"316 -12 CURVE SMOOTH"
);
}
);
};
hints = (
{
place = "{83, 73}";
},
{
place = "{460, 73}";
},
{
horizontal = 1;
place = "{-12, 63}";
},
{
horizontal = 1;
place = "{653, 63}";
}
);
layerId = UUID0;
paths = (
{
closed = 1;
nodes = (
"476 -12 OFFCURVE",
"533 177 OFFCURVE",
"533 350 CURVE SMOOTH",
"533 523 OFFCURVE",
"476 712 OFFCURVE",
"308 712 CURVE SMOOTH",
"140 712 OFFCURVE",
"83 523 OFFCURVE",
"83 350 CURVE SMOOTH",
"83 177 OFFCURVE",
"140 -12 OFFCURVE",
"308 -12 CURVE SMOOTH"
);
},
{
closed = 1;
nodes = (
"195 51 OFFCURVE",
"156 198 OFFCURVE",
"156 350 CURVE SMOOTH",
"156 489 OFFCURVE",
"195 649 OFFCURVE",
"308 649 CURVE SMOOTH",
"421 649 OFFCURVE",
"460 502 OFFCURVE",
"460 350 CURVE SMOOTH",
"460 211 OFFCURVE",
"421 51 OFFCURVE",
"308 51 CURVE SMOOTH"
);
}
);
width = 616;
},
{
anchors = (
{
name = bottom;
position = "{308, 0}";
},
{
name = center;
position = "{308, 350}";
},
{
name = ogonek;
position = "{554, 10}";
},
{
name = top;
position = "{308, 700}";
},
{
name = topleft;
position = "{20, 700}";
},
{
name = topright;
position = "{596, 700}";
}
);
background = {
paths = (
{
closed = 1;
nodes = (
"534 -12 OFFCURVE",
"616 177 OFFCURVE",
"616 350 CURVE SMOOTH",
"616 523 OFFCURVE",
"534 712 OFFCURVE",
"308 712 CURVE SMOOTH",
"82 712 OFFCURVE",
"-1 523 OFFCURVE",
"-1 350 CURVE SMOOTH",
"-1 177 OFFCURVE",
"82 -12 OFFCURVE",
"308 -12 CURVE SMOOTH"
);
},
{
closed = 1;
nodes = (
"182 118 OFFCURVE",
"139 244 OFFCURVE",
"139 350 CURVE SMOOTH",
"139 451 OFFCURVE",
"181 582 OFFCURVE",
"308 582 CURVE SMOOTH",
"434 582 OFFCURVE",
"476 457 OFFCURVE",
"476 350 CURVE SMOOTH",
"476 249 OFFCURVE",
"432 118 OFFCURVE",
"308 118 CURVE SMOOTH"
);
}
);
};
layerId = "C8970C82-1F9F-492B-A412-6BE281DD1303";
paths = (
{
closed = 1;
nodes = (
"503 -12 OFFCURVE",
"587 157 OFFCURVE",
"587 350 CURVE SMOOTH",
"587 543 OFFCURVE",
"503 712 OFFCURVE",
"308 712 CURVE SMOOTH",
"113 712 OFFCURVE",
"29 543 OFFCURVE",
"29 350 CURVE SMOOTH",
"29 157 OFFCURVE",
"113 -12 OFFCURVE",
"308 -12 CURVE SMOOTH"
);
},
{
closed = 1;
nodes = (
"212 118 OFFCURVE",
"169 224 OFFCURVE",
"169 350 CURVE SMOOTH",
"169 471 OFFCURVE",
"212 582 OFFCURVE",
"308 582 CURVE SMOOTH",
"404 582 OFFCURVE",
"447 477 OFFCURVE",
"447 350 CURVE SMOOTH",
"447 229 OFFCURVE",
"402 118 OFFCURVE",
"308 118 CURVE SMOOTH"
);
}
);
width = 616;
}
);
unicode = 004F;
},
{
glyphname = P;
lastChange = "2016-11-16 16:27:00 +0000";
layers = (
{
anchors = (
{
name = bottom;
position = "{308, 0}";
},
{
name = top;
position = "{308, 700}";
}
);
background = {
paths = (
{
closed = 1;
nodes = (
"176 0 LINE",
"176 289 LINE",
"307 289 LINE SMOOTH",
"468 289 OFFCURVE",
"528 401 OFFCURVE",
"528 496 CURVE SMOOTH",
"528 599 OFFCURVE",
"474 704 OFFCURVE",
"307 704 CURVE SMOOTH",
"106 704 LINE",
"106 0 LINE"
);
},
{
closed = 1;
nodes = (
"176 352 LINE",
"176 641 LINE",
"313 641 LINE SMOOTH",
"430 641 OFFCURVE",
"461 558 OFFCURVE",
"461 496 CURVE SMOOTH",
"461 428 OFFCURVE",
"423 352 OFFCURVE",
"313 352 CURVE SMOOTH"
);
}
);
};
hints = (
{
place = "{106, 70}";
},
{
place = "{461, 67}";
},
{
horizontal = 1;
place = "{289, 63}";
},
{
horizontal = 1;
place = "{641, 63}";
},
{
horizontal = 1;
place = "{0, 21}";
target = up;
type = BottomGhost;
}
);
layerId = UUID0;
paths = (
{
closed = 1;
nodes = (
"176 0 LINE",
"176 289 LINE",
"307 289 LINE SMOOTH",
"468 289 OFFCURVE",
"528 400 OFFCURVE",
"528 494 CURVE SMOOTH",
"528 596 OFFCURVE",
"474 700 OFFCURVE",
"307 700 CURVE SMOOTH",
"106 700 LINE",
"106 0 LINE"
);
},
{
closed = 1;
nodes = (
"176 637 LINE",
"313 637 LINE SMOOTH",
"430 637 OFFCURVE",
"461 555 OFFCURVE",
"461 494 CURVE SMOOTH",
"461 427 OFFCURVE",
"423 352 OFFCURVE",
"313 352 CURVE SMOOTH",
"176 352 LINE"
);
}
);
width = 616;
},
{
anchors = (
{
name = bottom;
position = "{308, 0}";
},
{
name = top;
position = "{308, 700}";
}
);
background = {
paths = (
{
closed = 1;
nodes = (
"173 0 LINE",
"173 258 LINE",
"338 258 LINE SMOOTH",
"509 258 OFFCURVE",
"577 377 OFFCURVE",
"577 479 CURVE SMOOTH",
"577 588 OFFCURVE",
"515 700 OFFCURVE",
"338 700 CURVE SMOOTH",
"38 700 LINE",
"38 0 LINE"
);
},
{
closed = 1;
nodes = (
"173 386 LINE",
"173 572 LINE",
"344 572 LINE SMOOTH",
"416 572 OFFCURVE",
"437 519 OFFCURVE",
"437 479 CURVE SMOOTH",
"437 435 OFFCURVE",
"412 386 OFFCURVE",
"344 386 CURVE SMOOTH"
);
}
);
};
layerId = "C8970C82-1F9F-492B-A412-6BE281DD1303";
paths = (
{
closed = 1;
nodes = (
"201 0 LINE",
"201 258 LINE",
"328 258 LINE SMOOTH",
"499 258 OFFCURVE",
"567 377 OFFCURVE",
"567 479 CURVE SMOOTH",
"567 588 OFFCURVE",
"505 700 OFFCURVE",
"328 700 CURVE SMOOTH",
"66 700 LINE",
"66 0 LINE"
);
},
{
closed = 1;
nodes = (
"201 572 LINE",
"334 572 LINE SMOOTH",
"406 572 OFFCURVE",
"427 519 OFFCURVE",
"427 479 CURVE SMOOTH",
"427 435 OFFCURVE",
"402 386 OFFCURVE",
"334 386 CURVE SMOOTH",
"201 386 LINE"
);
}
);
width = 616;
}
);
unicode = 0050;
},
{
glyphname = Q;
lastChange = "2016-11-16 16:27:00 +0000";
layers = (
{
anchors = (
{
name = bottom;
position = "{308, 0}";
},
{
name = top;
position = "{308, 700}";
}
);
background = {
paths = (
{
closed = 1;
nodes = (
"415 -12 OFFCURVE",
"460 0 OFFCURVE",
"498 21 CURVE",
"556 -65 LINE",
"604 -29 LINE",
"546 57 LINE",
"621 127 OFFCURVE",
"650 242 OFFCURVE",
"650 350 CURVE SMOOTH",
"650 523 OFFCURVE",
"576 712 OFFCURVE",
"360 712 CURVE SMOOTH",
"144 712 OFFCURVE",
"70 523 OFFCURVE",
"70 350 CURVE SMOOTH",
"70 177 OFFCURVE",
"144 -12 OFFCURVE",
"360 -12 CURVE SMOOTH"
);
},
{
closed = 1;
nodes = (
"199 51 OFFCURVE",
"143 198 OFFCURVE",
"143 350 CURVE SMOOTH",
"143 489 OFFCURVE",
"199 649 OFFCURVE",
"360 649 CURVE SMOOTH",
"521 649 OFFCURVE",
"577 502 OFFCURVE",
"577 350 CURVE SMOOTH",
"577 267 OFFCURVE",
"557 176 OFFCURVE",
"507 117 CURVE",
"463 183 LINE",
"413 147 LINE",
"460 77 LINE",
"432 60 OFFCURVE",
"399 51 OFFCURVE",
"360 51 CURVE SMOOTH"
);
}
);
};
components = (
{
name = O;
}
);
hints = (
{
place = "{0, 0}";
},
{
place = "{0, 0}";
},
{
horizontal = 1;
place = "{0, 0}";
},
{
horizontal = 1;
place = "{0, 0}";
},
{
horizontal = 1;
place = "{0, 21}";
target = up;
type = BottomGhost;
}
);
layerId = UUID0;
paths = (
{
closed = 1;
nodes = (
"493 -49 LINE",
"352 163 LINE",
"302 127 LINE",
"445 -85 LINE"
);
}
);
width = 616;
},
{
associatedMasterId = UUID0;
background = {
paths = (
{
closed = 1;
nodes = (
"415 -12 OFFCURVE",
"460 0 OFFCURVE",
"498 21 CURVE",
"556 -65 LINE",
"604 -29 LINE",
"546 57 LINE",
"621 127 OFFCURVE",
"650 242 OFFCURVE",
"650 350 CURVE SMOOTH",
"650 523 OFFCURVE",
"576 712 OFFCURVE",
"360 712 CURVE SMOOTH",
"144 712 OFFCURVE",
"70 523 OFFCURVE",
"70 350 CURVE SMOOTH",
"70 177 OFFCURVE",
"144 -12 OFFCURVE",
"360 -12 CURVE SMOOTH"
);
},
{
closed = 1;
nodes = (
"199 51 OFFCURVE",
"143 198 OFFCURVE",
"143 350 CURVE SMOOTH",
"143 489 OFFCURVE",
"199 649 OFFCURVE",
"360 649 CURVE SMOOTH",
"521 649 OFFCURVE",
"577 502 OFFCURVE",
"577 350 CURVE SMOOTH",
"577 267 OFFCURVE",
"557 176 OFFCURVE",
"507 117 CURVE",
"463 183 LINE",
"413 147 LINE",
"460 77 LINE",
"432 60 OFFCURVE",
"399 51 OFFCURVE",
"360 51 CURVE SMOOTH"
);
}
);
};
hints = (
{
origin = "{0, 15}";
target = "{1, 3}";
},
{
origin = "{1, 9}";
target = "{0, 9}";
},
{
horizontal = 1;
origin = "{0, 0}";
target = "{1, 0}";
},
{
horizontal = 1;
origin = "{1, 6}";
target = "{0, 12}";
},
{
horizontal = 1;
origin = "{0, 4}";
target = up;
type = BottomGhost;
}
);
layerId = "CA27A11B-4188-4E13-9291-7D67815CD81D";
name = "Regular Jan 5 16, 11:41";
paths = (
{
closed = 1;
nodes = (
"407 -12 OFFCURVE",
"452 0 OFFCURVE",
"490 21 CURVE",
"548 -65 LINE",
"596 -29 LINE",
"538 57 LINE",
"613 127 OFFCURVE",
"642 242 OFFCURVE",
"642 350 CURVE SMOOTH",
"642 523 OFFCURVE",
"568 712 OFFCURVE",
"352 712 CURVE SMOOTH",
"136 712 OFFCURVE",
"62 523 OFFCURVE",
"62 350 CURVE SMOOTH",
"62 177 OFFCURVE",
"136 -12 OFFCURVE",
"352 -12 CURVE SMOOTH"
);
},
{
closed = 1;
nodes = (
"191 51 OFFCURVE",
"135 198 OFFCURVE",
"135 350 CURVE SMOOTH",
"135 489 OFFCURVE",
"191 649 OFFCURVE",
"352 649 CURVE SMOOTH",
"513 649 OFFCURVE",
"569 502 OFFCURVE",
"569 350 CURVE SMOOTH",
"569 267 OFFCURVE",
"549 176 OFFCURVE",
"499 117 CURVE",
"455 183 LINE",
"405 147 LINE",
"452 77 LINE",
"424 60 OFFCURVE",
"391 51 OFFCURVE",
"352 51 CURVE SMOOTH"
);
}
);
width = 616;
},
{
anchors = (
{
name = bottom;
position = "{308, 0}";
},
{
name = top;
position = "{308, 700}";
}
);
background = {
paths = (
{
closed = 1;
nodes = (
"347 -12 OFFCURVE",
"380 -6 OFFCURVE",
"411 3 CURVE",
"460 -69 LINE",
"560 -3 LINE",
"514 65 LINE",
"586 137 OFFCURVE",
"616 245 OFFCURVE",
"616 350 CURVE SMOOTH",
"616 523 OFFCURVE",
"534 712 OFFCURVE",
"308 712 CURVE SMOOTH",
"82 712 OFFCURVE",
"-1 523 OFFCURVE",
"-1 350 CURVE SMOOTH",
"-1 177 OFFCURVE",
"82 -12 OFFCURVE",
"308 -12 CURVE SMOOTH"
);
},
{
closed = 1;
nodes = (
"182 118 OFFCURVE",
"139 244 OFFCURVE",
"139 350 CURVE SMOOTH",
"139 451 OFFCURVE",
"181 582 OFFCURVE",
"308 582 CURVE SMOOTH",
"434 582 OFFCURVE",
"476 457 OFFCURVE",
"476 350 CURVE SMOOTH",
"476 297 OFFCURVE",
"464 231 OFFCURVE",
"433 187 CURVE",
"383 263 LINE",
"281 197 LINE",
"333 120 LINE",
"325 119 OFFCURVE",
"316 118 OFFCURVE",
"308 118 CURVE SMOOTH"
);
}
);
};
components = (
{
name = O;
}
);
layerId = "C8970C82-1F9F-492B-A412-6BE281DD1303";
paths = (
{
closed = 1;
nodes = (
"537 -11 LINE",
"360 255 LINE",
"258 189 LINE",
"437 -77 LINE"
);
}
);
width = 616;
}
);
unicode = 0051;
},
{
glyphname = R;
lastChange = "2016-11-16 16:27:00 +0000";
layers = (
{
anchors = (
{
name = bottom;
position = "{350, -30}";
},
{
name = top;
position = "{346, 730}";
}
);
background = {
paths = (
{
closed = 1;
nodes = (
"278 342 LINE",
"443 0 LINE",
"520 0 LINE",
"352 342 LINE"
);
},
{
closed = 1;
nodes = (
"523 602 OFFCURVE",
"472 700 OFFCURVE",
"307 700 CURVE SMOOTH",
"106 700 LINE",
"106 0 LINE",
"176 0 LINE",
"176 313 LINE",
"307 313 LINE SMOOTH",
"472 313 OFFCURVE",
"523 414 OFFCURVE",
"523 508 CURVE SMOOTH"
);
},
{
closed = 1;
nodes = (
"176 376 LINE",
"176 637 LINE",
"309 637 LINE SMOOTH",
"424 637 OFFCURVE",
"456 560 OFFCURVE",
"456 505 CURVE SMOOTH",
"456 442 OFFCURVE",
"419 376 OFFCURVE",
"309 376 CURVE SMOOTH"
);
}
);
};
hints = (
{
place = "{106, 70}";
},
{
place = "{456, 67}";
},
{
horizontal = 1;
place = "{313, 63}";
},
{
horizontal = 1;
place = "{637, -637}";
},
{
horizontal = 1;
place = "{0, 21}";
target = up;
type = BottomGhost;
}
);
layerId = UUID0;
paths = (
{
closed = 1;
nodes = (
"176 0 LINE",
"176 313 LINE",
"305 313 LINE SMOOTH",
"474 313 OFFCURVE",
"523 418 OFFCURVE",
"523 508 CURVE SMOOTH",
"523 602 OFFCURVE",
"474 700 OFFCURVE",
"307 700 CURVE SMOOTH",
"106 700 LINE",
"106 0 LINE"
);
},
{
closed = 1;
nodes = (
"519 0 LINE",
"357 330 LINE",
"285 327 LINE",
"442 0 LINE"
);
},
{
closed = 1;
nodes = (
"176 637 LINE",
"309 637 LINE SMOOTH",
"426 637 OFFCURVE",
"456 560 OFFCURVE",
"456 505 CURVE SMOOTH",
"456 442 OFFCURVE",
"422 376 OFFCURVE",
"309 376 CURVE SMOOTH",
"176 376 LINE"
);
}
);
width = 616;
},
{
anchors = (
{
name = bottom;
position = "{295, 0}";
},
{
name = top;
position = "{295, 700}";
}
);
background = {
paths = (
{
closed = 1;
nodes = (
"201 0 LINE",
"201 261 LINE",
"273 261 LINE",
"404 0 LINE",
"555 0 LINE",
"419 279 LINE",
"510 311 OFFCURVE",
"555 402 OFFCURVE",
"555 481 CURVE SMOOTH",
"555 596 OFFCURVE",
"497 700 OFFCURVE",
"321 700 CURVE SMOOTH",
"66 700 LINE",
"66 0 LINE"
);
},
{
closed = 1;
nodes = (
"201 572 LINE",
"323 572 LINE SMOOTH",
"395 572 OFFCURVE",
"415 525 OFFCURVE",
"415 481 CURVE SMOOTH",
"415 433 OFFCURVE",
"392 389 OFFCURVE",
"323 389 CURVE SMOOTH",
"201 389 LINE"
);
}
);
};
layerId = "C8970C82-1F9F-492B-A412-6BE281DD1303";
paths = (
{
closed = 1;
nodes = (
"201 0 LINE",
"201 261 LINE",
"322 261 LINE SMOOTH",
"470 261 OFFCURVE",
"555 366 OFFCURVE",
"555 481 CURVE SMOOTH",
"555 596 OFFCURVE",
"497 700 OFFCURVE",
"321 700 CURVE SMOOTH",
"66 700 LINE",
"66 0 LINE"
);
},
{
closed = 1;
nodes = (
"555 0 LINE",
"412 293 LINE",
"262 283 LINE",
"404 0 LINE"
);
},
{
closed = 1;
nodes = (
"201 572 LINE",
"323 572 LINE SMOOTH",
"395 572 OFFCURVE",
"415 525 OFFCURVE",
"415 481 CURVE SMOOTH",
"415 433 OFFCURVE",
"392 389 OFFCURVE",
"323 389 CURVE SMOOTH",
"201 389 LINE"
);
}
);
width = 616;
}
);
unicode = 0052;
},
{
glyphname = S;
lastChange = "2016-11-16 16:27:00 +0000";
layers = (
{
anchors = (
{
name = bottom;
position = "{317, -30}";
},
{
name = top;
position = "{304, 730}";
}
);
hints = (
{
origin = "{0, 21}";
target = "{0, 8}";
},
{
origin = "{0, 27}";
target = "{0, 2}";
},
{
horizontal = 1;
origin = "{0, 37}";
target = "{0, 30}";
},
{
horizontal = 1;
origin = "{0, 11}";
target = "{0, 18}";
}
);
layerId = UUID0;
paths = (
{
closed = 1;
nodes = (
"429 -12 OFFCURVE",
"512 58 OFFCURVE",
"512 182 CURVE SMOOTH",
"512 313 OFFCURVE",
"417 372 OFFCURVE",
"334 409 CURVE SMOOTH",
"261 441 OFFCURVE",
"192 476 OFFCURVE",
"192 550 CURVE SMOOTH",
"192 610 OFFCURVE",
"233 649 OFFCURVE",
"302 649 CURVE SMOOTH",
"361 649 OFFCURVE",
"399 616 OFFCURVE",
"413 579 CURVE",
"478 601 LINE",
"461 665 OFFCURVE",
"396 712 OFFCURVE",
"304 712 CURVE SMOOTH",
"188 712 OFFCURVE",
"120 638 OFFCURVE",
"120 549 CURVE SMOOTH",
"120 433 OFFCURVE",
"215 381 OFFCURVE",
"301 344 CURVE SMOOTH",
"373 313 OFFCURVE",
"440 266 OFFCURVE",
"440 180 CURVE SMOOTH",
"440 96 OFFCURVE",
"391 51 OFFCURVE",
"312 51 CURVE SMOOTH",
"243 51 OFFCURVE",
"191 93 OFFCURVE",
"167 154 CURVE",
"101 130 LINE",
"126 54 OFFCURVE",
"205 -12 OFFCURVE",
"312 -12 CURVE SMOOTH"
);
}
);
width = 616;
},
{
anchors = (
{
name = bottom;
position = "{313, 0}";
},
{
name = top;
position = "{313, 700}";
}
);
background = {
paths = (
{
closed = 1;
nodes = (
"459 -12 OFFCURVE",
"570 65 OFFCURVE",
"570 201 CURVE SMOOTH",
"570 352 OFFCURVE",
"439 396 OFFCURVE",
"335 431 CURVE SMOOTH",
"266 454 OFFCURVE",
"208 473 OFFCURVE",
"208 517 CURVE SMOOTH",
"208 560 OFFCURVE",
"242 584 OFFCURVE",
"301 584 CURVE SMOOTH",
"366 584 OFFCURVE",
"402 552 OFFCURVE",
"421 510 CURVE",
"542 550 LINE",
"516 642 OFFCURVE",
"434 712 OFFCURVE",
"309 712 CURVE SMOOTH",
"158 712 OFFCURVE",
"72 624 OFFCURVE",
"72 519 CURVE SMOOTH",
"72 380 OFFCURVE",
"190 341 OFFCURVE",
"292 307 CURVE SMOOTH",
"368 282 OFFCURVE",
"434 260 OFFCURVE",
"434 201 CURVE SMOOTH",
"434 145 OFFCURVE",
"389 116 OFFCURVE",
"321 116 CURVE SMOOTH",
"253 116 OFFCURVE",
"198 161 OFFCURVE",
"168 226 CURVE",
"45 180 LINE",
"85 61 OFFCURVE",
"185 -12 OFFCURVE",
"317 -12 CURVE SMOOTH"
);
}
);
};
layerId = "C8970C82-1F9F-492B-A412-6BE281DD1303";
paths = (
{
closed = 1;
nodes = (
"444 -12 OFFCURVE",
"560 65 OFFCURVE",
"560 201 CURVE SMOOTH",
"560 324 OFFCURVE",
"438 382 OFFCURVE",
"350 424 CURVE SMOOTH",
"280 457 OFFCURVE",
"218 476 OFFCURVE",
"218 517 CURVE SMOOTH",
"218 560 OFFCURVE",
"257 584 OFFCURVE",
"301 584 CURVE SMOOTH",
"351 584 OFFCURVE",
"390 552 OFFCURVE",
"411 510 CURVE",
"532 550 LINE",
"505 642 OFFCURVE",
"419 712 OFFCURVE",
"309 712 CURVE SMOOTH",
"172 712 OFFCURVE",
"82 624 OFFCURVE",
"82 519 CURVE SMOOTH",
"82 400 OFFCURVE",
"188 352 OFFCURVE",
"278 312 CURVE SMOOTH",
"357 277 OFFCURVE",
"424 242 OFFCURVE",
"424 197 CURVE SMOOTH",
"424 143 OFFCURVE",
"384 116 OFFCURVE",
"331 116 CURVE SMOOTH",
"269 116 OFFCURVE",
"210 161 OFFCURVE",
"178 226 CURVE",
"55 180 LINE",
"97 61 OFFCURVE",
"201 -12 OFFCURVE",
"317 -12 CURVE SMOOTH"
);
}
);
width = 616;
}
);
unicode = 0053;
},
{
glyphname = T;
lastChange = "2016-11-16 16:27:00 +0000";
layers = (
{
anchors = (
{
name = bottom;
position = "{308, -30}";
},
{
name = center;
position = "{308, 350}";
},
{
name = top;
position = "{308, 730}";
}
);
background = {
paths = (
{
closed = 1;
nodes = (
"515 633 LINE",
"515 700 LINE",
"60 700 LINE",
"60 633 LINE",
"252 633 LINE",
"252 0 LINE",
"322 0 LINE",
"322 633 LINE"
);
}
);
};
hints = (
{
origin = "{0, 6}";
target = "{0, 1}";
},
{
horizontal = 1;
origin = "{0, 2}";
target = "{0, 3}";
},
{
horizontal = 1;
origin = "{0, 7}";
target = up;
type = BottomGhost;
}
);
layerId = UUID0;
paths = (
{
closed = 1;
nodes = (
"343 0 LINE",
"343 633 LINE",
"543 633 LINE",
"543 700 LINE",
"73 700 LINE",
"73 633 LINE",
"273 633 LINE",
"273 0 LINE"
);
}
);
width = 616;
},
{
anchors = (
{
name = bottom;
position = "{308, 0}";
},
{
name = center;
position = "{308, 350}";
},
{
name = top;
position = "{308, 700}";
}
);
background = {
paths = (
{
closed = 1;
nodes = (
"575 570 LINE",
"575 700 LINE",
"40 700 LINE",
"40 570 LINE",
"240 570 LINE",
"240 0 LINE",
"375 0 LINE",
"375 570 LINE"
);
}
);
};
layerId = "C8970C82-1F9F-492B-A412-6BE281DD1303";
paths = (
{
closed = 1;
nodes = (
"375 0 LINE",
"375 570 LINE",
"580 570 LINE",
"580 700 LINE",
"35 700 LINE",
"35 570 LINE",
"240 570 LINE",
"240 0 LINE"
);
}
);
width = 616;
}
);
unicode = 0054;
},
{
glyphname = U;
lastChange = "2016-11-16 16:27:00 +0000";
layers = (
{
anchors = (
{
name = bottom;
position = "{352, -30}";
},
{
name = ogonek;
position = "{554, 10}";
},
{
name = top;
position = "{308, 730}";
},
{
name = topright;
position = "{596, 700}";
}
);
background = {
paths = (
{
closed = 1;
nodes = (
"445 -12 OFFCURVE",
"528 66 OFFCURVE",
"528 264 CURVE SMOOTH",
"528 704 LINE",
"458 704 LINE",
"458 264 LINE SMOOTH",
"458 94 OFFCURVE",
"387 51 OFFCURVE",
"308 51 CURVE SMOOTH",
"229 51 OFFCURVE",
"158 94 OFFCURVE",
"158 264 CURVE SMOOTH",
"158 704 LINE",
"88 704 LINE",
"88 264 LINE SMOOTH",
"88 66 OFFCURVE",
"170 -12 OFFCURVE",
"308 -12 CURVE SMOOTH"
);
}
);
};
hints = (
{
place = "{88, 70}";
},
{
place = "{546, 70}";
},
{
horizontal = 1;
place = "{704, -20}";
target = down;
type = TopGhost;
},
{
horizontal = 1;
origin = "{0, 0}";
target = "{0, 9}";
}
);
layerId = UUID0;
paths = (
{
closed = 1;
nodes = (
"445 -12 OFFCURVE",
"528 66 OFFCURVE",
"528 264 CURVE SMOOTH",
"528 700 LINE",
"458 700 LINE",
"458 264 LINE SMOOTH",
"458 94 OFFCURVE",
"387 51 OFFCURVE",
"308 51 CURVE SMOOTH",
"229 51 OFFCURVE",
"158 94 OFFCURVE",
"158 264 CURVE SMOOTH",
"158 700 LINE",
"88 700 LINE",
"88 264 LINE SMOOTH",
"88 66 OFFCURVE",
"170 -12 OFFCURVE",
"308 -12 CURVE SMOOTH"
);
}
);
width = 616;
},
{
anchors = (
{
name = bottom;
position = "{308, 0}";
},
{
name = ogonek;
position = "{602, 10}";
},
{
name = top;
position = "{308, 700}";
},
{
name = topright;
position = "{655, 700}";
}
);
background = {
paths = (
{
closed = 1;
nodes = (
"454 -12 OFFCURVE",
"590 60 OFFCURVE",
"590 268 CURVE SMOOTH",
"590 700 LINE",
"455 700 LINE",
"455 268 LINE SMOOTH",
"455 152 OFFCURVE",
"398 118 OFFCURVE",
"308 118 CURVE SMOOTH",
"216 118 OFFCURVE",
"161 152 OFFCURVE",
"161 268 CURVE SMOOTH",
"161 700 LINE",
"26 700 LINE",
"26 268 LINE SMOOTH",
"26 57 OFFCURVE",
"166 -12 OFFCURVE",
"308 -12 CURVE SMOOTH"
);
}
);
};
layerId = "C8970C82-1F9F-492B-A412-6BE281DD1303";
paths = (
{
closed = 1;
nodes = (
"433 -12 OFFCURVE",
"550 60 OFFCURVE",
"550 268 CURVE SMOOTH",
"550 700 LINE",
"415 700 LINE",
"415 268 LINE SMOOTH",
"415 152 OFFCURVE",
"371 118 OFFCURVE",
"308 118 CURVE SMOOTH",
"244 118 OFFCURVE",
"201 152 OFFCURVE",
"201 268 CURVE SMOOTH",
"201 700 LINE",
"66 700 LINE",
"66 268 LINE SMOOTH",
"66 57 OFFCURVE",
"186 -12 OFFCURVE",
"308 -12 CURVE SMOOTH"
);
}
);
width = 616;
}
);
unicode = 0055;
},
{
glyphname = V;
lastChange = "2016-11-16 16:27:00 +0000";
layers = (
{
anchors = (
{
name = bottom;
position = "{308, 0}";
},
{
name = top;
position = "{308, 700}";
}
);
background = {
paths = (
{
closed = 1;
nodes = (
"333 0 LINE",
"566 700 LINE",
"493 700 LINE",
"298 84 LINE",
"320 84 LINE",
"124 700 LINE",
"50 700 LINE",
"283 0 LINE"
);
}
);
};
hints = (
{
horizontal = 1;
place = "{704, -20}";
target = down;
type = TopGhost;
},
{
horizontal = 1;
origin = "{0, 12}";
target = up;
type = BottomGhost;
}
);
layerId = UUID0;
paths = (
{
closed = 1;
nodes = (
"333 0 LINE",
"566 700 LINE",
"493 700 LINE",
"321 160 LINE SMOOTH",
"316 143 OFFCURVE",
"311 124 OFFCURVE",
"308 109 CURVE",
"305 124 OFFCURVE",
"300 143 OFFCURVE",
"295 160 CURVE SMOOTH",
"123 700 LINE",
"50 700 LINE",
"283 0 LINE"
);
}
);
width = 616;
},
{
anchors = (
{
name = bottom;
position = "{308, 0}";
},
{
name = top;
position = "{308, 700}";
}
);
background = {
paths = (
{
closed = 1;
nodes = (
"373 0 LINE",
"620 700 LINE",
"476 700 LINE",
"322 242 LINE SMOOTH",
"317 226 OFFCURVE",
"312 209 OFFCURVE",
"309 194 CURVE",
"305 209 OFFCURVE",
"300 227 OFFCURVE",
"295 242 CURVE SMOOTH",
"141 700 LINE",
"-5 700 LINE",
"243 0 LINE"
);
}
);
};
layerId = "C8970C82-1F9F-492B-A412-6BE281DD1303";
paths = (
{
closed = 1;
nodes = (
"376 0 LINE",
"602 700 LINE",
"451 700 LINE",
"321 243 LINE SMOOTH",
"316 226 OFFCURVE",
"311 189 OFFCURVE",
"308 174 CURVE",
"304 189 OFFCURVE",
"298 227 OFFCURVE",
"293 244 CURVE SMOOTH",
"165 700 LINE",
"14 700 LINE",
"240 0 LINE"
);
}
);
width = 616;
},
{
associatedMasterId = UUID0;
background = {
paths = (
{
closed = 1;
nodes = (
"557 704 LINE",
"483 704 LINE",
"308 115 LINE",
"133 704 LINE",
"59 704 LINE",
"283 0 LINE",
"333 0 LINE"
);
}
);
};
hints = (
{
horizontal = 1;
place = "{704, -20}";
target = down;
type = TopGhost;
},
{
horizontal = 1;
origin = "{0, 6}";
target = up;
type = BottomGhost;
}
);
layerId = "C11A610F-527D-434A-B713-E1F6F65576F3";
name = "Regular Jan 25 16, 10:45";
paths = (
{
closed = 1;
nodes = (
"545 704 LINE",
"472 704 LINE",
"300 84 LINE",
"318 84 LINE",
"145 704 LINE",
"71 704 LINE",
"283 0 LINE",
"333 0 LINE"
);
}
);
width = 616;
}
);
unicode = 0056;
},
{
glyphname = W;
lastChange = "2016-11-16 16:27:00 +0000";
layers = (
{
anchors = (
{
name = bottom;
position = "{308, 0}";
},
{
name = top;
position = "{308, 730}";
}
);
background = {
paths = (
{
closed = 1;
nodes = (
"223 0 LINE",
"316 555 LINE",
"302 555 LINE",
"393 0 LINE",
"451 0 LINE",
"564 700 LINE",
"496 700 LINE",
"417 165 LINE",
"425 165 LINE",
"338 700 LINE",
"280 700 LINE",
"192 152 LINE",
"200 152 LINE",
"121 700 LINE",
"52 700 LINE",
"165 0 LINE"
);
}
);
};
guideLines = (
{
position = "{297, 221}";
}
);
hints = (
{
horizontal = 1;
origin = "{0, 28}";
target = down;
type = TopGhost;
},
{
horizontal = 1;
origin = "{0, 30}";
target = up;
type = BottomGhost;
}
);
layerId = UUID0;
paths = (
{
closed = 1;
nodes = (
"223 0 LINE",
"303 477 LINE SMOOTH",
"305 488 OFFCURVE",
"307 503 OFFCURVE",
"309 519 CURVE",
"311 503 OFFCURVE",
"313 487 OFFCURVE",
"315 475 CURVE SMOOTH",
"393 0 LINE",
"451 0 LINE",
"564 700 LINE",
"496 700 LINE",
"425 220 LINE SMOOTH",
"424 211 OFFCURVE",
"422 198 OFFCURVE",
"421 185 CURVE",
"419 198 OFFCURVE",
"418 210 OFFCURVE",
"416 221 CURVE SMOOTH",
"338 700 LINE",
"280 700 LINE",
"202 215 LINE SMOOTH",
"200 204 OFFCURVE",
"198 189 OFFCURVE",
"196 173 CURVE",
"194 189 OFFCURVE",
"193 202 OFFCURVE",
"191 215 CURVE SMOOTH",
"121 700 LINE",
"52 700 LINE",
"165 0 LINE"
);
}
);
width = 616;
},
{
anchors = (
{
name = bottom;
position = "{308, 0}";
},
{
name = top;
position = "{308, 712}";
}
);
background = {
paths = (
{
closed = 1;
nodes = (
"193 0 LINE",
"296 413 LINE SMOOTH",
"301 433 OFFCURVE",
"304 450 OFFCURVE",
"306 465 CURVE",
"308 450 OFFCURVE",
"311 433 OFFCURVE",
"316 412 CURVE SMOOTH",
"422 0 LINE",
"548 0 LINE",
"699 700 LINE",
"561 700 LINE",
"483 306 LINE SMOOTH",
"478 282 OFFCURVE",
"476 269 OFFCURVE",
"474 254 CURVE",
"472 269 OFFCURVE",
"470 282 OFFCURVE",
"464 307 CURVE SMOOTH",
"366 700 LINE",
"249 700 LINE",
"153 307 LINE SMOOTH",
"147 282 OFFCURVE",
"145 269 OFFCURVE",
"143 254 CURVE",
"141 269 OFFCURVE",
"139 282 OFFCURVE",
"134 306 CURVE SMOOTH",
"56 700 LINE",
"-83 700 LINE",
"67 0 LINE"
);
}
);
};
layerId = "C8970C82-1F9F-492B-A412-6BE281DD1303";
paths = (
{
closed = 1;
nodes = (
"206 0 LINE",
"296 413 LINE SMOOTH",
"300 433 OFFCURVE",
"304 450 OFFCURVE",
"306 465 CURVE",
"308 450 OFFCURVE",
"311 433 OFFCURVE",
"316 412 CURVE SMOOTH",
"409 0 LINE",
"515 0 LINE",
"616 700 LINE",
"488 700 LINE",
"447 306 LINE SMOOTH",
"445 291 OFFCURVE",
"442 273 OFFCURVE",
"440 254 CURVE",
"438 269 OFFCURVE",
"433 286 OFFCURVE",
"428 307 CURVE SMOOTH",
"341 700 LINE",
"274 700 LINE",
"189 307 LINE SMOOTH",
"184 286 OFFCURVE",
"179 269 OFFCURVE",
"177 254 CURVE",
"175 273 OFFCURVE",
"172 291 OFFCURVE",
"170 306 CURVE SMOOTH",
"119 700 LINE",
"0 700 LINE",
"100 0 LINE"
);
}
);
width = 616;
}
);
unicode = 0057;
},
{
glyphname = X;
lastChange = "2016-11-16 16:27:00 +0000";
layers = (
{
anchors = (
{
name = bottom;
position = "{308, 0}";
},
{
name = top;
position = "{308, 700}";
}
);
background = {
paths = (
{
closed = 1;
nodes = (
"144 0 LINE",
"303 304 LINE",
"470 0 LINE",
"545 0 LINE",
"340 372 LINE",
"525 700 LINE",
"452 700 LINE",
"308 430 LINE",
"161 700 LINE",
"85 700 LINE",
"271 361 LINE",
"70 0 LINE"
);
}
);
};
hints = (
{
horizontal = 1;
origin = "{1, 2}";
target = down;
type = TopGhost;
},
{
horizontal = 1;
origin = "{1, 0}";
target = up;
type = BottomGhost;
}
);
layerId = UUID0;
paths = (
{
closed = 1;
nodes = (
"545 0 LINE",
"324 401 LINE",
"161 700 LINE",
"85 700 LINE",
"286 338 LINE",
"470 0 LINE"
);
},
{
closed = 1;
nodes = (
"144 0 LINE",
"321 338 LINE",
"525 700 LINE",
"452 700 LINE",
"288 392 LINE",
"70 0 LINE"
);
}
);
width = 616;
},
{
anchors = (
{
name = bottom;
position = "{308, 0}";
},
{
name = top;
position = "{308, 700}";
}
);
background = {
paths = (
{
closed = 1;
nodes = (
"614 0 LINE",
"387 361 LINE",
"600 700 LINE",
"442 700 LINE",
"308 486 LINE",
"174 700 LINE",
"16 700 LINE",
"229 361 LINE",
"2 0 LINE",
"160 0 LINE",
"308 235 LINE",
"456 0 LINE"
);
}
);
};
layerId = "C8970C82-1F9F-492B-A412-6BE281DD1303";
paths = (
{
closed = 1;
nodes = (
"592 0 LINE",
"340 433 LINE",
"196 700 LINE",
"38 700 LINE",
"274 294 LINE",
"434 0 LINE"
);
},
{
closed = 1;
nodes = (
"182 0 LINE",
"342 295 LINE",
"578 700 LINE",
"420 700 LINE",
"273 427 LINE",
"24 0 LINE"
);
}
);
width = 616;
}
);
unicode = 0058;
},
{
glyphname = Y;
lastChange = "2016-11-16 16:27:00 +0000";
layers = (
{
anchors = (
{
name = bottom;
position = "{308, 0}";
},
{
name = top;
position = "{308, 730}";
},
{
name = topleft;
position = "{56, 700}";
}
);
background = {
paths = (
{
closed = 1;
nodes = (
"344 0 LINE",
"344 278 LINE",
"571 700 LINE",
"499 700 LINE",
"308 340 LINE",
"122 700 LINE",
"45 700 LINE",
"274 275 LINE",
"274 0 LINE"
);
}
);
};
hints = (
{
origin = "{0, 8}";
target = "{0, 1}";
},
{
horizontal = 1;
origin = "{0, 0}";
target = up;
type = BottomGhost;
},
{
horizontal = 1;
origin = "{0, 2}";
target = down;
type = TopGhost;
}
);
layerId = UUID0;
paths = (
{
closed = 1;
nodes = (
"344 0 LINE",
"344 277 LINE",
"541 700 LINE",
"469 700 LINE",
"296 311 LINE",
"322 311 LINE",
"152 700 LINE",
"75 700 LINE",
"274 277 LINE",
"274 0 LINE"
);
}
);
width = 616;
},
{
anchors = (
{
name = bottom;
position = "{308, 0}";
},
{
name = top;
position = "{308, 700}";
},
{
name = topleft;
position = "{20, 700}";
}
);
background = {
paths = (
{
closed = 1;
nodes = (
"375 0 LINE",
"375 273 LINE",
"634 700 LINE",
"481 700 LINE",
"285 375 LINE",
"331 375 LINE",
"135 700 LINE",
"-18 700 LINE",
"241 273 LINE",
"241 0 LINE"
);
}
);
};
layerId = "C8970C82-1F9F-492B-A412-6BE281DD1303";
paths = (
{
closed = 1;
nodes = (
"375 0 LINE",
"375 273 LINE",
"584 700 LINE",
"433 700 LINE",
"287 375 LINE",
"329 375 LINE",
"183 700 LINE",
"32 700 LINE",
"241 273 LINE",
"241 0 LINE"
);
}
);
width = 616;
}
);
unicode = 0059;
},
{
glyphname = Z;
lastChange = "2016-11-16 16:27:00 +0000";
layers = (
{
anchors = (
{
name = bottom;
position = "{308, 0}";
},
{
name = top;
position = "{316, 730}";
}
);
background = {
paths = (
{
closed = 1;
nodes = (
"557 0 LINE",
"557 66 LINE",
"121 66 LINE",
"135 39 LINE",
"557 649 LINE",
"557 700 LINE",
"83 700 LINE",
"83 634 LINE",
"501 634 LINE",
"487 661 LINE",
"60 49 LINE",
"60 0 LINE"
);
}
);
};
hints = (
{
horizontal = 1;
origin = "{0, 0}";
target = "{0, 1}";
},
{
horizontal = 1;
origin = "{0, 6}";
target = "{0, 5}";
}
);
layerId = UUID0;
paths = (
{
closed = 1;
nodes = (
"526 0 LINE",
"526 66 LINE",
"149 66 LINE",
"160 39 LINE",
"530 649 LINE",
"530 700 LINE",
"111 700 LINE",
"111 634 LINE",
"470 634 LINE",
"458 661 LINE",
"88 49 LINE",
"88 0 LINE"
);
}
);
width = 616;
},
{
anchors = (
{
name = bottom;
position = "{313, 0}";
},
{
name = top;
position = "{313, 700}";
}
);
background = {
paths = (
{
closed = 1;
nodes = (
"550 0 LINE",
"550 128 LINE",
"242 128 LINE",
"550 597 LINE",
"550 700 LINE",
"88 700 LINE",
"88 572 LINE",
"371 572 LINE",
"66 103 LINE",
"66 0 LINE"
);
}
);
};
layerId = "C8970C82-1F9F-492B-A412-6BE281DD1303";
paths = (
{
closed = 1;
nodes = (
"550 0 LINE",
"550 128 LINE",
"211 128 LINE",
"225 102 LINE",
"550 597 LINE",
"550 700 LINE",
"88 700 LINE",
"88 572 LINE",
"402 572 LINE",
"388 598 LINE",
"66 103 LINE",
"66 0 LINE"
);
}
);
width = 616;
}
);
unicode = 005A;
},
{
glyphname = bracketleft;
lastChange = "2016-11-16 16:27:00 +0000";
layers = (
{
background = {
paths = (
{
closed = 1;
nodes = (
"324 -130 LINE",
"324 -67 LINE",
"185 -67 LINE",
"185 649 LINE",
"324 649 LINE",
"324 712 LINE",
"115 712 LINE",
"115 -130 LINE"
);
}
);
};
hints = (
{
origin = "{0, 6}";
target = "{0, 3}";
},
{
horizontal = 1;
origin = "{0, 0}";
target = "{0, 1}";
},
{
horizontal = 1;
origin = "{0, 3}";
target = "{0, 6}";
}
);
layerId = UUID0;
paths = (
{
closed = 1;
nodes = (
"456 -130 LINE",
"456 -67 LINE",
"317 -67 LINE",
"317 649 LINE",
"456 649 LINE",
"456 712 LINE",
"247 712 LINE",
"247 -130 LINE"
);
}
);
width = 616;
},
{
background = {
paths = (
{
closed = 1;
nodes = (
"433 -130 LINE",
"433 -5 LINE",
"313 -5 LINE",
"313 587 LINE",
"433 587 LINE",
"433 712 LINE",
"183 712 LINE",
"183 -130 LINE"
);
}
);
};
layerId = "C8970C82-1F9F-492B-A412-6BE281DD1303";
paths = (
{
closed = 1;
nodes = (
"453 -130 LINE",
"453 -5 LINE",
"313 -5 LINE",
"313 587 LINE",
"453 587 LINE",
"453 712 LINE",
"183 712 LINE",
"183 -130 LINE"
);
}
);
width = 616;
}
);
unicode = 005B;
},
{
glyphname = backslash;
lastChange = "2016-11-16 16:27:00 +0000";
layers = (
{
background = {
paths = (
{
closed = 1;
nodes = (
"461 -130 LINE",
"68 712 LINE",
"0 712 LINE",
"393 -130 LINE"
);
}
);
};
hints = (
{
horizontal = 1;
origin = "{0, 0}";
target = up;
type = BottomGhost;
},
{
horizontal = 1;
origin = "{0, 1}";
target = down;
type = TopGhost;
}
);
layerId = UUID0;
paths = (
{
closed = 1;
nodes = (
"582 -130 LINE",
"189 712 LINE",
"121 712 LINE",
"514 -130 LINE"
);
}
);
width = 616;
},
{
layerId = "C8970C82-1F9F-492B-A412-6BE281DD1303";
paths = (
{
closed = 1;
nodes = (
"571 -130 LINE",
"178 712 LINE",
"44 712 LINE",
"437 -130 LINE"
);
}
);
width = 616;
}
);
unicode = 005C;
},
{
glyphname = bracketright;
lastChange = "2016-11-16 16:27:00 +0000";
layers = (
{
background = {
paths = (
{
closed = 1;
nodes = (
"264 712 LINE",
"55 712 LINE",
"55 649 LINE",
"194 649 LINE",
"194 -67 LINE",
"55 -67 LINE",
"55 -130 LINE",
"264 -130 LINE"
);
}
);
};
hints = (
{
origin = "{0, 4}";
target = "{0, 7}";
},
{
horizontal = 1;
origin = "{0, 7}";
target = "{0, 4}";
},
{
horizontal = 1;
origin = "{0, 3}";
target = "{0, 0}";
}
);
layerId = UUID0;
paths = (
{
closed = 1;
nodes = (
"456 712 LINE",
"247 712 LINE",
"247 649 LINE",
"386 649 LINE",
"386 -67 LINE",
"247 -67 LINE",
"247 -130 LINE",
"456 -130 LINE"
);
}
);
width = 616;
},
{
background = {
paths = (
{
closed = 1;
nodes = (
"433 712 LINE",
"183 712 LINE",
"183 587 LINE",
"302 587 LINE",
"302 -5 LINE",
"183 -5 LINE",
"183 -130 LINE",
"433 -130 LINE"
);
}
);
};
layerId = "C8970C82-1F9F-492B-A412-6BE281DD1303";
paths = (
{
closed = 1;
nodes = (
"433 712 LINE",
"163 712 LINE",
"163 587 LINE",
"302 587 LINE",
"302 -5 LINE",
"163 -5 LINE",
"163 -130 LINE",
"433 -130 LINE"
);
}
);
width = 616;
}
);
unicode = 005D;
},
{
glyphname = asciicircum;
lastChange = "2016-11-16 16:27:00 +0000";
layers = (
{
background = {
paths = (
{
closed = 1;
nodes = (
"560 362 LINE",
"367 712 LINE",
"291 712 LINE",
"100 362 LINE",
"172 362 LINE",
"330 625 LINE",
"488 362 LINE"
);
}
);
};
hints = (
{
horizontal = 1;
origin = "{0, 0}";
target = up;
type = BottomGhost;
},
{
horizontal = 1;
origin = "{0, 1}";
target = down;
type = TopGhost;
}
);
layerId = UUID0;
paths = (
{
closed = 1;
nodes = (
"582 362 LINE",
"389 712 LINE",
"313 712 LINE",
"122 362 LINE",
"194 362 LINE",
"352 625 LINE",
"510 362 LINE"
);
}
);
width = 616;
},
{
layerId = "C8970C82-1F9F-492B-A412-6BE281DD1303";
paths = (
{
closed = 1;
nodes = (
"565 340 LINE",
"357 712 LINE",
"259 712 LINE",
"51 340 LINE",
"186 340 LINE",
"308 543 LINE",
"430 340 LINE"
);
}
);
width = 616;
}
);
unicode = 005E;
},
{
glyphname = underscore;
lastChange = "2016-11-16 16:27:00 +0000";
layers = (
{
background = {
paths = (
{
closed = 1;
nodes = (
"586 -177 LINE",
"586 -100 LINE",
"30 -100 LINE",
"30 -177 LINE"
);
}
);
};
hints = (
{
horizontal = 1;
origin = "{0, 0}";
target = "{0, 1}";
}
);
layerId = UUID0;
paths = (
{
closed = 1;
nodes = (
"576 -177 LINE",
"576 -100 LINE",
"40 -100 LINE",
"40 -177 LINE"
);
}
);
width = 616;
},
{
background = {
paths = (
{
closed = 1;
nodes = (
"586 -177 LINE",
"586 -77 LINE",
"30 -77 LINE",
"30 -177 LINE"
);
}
);
};
layerId = "C8970C82-1F9F-492B-A412-6BE281DD1303";
paths = (
{
closed = 1;
nodes = (
"576 -177 LINE",
"576 -77 LINE",
"40 -77 LINE",
"40 -177 LINE"
);
}
);
width = 616;
},
{
associatedMasterId = "C8970C82-1F9F-492B-A412-6BE281DD1303";
layerId = "B4D034E1-6D31-41E4-B2B1-90F34257527B";
name = "Sep 22 16, 20:27";
paths = (
{
closed = 1;
nodes = (
"586 -177 LINE",
"586 -77 LINE",
"30 -77 LINE",
"30 -177 LINE"
);
}
);
width = 616;
},
{
associatedMasterId = UUID0;
background = {
paths = (
{
closed = 1;
nodes = (
"631 -177 LINE",
"631 -100 LINE",
"-15 -100 LINE",
"-15 -177 LINE"
);
}
);
};
hints = (
{
horizontal = 1;
origin = "{0, 0}";
target = "{0, 1}";
}
);
layerId = "DD7C95C0-D2BA-49A4-8108-9D286215375B";
name = "Sep 22 16, 20:27";
paths = (
{
closed = 1;
nodes = (
"586 -177 LINE",
"586 -100 LINE",
"30 -100 LINE",
"30 -177 LINE"
);
}
);
width = 616;
}
);
unicode = 005F;
},
{
glyphname = grave;
lastChange = "2016-11-16 16:27:00 +0000";
layers = (
{
anchors = (
{
name = _top;
position = "{389, 523}";
}
);
background = {
paths = (
{
closed = 1;
nodes = (
"256 576 LINE",
"114 732 LINE",
"7 732 LINE",
"185 576 LINE"
);
}
);
};
hints = (
{
horizontal = 1;
origin = "{0, 0}";
target = up;
type = BottomGhost;
},
{
horizontal = 1;
origin = "{0, 1}";
target = down;
type = TopGhost;
}
);
layerId = UUID0;
paths = (
{
closed = 1;
nodes = (
"476 576 LINE",
"334 732 LINE",
"227 732 LINE",
"405 576 LINE"
);
}
);
width = 616;
},
{
anchors = (
{
name = _top;
position = "{237, 511}";
}
);
layerId = "C8970C82-1F9F-492B-A412-6BE281DD1303";
paths = (
{
closed = 1;
nodes = (
"375 576 LINE",
"233 732 LINE",
"71 732 LINE",
"249 576 LINE"
);
}
);
width = 616;
}
);
unicode = 0060;
},
{
glyphname = a;
lastChange = "2016-11-16 16:27:00 +0000";
layers = (
{
anchors = (
{
name = bottom;
position = "{308, 0}";
},
{
name = ogonek;
position = "{554, 10}";
},
{
name = top;
position = "{312, 528}";
}
);
background = {
paths = (
{
closed = 1;
nodes = (
"497 0 LINE",
"497 358 LINE SMOOTH",
"497 507 OFFCURVE",
"397 540 OFFCURVE",
"322 540 CURVE SMOOTH",
"249 540 OFFCURVE",
"179 509 OFFCURVE",
"137 483 CURVE",
"158 421 LINE",
"197 447 OFFCURVE",
"262 477 OFFCURVE",
"315 477 CURVE SMOOTH",
"373 477 OFFCURVE",
"430 455 OFFCURVE",
"430 348 CURVE SMOOTH",
"430 304 LINE",
"379 332 OFFCURVE",
"332 341 OFFCURVE",
"288 341 CURVE SMOOTH",
"187 341 OFFCURVE",
"96 288 OFFCURVE",
"96 166 CURVE SMOOTH",
"96 48 OFFCURVE",
"169 -12 OFFCURVE",
"275 -12 CURVE SMOOTH",
"332 -12 OFFCURVE",
"388 13 OFFCURVE",
"430 52 CURVE",
"430 0 LINE"
);
},
{
closed = 1;
nodes = (
"206 51 OFFCURVE",
"163 97 OFFCURVE",
"163 166 CURVE SMOOTH",
"163 243 OFFCURVE",
"224 278 OFFCURVE",
"295 278 CURVE SMOOTH",
"340 278 OFFCURVE",
"396 257 OFFCURVE",
"430 235 CURVE",
"430 132 LINE",
"398 93 OFFCURVE",
"347 51 OFFCURVE",
"283 51 CURVE SMOOTH"
);
}
);
};
hints = (
{
place = "{96, 67}";
},
{
place = "{430, 67}";
},
{
horizontal = 1;
place = "{-12, 63}";
},
{
horizontal = 1;
place = "{278, 63}";
},
{
horizontal = 1;
place = "{477, 63}";
}
);
layerId = UUID0;
paths = (
{
closed = 1;
nodes = (
"337 -12 OFFCURVE",
"391 13 OFFCURVE",
"432 50 CURVE",
"432 0 LINE",
"497 0 LINE",
"497 346 LINE SMOOTH",
"497 491 OFFCURVE",
"400 523 OFFCURVE",
"327 523 CURVE SMOOTH",
"253 523 OFFCURVE",
"181 493 OFFCURVE",
"138 467 CURVE",
"158 407 LINE",
"199 433 OFFCURVE",
"266 462 OFFCURVE",
"320 462 CURVE SMOOTH",
"377 462 OFFCURVE",
"432 440 OFFCURVE",
"432 337 CURVE SMOOTH",
"432 294 LINE",
"382 321 OFFCURVE",
"337 330 OFFCURVE",
"288 330 CURVE SMOOTH",
"188 330 OFFCURVE",
"96 279 OFFCURVE",
"96 161 CURVE SMOOTH",
"96 46 OFFCURVE",
"169 -12 OFFCURVE",
"276 -12 CURVE SMOOTH"
);
},
{
closed = 1;
nodes = (
"205 49 OFFCURVE",
"161 94 OFFCURVE",
"161 161 CURVE SMOOTH",
"161 235 OFFCURVE",
"223 269 OFFCURVE",
"295 269 CURVE SMOOTH",
"345 269 OFFCURVE",
"399 249 OFFCURVE",
"432 227 CURVE",
"432 128 LINE",
"401 90 OFFCURVE",
"351 49 OFFCURVE",
"283 49 CURVE SMOOTH"
);
}
);
width = 616;
},
{
anchors = (
{
name = bottom;
position = "{308, 0}";
},
{
name = ogonek;
position = "{554, 10}";
},
{
name = top;
position = "{308, 511}";
}
);
background = {
paths = (
{
closed = 1;
nodes = (
"532 0 LINE",
"532 326 LINE SMOOTH",
"532 500 OFFCURVE",
"415 523 OFFCURVE",
"323 523 CURVE SMOOTH",
"235 523 OFFCURVE",
"163 496 OFFCURVE",
"114 463 CURVE",
"154 358 LINE",
"202 391 OFFCURVE",
"252 409 OFFCURVE",
"312 409 CURVE SMOOTH",
"371 409 OFFCURVE",
"404 384 OFFCURVE",
"404 328 CURVE SMOOTH",
"404 302 LINE",
"373 317 OFFCURVE",
"336 326 OFFCURVE",
"287 326 CURVE SMOOTH",
"186 326 OFFCURVE",
"84 275 OFFCURVE",
"84 157 CURVE SMOOTH",
"84 45 OFFCURVE",
"166 -12 OFFCURVE",
"272 -12 CURVE SMOOTH",
"339 -12 OFFCURVE",
"380 13 OFFCURVE",
"404 37 CURVE",
"404 0 LINE"
);
},
{
closed = 1;
nodes = (
"241 102 OFFCURVE",
"211 124 OFFCURVE",
"211 157 CURVE SMOOTH",
"211 199 OFFCURVE",
"255 216 OFFCURVE",
"309 216 CURVE SMOOTH",
"344 216 OFFCURVE",
"377 210 OFFCURVE",
"404 199 CURVE",
"404 144 LINE",
"379 121 OFFCURVE",
"344 102 OFFCURVE",
"297 102 CURVE SMOOTH"
);
}
);
};
layerId = "C8970C82-1F9F-492B-A412-6BE281DD1303";
paths = (
{
closed = 1;
nodes = (
"339 -12 OFFCURVE",
"380 13 OFFCURVE",
"404 37 CURVE",
"404 0 LINE",
"532 0 LINE",
"532 326 LINE SMOOTH",
"532 500 OFFCURVE",
"415 523 OFFCURVE",
"318 523 CURVE SMOOTH",
"231 523 OFFCURVE",
"155 496 OFFCURVE",
"104 463 CURVE",
"144 358 LINE",
"195 391 OFFCURVE",
"248 409 OFFCURVE",
"307 409 CURVE SMOOTH",
"371 409 OFFCURVE",
"404 384 OFFCURVE",
"404 328 CURVE SMOOTH",
"404 302 LINE",
"373 317 OFFCURVE",
"336 326 OFFCURVE",
"282 326 CURVE SMOOTH",
"181 326 OFFCURVE",
"74 275 OFFCURVE",
"74 157 CURVE SMOOTH",
"74 45 OFFCURVE",
"160 -12 OFFCURVE",
"267 -12 CURVE SMOOTH"
);
},
{
closed = 1;
nodes = (
"234 102 OFFCURVE",
"201 124 OFFCURVE",
"201 157 CURVE SMOOTH",
"201 199 OFFCURVE",
"249 216 OFFCURVE",
"304 216 CURVE SMOOTH",
"344 216 OFFCURVE",
"377 210 OFFCURVE",
"404 199 CURVE",
"404 144 LINE",
"379 121 OFFCURVE",
"344 102 OFFCURVE",
"292 102 CURVE SMOOTH"
);
}
);
width = 616;
}
);
unicode = 0061;
},
{
glyphname = b;
lastChange = "2016-11-16 16:27:00 +0000";
layers = (
{
anchors = (
{
name = bottom;
position = "{308, 0}";
},
{
name = top;
position = "{308, 511}";
}
);
background = {
paths = (
{
closed = 1;
nodes = (
"461 -12 OFFCURVE",
"541 86 OFFCURVE",
"541 265 CURVE SMOOTH",
"541 438 OFFCURVE",
"455 540 OFFCURVE",
"323 540 CURVE SMOOTH",
"271 540 OFFCURVE",
"216 514 OFFCURVE",
"182 476 CURVE",
"182 746 LINE",
"110 710 LINE",
"110 0 LINE",
"182 0 LINE",
"182 48 LINE",
"216 19 OFFCURVE",
"255 -12 OFFCURVE",
"329 -12 CURVE SMOOTH"
);
},
{
closed = 1;
nodes = (
"265 53 OFFCURVE",
"211 86 OFFCURVE",
"182 135 CURVE",
"182 395 LINE",
"202 429 OFFCURVE",
"253 475 OFFCURVE",
"318 475 CURVE SMOOTH",
"416 475 OFFCURVE",
"465 400 OFFCURVE",
"465 265 CURVE SMOOTH",
"465 134 OFFCURVE",
"417 53 OFFCURVE",
"318 53 CURVE SMOOTH"
);
}
);
};
hints = (
{
place = "{110, 0}";
},
{
place = "{465, 76}";
},
{
horizontal = 1;
place = "{710, -20}";
target = down;
type = TopGhost;
},
{
horizontal = 1;
place = "{-12, 65}";
},
{
horizontal = 1;
place = "{475, 65}";
}
);
layerId = UUID0;
paths = (
{
closed = 1;
nodes = (
"461 -12 OFFCURVE",
"541 83 OFFCURVE",
"541 256 CURVE SMOOTH",
"541 424 OFFCURVE",
"455 523 OFFCURVE",
"323 523 CURVE SMOOTH",
"266 523 OFFCURVE",
"213 497 OFFCURVE",
"180 461 CURVE",
"180 722 LINE",
"110 687 LINE",
"110 0 LINE",
"180 0 LINE",
"180 46 LINE",
"213 18 OFFCURVE",
"250 -12 OFFCURVE",
"329 -12 CURVE SMOOTH"
);
},
{
closed = 1;
nodes = (
"260 51 OFFCURVE",
"208 83 OFFCURVE",
"180 131 CURVE",
"180 382 LINE",
"199 415 OFFCURVE",
"248 460 OFFCURVE",
"318 460 CURVE SMOOTH",
"418 460 OFFCURVE",
"468 387 OFFCURVE",
"468 256 CURVE SMOOTH",
"468 130 OFFCURVE",
"419 51 OFFCURVE",
"318 51 CURVE SMOOTH"
);
}
);
width = 616;
},
{
anchors = (
{
name = bottom;
position = "{295, 0}";
},
{
name = top;
position = "{295, 511}";
}
);
background = {
paths = (
{
closed = 1;
nodes = (
"449 -12 OFFCURVE",
"533 83 OFFCURVE",
"533 256 CURVE SMOOTH",
"533 421 OFFCURVE",
"443 523 OFFCURVE",
"321 523 CURVE SMOOTH",
"270 523 OFFCURVE",
"235 503 OFFCURVE",
"212 474 CURVE",
"212 722 LINE",
"82 663 LINE",
"82 0 LINE",
"212 0 LINE",
"212 37 LINE",
"235 5 OFFCURVE",
"267 -12 OFFCURVE",
"316 -12 CURVE SMOOTH"
);
},
{
closed = 1;
nodes = (
"258 113 OFFCURVE",
"231 127 OFFCURVE",
"212 154 CURVE",
"212 356 LINE",
"226 376 OFFCURVE",
"256 398 OFFCURVE",
"301 398 CURVE SMOOTH",
"366 398 OFFCURVE",
"403 348 OFFCURVE",
"403 256 CURVE SMOOTH",
"403 168 OFFCURVE",
"368 113 OFFCURVE",
"301 113 CURVE SMOOTH"
);
}
);
};
layerId = "C8970C82-1F9F-492B-A412-6BE281DD1303";
paths = (
{
closed = 1;
nodes = (
"469 -12 OFFCURVE",
"554 83 OFFCURVE",
"554 256 CURVE SMOOTH",
"554 421 OFFCURVE",
"463 523 OFFCURVE",
"339 523 CURVE SMOOTH",
"291 523 OFFCURVE",
"237 503 OFFCURVE",
"210 474 CURVE",
"210 722 LINE",
"80 663 LINE",
"80 0 LINE",
"210 0 LINE",
"210 37 LINE",
"237 5 OFFCURVE",
"279 -12 OFFCURVE",
"334 -12 CURVE SMOOTH"
);
},
{
closed = 1;
nodes = (
"266 113 OFFCURVE",
"233 127 OFFCURVE",
"210 154 CURVE",
"210 356 LINE",
"227 376 OFFCURVE",
"264 398 OFFCURVE",
"314 398 CURVE SMOOTH",
"386 398 OFFCURVE",
"424 348 OFFCURVE",
"424 256 CURVE SMOOTH",
"424 168 OFFCURVE",
"388 113 OFFCURVE",
"314 113 CURVE SMOOTH"
);
}
);
width = 616;
}
);
unicode = 0062;
},
